<svg xmlns="http://www.w3.org/2000/svg" width="883.929" height="713.746"><style><![CDATA[.B{fill:#2f2e41}.C{fill:#3f3d56}.D{opacity:.1}.E{fill:#6c63ff}.F{fill:#a0616a}]]></style><path d="M581.625 399.613c-18.647 11.183-51.87 25.196-85.82 10.795l-21.946-9.31 43.978-49.3c-72.718-80.18-72.593-202.49.29-282.52s194.65-91.564 281.262-26.642 109.7 185.036 53.33 277.442-173.736 126.84-271.095 79.534zm-84.262-189.247a174.54 174.54 0 0 0 55.572 128.418l12.13 11.4-27.674 31.02c14.415-2.925 26.97-10.723 33.336-15.252l8.735-6.216 9.395 5.162c25.97 14.218 55.1 21.67 84.706 21.667 97.157 0 176.2-79.043 176.2-176.2s-79.043-176.2-176.2-176.2-176.2 79.043-176.2 176.2z" class="C"/><path d="M480.28 210.366c0-106.747 86.536-193.283 193.283-193.283s193.283 86.536 193.283 193.283S780.3 403.65 673.563 403.65c-32.488.048-64.46-8.132-92.932-23.777-13.36 9.506-45.955 28.468-78.154 14.81l38.76-43.448c-38.946-36.49-61.018-87.497-60.956-140.868z" class="E"/><path d="M833.92 210.785c0-100.99-77.456-183.874-176.2-192.523a195.67 195.67 0 0 1 17.083-.76c106.747 0 193.283 86.536 193.283 193.283S781.55 404.068 674.802 404.068c-5.75 0-11.434-.27-17.056-.762 98.73-8.662 176.173-91.54 176.173-192.52z" class="D"/><path d="M228.163 668.125c-99.536.047-185.512-69.6-206.124-166.98s29.767-195.9 120.785-236.18 197.813-11.35 256.04 69.377 51.98 191.2-14.975 264.85l43.978 49.3-21.946 9.31c-33.95 14.4-67.172.388-85.82-10.795-28.658 13.893-60.1 21.113-91.938 21.12zm0-386.566c-97.157 0-176.2 79.043-176.2 176.2s79.043 176.2 176.2 176.2c29.606.003 58.737-7.448 84.706-21.667l9.395-5.162 8.735 6.215c6.366 4.53 18.92 12.327 33.336 15.252l-27.674-31.02 12.13-11.4a174.54 174.54 0 0 0 55.572-128.418c0-97.157-79.043-176.2-176.2-176.2z" class="C"/><path d="M421.446 457.758c0-106.747-86.536-193.283-193.283-193.283S34.88 351.01 34.88 457.758s86.536 193.283 193.283 193.283c32.488.048 64.46-8.132 92.932-23.777 13.36 9.506 45.955 28.468 78.154 14.81l-38.76-43.448c38.946-36.49 61.018-87.497 60.956-140.868z" class="E"/><path d="M69.045 456.782c0-100.99 77.456-183.874 176.2-192.523-5.63-.493-11.325-.76-17.083-.76-106.747 0-193.283 86.536-193.283 193.283s86.536 193.283 193.283 193.283c5.75 0 11.434-.27 17.056-.762-98.73-8.662-176.173-91.54-176.173-192.52z" class="D"/><path d="M718.938 148.96c-12.646-21.368-37.666-22.364-37.666-22.364s-24.38-3.118-40.02 29.426c-14.577 30.334-34.696 59.62-3.24 66.722l5.682-17.685 3.52 19.002a123.08 123.08 0 0 0 13.459.23c33.688-1.088 65.77.318 64.738-11.77-1.373-16.07 5.694-43-6.474-63.56zm-82.72 187.132a49.66 49.66 0 0 1-1.613 6.944c-.8 2.225-2.013 4.283-2.737 6.53-2.306 7.166.9 15.156 5.998 20.688a33.76 33.76 0 0 0 16.459 9.774 67.15 67.15 0 0 0 14.145 1.486c13.146.446 26.63.845 39.088-3.38 3.936-1.368 7.737-3.095 11.356-5.16a8.5 8.5 0 0 0 2.947-2.32 8.11 8.11 0 0 0 1.063-4.76c-.028-5.573-1.158-11.118-.9-16.684.15-3.083.726-6.164.442-9.238-.806-7.153-6.02-13.03-13.025-14.68-3.534-.76-7.2-.345-10.797.001-9.34.897-18.717 1.317-28.1 1.256-9.586-.06-19.112-1.524-28.65-1.677-2.82-.045-2.764.824-3.662 3.554-.827 2.512-1.504 5.072-2.026 7.665z" class="B"/><path d="M663.42 198.478c-.46 2.412-.96 4.912-2.408 6.894-1.668 2.28-4.387 3.584-6.18 5.766-2.7 3.285-2.855 7.908-2.866 12.16-.01 3.917.07 8.096 2.254 11.348a19.83 19.83 0 0 0 5.684 5.011c8.193 5.52 17.046 11.14 26.924 11.324 4.093.075 8.48-.982 11.174-4.064a16.78 16.78 0 0 0 2.705-4.827c2.526-6.226 4.057-12.8 4.537-19.512a22.91 22.91 0 0 0-.864-9.373c-1.2-3.346-3.626-6.1-5.23-9.27a20.64 20.64 0 0 1-1.986-12.213 1.32 1.32 0 0 0-.07-.885 1.29 1.29 0 0 0-1.062-.43l-19.586-1.4c-1.824-.09-3.64-.298-5.438-.622-1.056-.215-3.845-1.714-4.85-1.315-1.864.738-2.353 9.42-2.735 11.42z" class="F"/><path d="M663.42 199.1c-.46 2.412-.96 4.912-2.408 6.894-1.668 2.28-4.387 3.584-6.18 5.766-2.7 3.285-2.855 7.908-2.866 12.16-.01 3.917.07 8.096 2.254 11.348a19.83 19.83 0 0 0 5.684 5.011c8.193 5.52 17.046 11.14 26.924 11.324 4.093.075 8.48-.982 11.174-4.064 1.163-1.448 2.077-3.08 2.705-4.827 2.526-6.226 4.057-12.8 4.537-19.512a22.91 22.91 0 0 0-.864-9.373c-1.2-3.346-3.626-6.1-5.23-9.27a20.64 20.64 0 0 1-1.986-12.213 1.32 1.32 0 0 0-.07-.885 1.29 1.29 0 0 0-1.062-.431l-19.586-1.4c-1.824-.09-3.64-.298-5.438-.622-1.056-.215-3.845-1.714-4.85-1.315-1.864.738-2.353 9.42-2.735 11.42z" class="D"/><circle cx="682.151" cy="172.37" r="28.735" class="F"/><g fill="#fff"><path d="M667.45 236.73c1.42 1.644 3.13 3.01 5.047 4.033a15.86 15.86 0 0 0 6.305 1.201c5.18.146 10.795-.803 14.398-4.527 4.645-4.8 4.492-12.543 8.133-18.143a4.04 4.04 0 0 1 1.173-1.283c.61-.332 1.3-.49 1.995-.46 4.598-.043 8.604 2.94 12.22 5.78 1.7 1.17 3.16 2.658 4.3 4.38a14.85 14.85 0 0 1 1.45 4.441c1.794 8.757 2.375 17.71 2.95 26.63.318 4.927.637 9.86.613 14.796-.078 16.266-3.86 32.26-7.618 48.086-.484 2.04-1.147 4.318-3.002 5.295a7.4 7.4 0 0 1-2.619.639c-10.77 1.265-21.56 2.53-32.4 2.698q-6.346.098-12.687-.307c-.728-.01-1.45-.135-2.137-.373-.934-.448-1.736-1.13-2.33-1.98-5.864-7.4-6.2-17.606-6.173-27.04q.137-34.597 2.472-69.138c.13-1.9.157-4.21-1.213-5.704a71.41 71.41 0 0 0 9.122 10.97z"/><path d="M661.364 203.55c-.97 1.757-8.126 6.12-9.507 7.575-7.718 8.135-21.804 7.83-28.863 16.543-2.483 3.066-3.774 6.918-4.723 10.747-1.342 5.416-2.06 11.323.2 16.43 2.163 4.914 6.718 8.3 9.8 12.7 3.395 4.82 4.92 10.672 6.384 16.383 1.08 4.217 2.17 8.538 1.748 12.87-.478 4.926-2.862 9.436-4.27 14.18s-1.65 10.396 1.604 14.125c2.4 2.74 6.14 3.826 9.725 4.436 4.6.7 9.22 1.093 13.86 1.207 4.097.18 8.614.216 11.764-2.4 2.485-2.073 3.566-5.436 3.705-8.67s-.533-6.438-.954-9.646c-.437-3.326-.605-6.68-.745-10.033q-.945-22.56-.258-45.147a38.42 38.42 0 0 0-.457-9.368c-.88-4.028-3.056-7.628-4.872-11.33a42.87 42.87 0 0 1-4.753-22.648c.55-8.06 4.065-14.2.6-7.948zm40.35.6c1.478 1.52 6.5 2.02 8.382 3a29.37 29.37 0 0 0 5.51 1.908 71.53 71.53 0 0 1 19.356 8.884 11.77 11.77 0 0 1 3.237 2.796 12.8 12.8 0 0 1 1.79 5.056c.92 4.56 1.846 9.177 1.64 13.825-.22 4.934-1.706 9.713-3.18 14.427l-5.5 17.614c-4.112 13.147-8.25 26.424-9.408 40.15-.64 7.608-.356 15.265.848 22.804a2.7 2.7 0 0 1-.278 2.21c-.363.36-.84.58-1.35.62-2.66.416-5.232-.94-7.642-2.14a84.62 84.62 0 0 0-23.327-7.633 54.23 54.23 0 0 0 7.245-14.936 90.47 90.47 0 0 0 2.19-10.272l2.563-14.823a145.85 145.85 0 0 0 2.2-16.392 20.52 20.52 0 0 0-.357-6.175c-.6-1.93-1.375-3.796-2.34-5.57-4.224-8.786-6.206-18.812-4.544-28.418.727-4.204 2.14-8.413 1.55-12.638-.567-4.062.022-7.22-1.02-11.24-4.28-16.507-.336-5.915 2.446-3.057z"/><path d="M622.92 241.56c-1.926 3.996-5.145 7.4-6.24 11.698-.426 2-.6 4.062-.544 6.114-.2 3.093.116 6.197.907 9.194.612 1.895 1.606 3.643 2.323 5.502a19.95 19.95 0 0 1 1.307 8.151c-.193 3.85-1.5 7.585-1.603 11.438-.16 6.058 2.64 11.754 5.376 17.162 1.393-3.45 4.238-6.1 7.773-7.266s7.402-.696 10.566 1.262a3.76 3.76 0 0 0 .827-2.741q.303-10.543.585-21.087c.296-10.87.578-21.887-1.923-32.47-1.13-4.778-2.886-9.538-6.107-13.245-1.696-1.952-7.453-7.092-10.237-4.906-1.252.983-.96 3.66-1.158 5.015-.3 2.142-.924 4.226-1.852 6.18zm119.273-11.515a29.41 29.41 0 0 1 .983 8.845q.055 9.114-.242 18.226a33.98 33.98 0 0 1-1.184 9.227c-.622 1.955-1.58 3.8-2.224 5.738-1.925 5.84-.873 12.175-.708 18.322a20.82 20.82 0 0 1-.504 5.927c-1.016 3.8-3.745 6.9-5.65 10.343-1.8 3.28-2.9 6.956-5.062 10.015s-5.902 5.484-9.528 4.544c-2.747-.712-4.7-3.143-6.05-5.64a27.66 27.66 0 0 1-2.86-17.943c1.356-7.46 5.738-14.08 7.32-21.497 2.17-10.185-1.128-20.695-1.03-31.108a15.03 15.03 0 0 1 .656-4.822c.83-2.38 2.6-4.278 4.255-6.186 2.056-2.384 3.965-4.9 5.718-7.504 1.178-1.756 2.777-6.273 4.865-6.65 4.66-.84 10.1 6.558 11.247 10.16z"/></g><path d="M598.734 331.562c-2.578-.648-5.234-.93-7.9-.84a19.69 19.69 0 0 0-18.282 23.213c.644 2.978 1.696 5.853 3.126 8.543 2.092 4.246 4.602 8.483 8.475 11.204a33.01 33.01 0 0 0 7.48 3.56l20.4 7.685 9.034 3.3a176.7 176.7 0 0 0 47.185 9.38 51.09 51.09 0 0 0 14.65-.742 4.77 4.77 0 0 0 3-1.621 5.14 5.14 0 0 0 .67-2.214l1.255-8.788a7.36 7.36 0 0 0-.107-3.705c-.575-1.477-2.017-2.406-3.39-3.196-13.412-7.703-29.073-11.953-40.362-22.526-2.658-2.49-4.882-6.434-8.11-8.125-3.662-1.917-7.974-3.01-11.76-4.778-8.274-3.862-16.41-8.3-25.377-10.362z" class="B"/><path d="M619.102 343.4c7.21 2.26 37.655 17.914 42.874 23.38-.7.252-24.432-13.048-25.144-13.262a143.39 143.39 0 0 1-19.129-6.741c-1.237-.572-8.034-3.26-7.726-4.82.347-1.76 7.845 1.043 9.125 1.444z" class="D"/><g class="F"><path d="M709.062 402.178c.41.03.815-.1 1.143-.336.3-.373.42-.847.357-1.315l-.034-11.973c-3.443-1.64-7.294-2.166-11.074-2.67l-17.638-2.358c.405.054-2.758 7.597-2.273 8.604.855 1.775 7.387 3.348 9.23 4.186 6.41 2.913 13.07 6.116 20.287 5.865z"/><path d="M653.725 388.51c-3.33.53-7.047 1-9.204 3.592-2.735 3.287-1.57 8.188-.266 12.26.16 1.062.744 2.014 1.618 2.638s1.963.87 3.02.68c3.037.192 6.27.343 8.923-1.147 1.202-.794 2.36-1.654 3.466-2.576 1.957-1.302 4.108-2.285 6.373-2.913a64.44 64.44 0 0 1 12.792-2.636c1.71-.078 3.405-.377 5.04-.888 1.655-.533 2.967-1.807 3.55-3.446.615-2.176-.65-4.394-1.863-6.302a25.14 25.14 0 0 0-5.364-6.63c-3.286-2.553-4.912-.593-8.223 1.04-6.266 3.092-12.96 5.226-19.86 6.33z"/></g><g class="B"><path d="M645.022 391.5l-21.145-6.25a27.99 27.99 0 0 0-7.869-1.525c-2.717-.1-5.35.954-7.226 2.922-1.64 1.924-2.1 4.555-2.518 7.05l-.874 5.337a27.15 27.15 0 0 0-.5 8.196 9.06 9.06 0 0 0 4.201 6.752c2.926 1.596 6.512.817 9.778.15 6.596-1.348 13.306-2.068 20.038-2.15 2.53-.03 5.186.001 7.422-1.184 2.636-1.562 4.328-4.327 4.522-7.384.416-4.56-1.103-10.514-5.84-11.914zm72.352-5.445c2.74-.48 5.16-2.038 7.787-2.958 3.697-1.294 7.704-1.294 11.62-1.28a7.46 7.46 0 0 1 4.166.834c1.725 1.15 2.168 3.447 2.46 5.5l1.77 12.38a19.43 19.43 0 0 1 .145 7.014c-.52 2.294-2.083 4.506-4.36 5.098-2.765.72-5.476-1.047-8.086-2.208-6.525-2.9-14.1-2.16-20.914-4.326-1.316-.264-2.455-1.08-3.13-2.238-.233-.688-.316-1.417-.244-2.14.117-3.98-.723-9.413.475-13.216 1.077-3.42 5.25-2.46 8.3-2.46z"/><path d="M762.122 326.58a36.72 36.72 0 0 1 12.935-.884c3.458.38 7.02 1.343 9.546 3.737 3.073 2.913 4.06 7.42 4.143 11.652.135 8.432-2.662 16.65-7.912 23.25-1.282 1.67-2.807 3.137-4.524 4.355-1.852 1.158-3.826 2.1-5.886 2.836l-45.687 18.02c-12.02 4.74-24.08 9.495-36.618 12.62-.692.334-1.49.375-2.213.113s-1.31-.805-1.627-1.505c-4.003-5.718-7.36-11.86-10.013-18.317-.255-.31-.342-.727-.233-1.115s.4-.698.78-.83l32.315-18.567c2.37-1.236 4.578-2.758 6.577-4.532a16.33 16.33 0 0 0 3.377-4.701c.67-1.4.732-4.7 1.588-5.735.838-1.013 3.703-1.093 5.027-1.492 1.867-.572 3.695-1.263 5.473-2.07 7.23-3.234 13.666-7.932 20.595-11.72 3.887-2.222 8.04-3.94 12.36-5.116z"/></g><path d="M743.802 340.445c-5.552 4.17-12.74 8.003-18.243 12.283-1.878 1.46-33.183 19.06-33.626 21.398 5.133.865 37.834-22.012 42.513-24.294s8.826-5.502 12.936-8.697c1.047-.814 5.486-3.262 2.48-4.172-1.694-.513-4.81 2.65-6.06 3.483z" class="D"/><path d="M705.6 204.565h-48.735c-4.123 0-7.465 3.342-7.465 7.465v2.734h-.53v6.114h.53v4.28h-.53v3.668h.53v45.11c0 4.123 3.342 7.465 7.465 7.465H705.6c4.123 0 7.465-3.342 7.465-7.465V212.03c0-4.123-3.342-7.465-7.466-7.465z" fill="#d0cde1"/><path d="M713.347 146.9l-24.718-12.948-34.135 5.297-7.062 31.192 17.58-.677 4.91-11.46v11.27l8.112-.312 4.708-18.245 2.943 19.422 28.838-.59-1.177-22.952z" class="B"/><path d="M629.388 322.54c1.118 1.9 2.707 3.482 4.614 4.6 2.535 1.158 5.462 1.08 7.93-.213a13.96 13.96 0 0 0 5.724-5.739c2.686-4.744 3.243-10.42 2.907-15.86s-1.497-10.8-2-16.226c-.374-3.945-.404-7.914-.434-11.877a3.95 3.95 0 0 1 .499-2.402c.718-.714 1.647-1.178 2.65-1.323 5.422-1.6 9.02-6.693 11.6-11.726 1.723-3.36 3.22-7.035 2.9-10.797s-3.036-7.552-6.793-7.936c-3.097-.316-5.957 1.65-8.192 3.82a35.12 35.12 0 0 0-10.285 20.555c-.5 3.825-.35 7.754-1.4 11.468-2.22 7.93-9.172 12.8-12.636 19.925-3.817 7.862-1.7 16.787 2.927 23.742zm102.28-30.292a14.98 14.98 0 0 1-8.403 8.074c-2.323.933-4.885 1.1-7.305.447a8.1 8.1 0 0 1-5.351-4.787 12.91 12.91 0 0 1-.603-3.595c-.348-5.347-.213-10.857 1.73-15.85.75-1.926 1.76-3.753 2.35-5.733a28.75 28.75 0 0 0 .885-6.997l.638-14.6a9.48 9.48 0 0 0-.217-3.163c-.637-2.1-2.6-3.483-4.42-4.742-4.372-3.04-8.692-6.588-10.8-11.473a8.05 8.05 0 0 1-.747-4.752c.597-2.897 3.52-4.772 6.4-5.404a14.34 14.34 0 0 1 17.191 11.555c.286 1.646.282 3.328.45 5 .355 3.527 1.475 6.927 2.175 10.4 1.725 8.56.83 17.407 2.537 25.964 1.427 7.155 6.806 11.824 3.5 19.653z" class="F"/><circle cx="681.886" cy="231.272" r="6.114" class="E"/><circle cx="18.037" cy="432.969" r="18.035" class="B"/><g fill="#fbbebe"><path d="M83.41 486.5l-9.084-8.83-18.24 5.666 1.752 21.12 37.506-1.742L83.41 486.5z"/><circle cx="63.543" cy="457.171" r="29.158"/></g><g class="B"><path d="M244.556 523.934s35.82 61.56 44.346 70.8a154.74 154.74 0 0 0 12.935 12.892s-4.008 13.293-10.39 12.82a30.04 30.04 0 0 1-10.529-2.595s-2.85-7.385-7.818-10.624-45.568-43.18-44.62-55.946 16.077-27.347 16.077-27.347z"/><path d="M116.987 611.78s38.193 29.644 90.1 1.8l4.473-3.292s-7.55 16.982-8.25 21.586c-.812 5.338-20.466 36.6-23.673 38.108s-3.914 2.88-3.914 2.88l13.6 14.98 5.032-3.703s19.622-27.8 25.36-32.886 33.083-57.532 33.083-57.532 10.454-19.76-15.636-21.247-38.096 5.625-38.096 5.625l-46.304 7.356zm185.293-7.066l19.318 13.366s24.646 7.722 9.464 12.86-55.188 6.997-56.095-.092 1.578-18.25 3.574-17.638 15.848 4.207 23.74-8.496z"/><path d="M196.075 679.54l3.576 19.635s10.167 19.444-2.04 13.41-37.357-28.95-33.643-33.754 11.91-10.015 12.743-8.45 6.993 12.048 19.365 9.158z"/></g><path d="M159.24 591.892s-25.963 30.312-41.725 22.95-80.25-92.648-72.886-108.4 9.832-12.407 9.832-12.407l33.297 3.08-9.58-15.36s4.473-3.292 8.736 1.33 21.375 16.162 27.337 32.462 23.464 15.487 23.464 15.487z" fill="#fff"/><path d="M264.085 529.388L219.08 577.16l-40.316-71.18 38.327-46.307 46.994 69.714z" class="C"/><path fill="#fff" d="M260.688 528.87l-40.648 41.98-36.834-64.692 33.78-42.53 43.702 65.24z"/><path fill="#b3b3b3" d="M216.875 575.336l2.205 1.825-1.414 2.764-62.93 18.73-.595-2.156 2.863-2.96 59.872-18.202z"/><path fill="#d0cde1" d="M219.64 576.75l-65.167 20.375-39.725-75.063 64.017-16.08 40.875 70.77z"/><path d="M214.733 566.57l-2.796 2.057-31.03-53.878 3.207-1.498 30.62 53.32zm-6.415 2.995l-27.567 8.22-31.294-55.408 27.272-6.278 31.6 53.466z" class="C"/><path d="M130.657 528.455l5.708-1.614s31.83-3.6 32.294 6.402-36.567 5.36-36.567 5.36l-4.938-6.7zm27.918 44.965l7.944-3.26s23.98-10.752 17.1-17.757-28.095 5.16-28.095 5.16l-4.062 3.85z" fill="#fbbebe"/><path d="M151.495 557.942s12.935 12.892 9.992 15.92-51.2 42.857-63.173 30.113-70.257-76.728-47.575-82.215 28.676 7.342 28.676 7.342l29.944 51.23zm-38.732-39.162l21.248 7.205-.347 15.34-22.472-2.425 1.57-20.12z" fill="#fff"/><path opacity=".2" d="M131.914 565.887l-22.893 13.4-26.156-40.227 25.248 33.137 23.8-6.3z"/><circle cx="50.745" cy="448.718" r="34.712" class="B"/><path d="M238.3 532.417l-24.305-35.555 10.303-12.754 25.255 36.58-11.253 11.73z" class="E"/><path d="M237.615 546.712l-37.002-53.793 1.825-2.205 36.83 53.92-1.652 2.078zm-4.768 5.233l-37.002-53.793 1.825-2.205 36.83 53.92-1.652 2.077zm-4.062 3.85l-37.002-53.793 1.825-2.205 36.83 53.92-1.652 2.077z" fill="#e6e6e6"/><path d="M66.117 425.544h10.738a20.5 20.5 0 0 1 20.5 20.5h0a0 0 0 0 1 0 0H66.117a0 0 0 0 1 0 0v-20.5a0 0 0 0 1 0 0z" class="B"/><path d="M214.03 412.5l-1.947-.145-.194 3.046-8.738-.293 9.166 17.175 10.294-16.524-8.77-.294.2-2.966zm51.25-140.002l1.552 1.185a265.24 265.24 0 0 1 7.227-9.047l-1.5-1.252c-2.486 2.976-4.935 6.042-7.28 9.114zm14.956-17.898l1.44 1.317a264.43 264.43 0 0 1 7.992-8.374l-1.382-1.378a265.18 265.18 0 0 0-8.051 8.436zm16.464-16.508l1.32 1.44c2.833-2.6 5.757-5.17 8.693-7.636l-1.255-1.495a266.43 266.43 0 0 0-8.757 7.693zm-44.745 53.558l1.65 1.043a264.83 264.83 0 0 1 6.404-9.653l-1.602-1.115c-2.214 3.183-4.385 6.454-6.452 9.725zm62.588-68.55l1.2 1.548c3.05-2.342 6.2-4.644 9.328-6.84l-1.12-1.6c-3.163 2.213-6.324 4.53-9.397 6.9zm-74.173 88.816l1.736.892a264.65 264.65 0 0 1 5.528-10.186l-1.695-.97a262.67 262.67 0 0 0-5.569 10.263zm-18.83 54.954l-1.9-.487a261.94 261.94 0 0 0-2.655 11.354l1.9.402a261.04 261.04 0 0 1 2.635-11.27zm112.1-157.13l1.048 1.647a261.85 261.85 0 0 1 9.889-5.989l-.974-1.692a264.33 264.33 0 0 0-9.962 6.033zM216.773 389.516l-1.927-.316a264.46 264.46 0 0 0-1.636 11.543l1.94.23a262.43 262.43 0 0 1 1.624-11.458zm13.852-56.376l1.808.735a261.42 261.42 0 0 1 4.603-10.642l-1.774-.815a262.75 262.75 0 0 0-4.637 10.722zm-7.82 22.02l1.868.57a257.55 257.55 0 0 1 3.637-11.016l-1.84-.653a263.24 263.24 0 0 0-3.664 11.099zm242.892-184.333c3.828-.132 7.725-.185 11.58-.15l.017-1.952a266.77 266.77 0 0 0-11.664.15zM353.8 198.122l.898 1.733a262.51 262.51 0 0 1 10.374-5.088l-.82-1.77a263.57 263.57 0 0 0-10.45 5.126zm158.085-24.862a262.1 262.1 0 0 1 11.424 1.876l.358-1.92c-3.8-.7-7.672-1.347-11.5-1.9zm22.755 4.258a260.65 260.65 0 0 1 11.213 2.884l.528-1.88a262.64 262.64 0 0 0-11.297-2.905zm22.283 6.265c3.645 1.203 7.317 2.505 10.9 3.87l.694-1.825c-3.622-1.377-7.32-2.7-10.992-3.9zm-68.083-12.75c3.845.202 7.73.5 11.547.86l.2-1.943c-3.847-.372-7.76-.664-11.633-.867zm-46.462-.33l.238 1.938a264.09 264.09 0 0 1 11.514-1.16l-.153-1.947a266.27 266.27 0 0 0-11.6 1.168zm-45.546 9.768l.578 1.865a261.71 261.71 0 0 1 11.129-3.176l-.494-1.888c-3.744.98-7.516 2.055-11.213 3.2zm-21.917 7.87l.74 1.807a260.92 260.92 0 0 1 10.777-4.145l-.66-1.837a262.26 262.26 0 0 0-10.859 4.175zm44.475-13.77l.4 1.9c3.75-.804 7.575-1.536 11.367-2.174l-.324-1.926c-3.82.643-7.674 1.38-11.452 2.2zm177.575 25.155l-10.9-16.124-3.836 7.897-2.78-1.24-.776 1.792 2.702 1.205-3.818 7.86z" class="C"/></svg>