<svg xmlns="http://www.w3.org/2000/svg" xmlns:xlink="http://www.w3.org/1999/xlink" width="1135.7" height="856.85"><style><![CDATA[.B{opacity:.1}.C{fill:#6c63ff}.D{fill:#fff}.E{fill:#444053}.F{fill:#65617d}.G{fill:#dfe3ef}.H{fill:#4c4981}.I{fill:#efb7b9}.J{fill:#925978}.K{fill:#e7effd}.L{fill:#fbbebe}.M{fill:#3f3d56}.N{fill:#ffcdd3}.O{stroke:#444053}.P{stroke-miterlimit:10}.Q{fill:#d2d4de}]]></style><defs><linearGradient id="A" x1="982.1" y1="823.95" x2="982.1" y2="606.19" gradientUnits="userSpaceOnUse"><stop offset="0" stop-color="gray" stop-opacity=".25"/><stop offset=".54" stop-color="gray" stop-opacity=".12"/><stop offset="1" stop-color="gray" stop-opacity=".1"/></linearGradient><linearGradient id="B" x1="816.468" y1="500.395" x2="807.348" y2="263" xlink:href="#A"/><path id="C" d="M968.07 698.64s6.5-.62 7.07-.15 4.27 2.86 6.45 1.35.73-6.76.73-7l-.2-7.64-3.9-5.25-4.9-9.2-10-1 .26 14.6v7.48z"/><path id="D" d="M315.35 228h74v76.72h-74z"/><path id="E" d="M704.238 244.107l59.013-44.648 46.29 61.183-59.013 44.648z"/><path id="F" d="M188.26 134.43s-2.33-.38-1.44-2.3a7 7 0 0 0 2.75.11 6.11 6.11 0 0 0 3.67-2.68c1.67.58 1 1.43 1 1.43-.25 2.7-5.98 3.45-5.98 3.45z"/><path id="G" d="M177.55 166.67a18.3 18.3 0 0 1-4 3.32l-1.28.76c-11.3 6.22-31.3 6.33-40.67-1.93-8.75-7.7-11.77-19.27-8.37-28.72a26.1 26.1 0 0 1 .55-1.37 21.79 21.79 0 0 1 3.63-5.69c7.1-8.06 19-9.7 29.2-4.84a25.83 25.83 0 0 1 2.63 1.43 22.8 22.8 0 0 1 1.22.78 29.38 29.38 0 0 1 3 2.31c.52.46 1 .93 1.57 1.4l.13.12a78.17 78.17 0 0 1 8.87 9.44c.82 1.05 1.6 2.1 2.3 3.2.5.74 1 1.5 1.38 2.24a19.7 19.7 0 0 1 2.94 10c0 .32 0 .64-.07 1v.15a11.09 11.09 0 0 1-1.1 3.67 12.92 12.92 0 0 1-1.91 2.73z"/><path id="H" d="M183.98 166.43a7.27 7.27 0 0 0 .84-2.63 5.61 5.61 0 0 0-.19-1.65l-.15-.48a4.93 4.93 0 0 0-1.26-2.12c1-1.44 1.63-.53 1.63-.53 1.14.4 1.6 1.76 1.78 3.13q0 .3.06.6a15.78 15.78 0 0 1-.1 2.91s-1 2.14-2.6.77z"/><path id="I" d="M227.27 125.3c-5.4 3.47-11.63 6.83-17.55 8.6-4.55 1.4-8.9 1.82-12.56.66a11.35 11.35 0 0 1-4.26-2.45 12.68 12.68 0 0 1-2.15-2.56c-4.23-6.6-4.15-18.23-.8-28.3 2.33-7 6.22-13.2 11.33-16.47 12.46-8 28.38-5.4 35.56 5.78s2.9 26.74-9.57 34.73z"/><path id="J" d="M196.1 138.67c-1.6 2.23-6.86-.15-6.86-.15s-1.8-1.55 0-2.72a7.25 7.25 0 0 0 2.3 1.53 6.05 6.05 0 0 0 4.52-.38c1.1 1.37.04 1.72.04 1.72z"/><path id="K" d="M171.02 134.67a7.28 7.28 0 0 0 .84-2.62 6.11 6.11 0 0 0-1.61-4.25c1-1.44 1.64-.54 1.64-.54 2.57.93 1.74 6.64 1.74 6.64s-1 2.15-2.6.77z"/><path id="L" d="M171.85 133.43a7.28 7.28 0 0 0 .84-2.62 6.11 6.11 0 0 0-1.61-4.25c1-1.45 1.64-.54 1.64-.54 2.57.93 1.74 6.64 1.74 6.64s-1 2.16-2.6.77z"/><path id="M" d="M154.25 67.55a3.5 3.5 0 0 1-1.68.24 5.76 5.76 0 0 0-2.45.68c.37-5.12 7.38-6.6 7.38-6.6a9.54 9.54 0 0 0-3.25 5.68z"/><path id="N" d="M175.04 123.9s-2.33.4-2.1-1.7a7.44 7.44 0 0 0 2.64-.79 6.09 6.09 0 0 0 2.6-3.72c1.77 0 1.37 1 1.37 1 .7 2.7-4.5 5.22-4.5 5.22z"/><path id="O" d="M177.47 114.67a11.41 11.41 0 0 1-4.62 1.76 12.43 12.43 0 0 1-3.34 0 17.35 17.35 0 0 1-4.56-1.24l-1.78-.8-.12-.06c-6.83-3.5-13.6-10.7-17.63-18.58-2.75-5.36-4.24-11-3.62-16 1.82-14.7 14-25.28 27.18-23.65s22.42 14.86 20.6 29.55a82.36 82.36 0 0 1-3.1 14.93c-.13.43-.27.85-.42 1.27-1.94 5.6-4.7 10.33-8.6 12.83z"/><path id="P" d="M175.45 123.28s-2.33.4-2.1-1.72a7 7 0 0 0 2.64-.79 6.06 6.06 0 0 0 2.6-3.72c1.77 0 1.37 1 1.37 1 .7 2.7-4.5 5.23-4.5 5.23z"/><path id="Q" d="M195 148.7c-1 1.46-1.63.56-1.63.56-2.58-.9-1.8-6.63-1.8-6.63s1-2.16 2.6-.8a7.09 7.09 0 0 0-.8 2.63 6.08 6.08 0 0 0 1.63 4.24z"/><path id="R" d="M175.24 112.12a3.6 3.6 0 0 1-1.68.23 5.83 5.83 0 0 0-2.46.68c.38-5.1 7.38-6.6 7.38-6.6a9.49 9.49 0 0 0-3.24 5.68z"/><path id="S" d="M196.02 168.43s-2.33.4-2.1-1.72a6.94 6.94 0 0 0 2.64-.79 6.08 6.08 0 0 0 2.61-3.72c1.77 0 1.37 1 1.37 1 .68 2.73-4.5 5.23-4.5 5.23z"/><path id="T" d="M194.6 169.28s-2.34.4-2.1-1.72a7.2 7.2 0 0 0 2.64-.78 6.11 6.11 0 0 0 2.6-3.73c1.77 0 1.37 1 1.37 1 .7 2.7-4.5 5.23-4.5 5.23z"/><path id="U" d="M230.4 314.2l-2.05-2.85s-3.74 5.3 1.68 8.64.37-5.8.37-5.8z"/><path id="V" d="M270.44 298.02l-5.24 4.7 1.36 4.06.07-.25 8.25-5.9a4.6 4.6 0 0 0-3.11-2.32 10.93 10.93 0 0 1-1.33-.28z"/><path id="W" d="M301.18 365.25l-4.13 2.4a6.63 6.63 0 0 0 2.64 2.74c1.87 1 14.08-6.6 13.88-8.32-.15-1.36-2.54-2.8-3.55-3.36a12.34 12.34 0 0 1-8.84 6.54z"/></defs><g class="C"><path d="M584.53 172.83c-71.4 11.92-142.9 5.5-211.75-3.38s-137.52-20.22-209.07-18.02c-46 1.43-97.17 10.47-129 38.2-30.62 26.7-35 63.2-34.7 96.18.22 24.83 2.55 50.54 19.36 70.5 11.67 13.86 29.5 23.9 43 36.72 47 44.58 33.67 113.64 3.9 172.13-14 27.43-31.1 54.37-40.5 82.5s-10.32 58.45 7.38 81.78c17.54 23.08 51.1 36.4 86 43.5 70.9 14.47 149.57 7 225.67-3.38 168.43-23.13 335.03-60.54 501.03-97.84 61.47-13.8 123.2-27.7 182.35-48 32.84-11.26 66.25-25.43 87.28-47.83 26.7-28.45 26.93-67.72.56-91.55-44.2-39.9-143.2-32.45-177.56-77.9-18.94-25-11.23-58.6 3.24-88.17 31-63.4 91.75-125.65 83-189.36-6-43.76-48.38-80.4-104.68-90.52-59-10.62-134.4 7.1-167.78 50.6-34.4 44.78-104.7 73.32-167.73 83.84z" class="B"/><path d="M1044.67 222.95s-14.07-5.72-58.8 14.8-50.33 17.92-61.92 14.78-18-3.88-30.46-21c0 0-8.75-47.48-17.23-54.83s-44.5 4.2-44.5 4.2-43.2 9.9-51.42-47.82c0 0 5.84-43.5-2.1-56.85 0 0 16 6.92 42.54-4.26s47.7 12 47.7 12 6.68 17.3 6 27.6 3.53 14.2 16.17 9.2c0 0 6.2-8.83-2.58-23.43s-15.06-25.46-12.6-36.8 9.5-27 32.17-34.9 53.44-9.37 68.22-15.52S994.17-.03 994.17-.03s-9.1 9.1 12.32 47.73 7.77 55.38 7.77 55.38-11.4 27.15-61.7 24.95c0 0-48.47 1.77-22.05 22.32 0 0 16.93-3.44 42.23-11.5s43.57 25.16 48.1 48.26 23.83 35.83 23.83 35.83z"/></g><g class="E"><path d="M979.5 29.3l.27-.07c1.94 7.37-19.72 37-38.24 60.52l-.22-.17c26.13-33.2 39.7-54.62 38.2-60.28z"/><path d="M941.7 89.1l.1.3c-14.8 18.8-33.4 41.25-48.3 57.87-1.42 1.58-2.83 3.25-4.18 4.94l-.43-.34c1.36-1.7 2.78-3.37 4.2-5 14.9-16.58 33.8-38.98 48.6-57.77z"/><path d="M889.28 151.43l.3.5c-27.1 33.83-28.9 86.36-29 86.8l-5.7-6.6c.1-.48 7.13-46.67 34.4-80.72z"/></g><g fill="none" class="O P"><path d="M1013.25 204.6s-32-16.6-56.86-10.65-81-21.07-81-21.07-23.8-9.67-28.6-20.7c0 0-16.33-17.27-17.26-26.2s-16.83-31.4-27.2-32.26m206.3 126.88s-16.1-10.84-14.22-23.48m-10.47 37.48s-23-8.35-25.32-41.1m-11.76 49.57s-22-18.24-14.7-50.12"/><path d="M902.18 234.16s-14.65-30.73-1.6-50.73m113.04.92s-16.64 5.28-13.07 14m-7-44.2s-22.26 7.07-22.8 38.57m-8.26-45.84s-20.27 25-18.78 47.76M927 156.7s-20.14 19.24-17.57 29.94m5.42-36.74s-18.88 3.38-21.52-2.8m-3.03-20s9.54 12.63 12 9.8m82.55-17.8s-47.58 3.45-58.35-10.9m-46.2-44.77s22.33 47.93 38.55 54m-15.12-76.8s13.7 44.08 30.7 57.84"/><g stroke-width=".75"><path d="M1004.85 82.72s-36.2 15.54-57.92-.18m-10.97-51.32s8.27 32.4 19.4 40.2"/><path d="M999.43 46.43s-20.34 7.7-27.93 1.8"/></g><path d="M872.9 137.7s-.06 28.25-7.7 30.25m-55.18 6.35s30.54 2.6 44.63-13.15M865 104.3s-7.4 28.66-27.77 36.37m-45.53 3.43s21.62 7.5 40.2-11.63m9.07-52.8s-2 24.34-15.27 35.72m-33.18-8.37s17.94.12 22.15-5.73"/></g><g class="C"><ellipse cx="675.84" cy="808.62" rx="353.51" ry="16.83" class="B"/><path d="M184.6 820.7s-36.1-2.18-31.85 23.12c0 0-.84 4.47 3.2 6.5 0 0 .06-1.87 3.7-1.24a16.25 16.25 0 0 0 3.92.19 8.16 8.16 0 0 0 4.8-2h0s10.15-4.2 14.1-20.78c0 0 2.92-3.6 2.8-4.54l-6.1 2.6s2.1 4.4.45 8.05c0 0-.2-7.9-1.37-7.7-.24 0-3.17 1.53-3.17 1.53s3.6 7.65.88 13.22c0 0 1-9.44-2-12.67l-4.3 2.5s4.16 7.95 1.36 14.38c0 0 .72-9.9-2.25-13.75l-3.9 3s3.93 7.8 1.54 13.14c0 0-.32-11.52-2.38-12.4 0 0-3.4 3-3.92 4.23 0 0 2.7 5.66 1 8.64 0 0-1-7.67-1.86-7.7 0 0-3.4 5.1-3.74 8.57a18.44 18.44 0 0 1 2.92-9.06 10.17 10.17 0 0 0-5.19 2.69c0 0 .53-3.6 6-3.9 0 0 2.8-3.86 3.55-4.1 0 0-5.47-.46-8.78 1 0 0 2.92-3.4 9.78-1.85l3.84-3.13s-7.2-1-10.25.1c0 0 3.5-3 11.28-.8l4.18-2.5s-6.13-1.32-9.8-.85c0 0 3.86-2.08 11 .18l3-1.34s-4.5-.9-5.8-1-1.4-.5-1.4-.5a15.6 15.6 0 0 1 8.45.94c0 0 6.37-2.34 6.27-2.74z"/><ellipse cx="159.74" cy="852.53" rx="25.55" ry="4.32" class="B"/><path d="M121.35 822.06s-20.35-1.23-17.95 13a3.48 3.48 0 0 0 1.81 3.67s0-1.06 2.1-.7a9.45 9.45 0 0 0 2.21.11 4.59 4.59 0 0 0 2.7-1.12h0s5.72-2.36 7.95-11.7c0 0 1.64-2 1.58-2.57l-3.44 1.47a6.13 6.13 0 0 1 .25 4.54c0 0-.1-4.45-.77-4.34-.13 0-1.78.85-1.78.85s2 4.32.5 7.46c0 0 .58-5.32-1.12-7.14l-2.42 1.4s2.36 4.46.76 8.1c0 0 .4-5.58-1.27-7.75l-2.2 1.7s2.22 4.4.87 7.4c0 0-.18-6.5-1.34-7a13.16 13.16 0 0 0-2.21 2.39c0 0 1.5 3.2.57 4.87 0 0-.57-4.33-1-4.34 0 0-1.9 2.86-2.1 4.83a10.49 10.49 0 0 1 1.65-5.11 5.81 5.81 0 0 0-2.93 1.51s.3-2 3.4-2.2a13.7 13.7 0 0 1 2-2.31 12.72 12.72 0 0 0-4.95.57c0 0 1.64-1.9 5.52-1l2.16-1.76s-4.06-.56-5.78 0c0 0 2-1.7 6.36-.46l2.36-1.4a21.24 21.24 0 0 0-5.52-.48c0 0 2.17-1.17 6.2.1l1.68-.76s-2.53-.5-3.28-.57-.78-.3-.78-.3a8.85 8.85 0 0 1 4.76.53s3.53-1.3 3.46-1.5z"/><ellipse cx="107.34" cy="840" rx="14.41" ry="2.44" class="B"/><path d="M160.1 791.82s-24.57-1.48-21.68 15.74a4.2 4.2 0 0 0 2.19 4.42c0 0 0-1.27 2.52-.84a11.3 11.3 0 0 0 2.67.13 5.56 5.56 0 0 0 3.26-1.35h0s6.9-2.85 9.6-14.14c0 0 2-2.46 1.9-3.1l-4.14 1.75s1.4 3 .3 5.48c0 0-.13-5.37-.93-5.24-.16 0-2.16 1-2.16 1s2.44 5.2.6 9c0 0 .7-6.42-1.36-8.62l-2.92 1.7s2.85 5.38.92 9.77c0 0 .5-6.73-1.53-9.36l-2.64 2.07s2.67 5.3 1 8.94c0 0-.2-7.84-1.62-8.43a16.35 16.35 0 0 0-2.67 2.88s1.84 3.85.7 5.88c0 0-.7-5.22-1.27-5.25 0 0-2.3 3.46-2.54 5.84a12.65 12.65 0 0 1 2-6.17 6.91 6.91 0 0 0-3.53 1.83c0 0 .36-2.45 4.1-2.66 0 0 1.9-2.63 2.42-2.8 0 0-3.72-.3-6 .7 0 0 2-2.3 6.66-1.26l2.6-2.13s-4.9-.67-7 .07c0 0 2.4-2 7.67-.55l2.92-1.7a26.13 26.13 0 0 0-6.67-.57c0 0 2.63-1.42 7.5.12l2-.9s-3.06-.6-3.95-.7-1-.34-1-.34a10.6 10.6 0 0 1 5.75.64c0 0 4.4-1.58 4.32-1.85z"/><ellipse cx="143.18" cy="813.48" rx="17.39" ry="2.94" class="B"/></g><path d="M668.6 784.06v7.82H437.33v-6.36c28.84-10.685 48.4-37.7 49.544-68.436s-16.348-59.132-44.314-71.934h224.46a76.13 76.13 0 0 0-42 50.4c-7.69 30.32 3.98 62.255 29.4 80.47a76.11 76.11 0 0 0 14.16 8.04z" class="Q"/><path d="M667.02 645.15a76.13 76.13 0 0 0-42 50.4H484.58a76.13 76.13 0 0 0-42-50.4z" class="B"/><path d="M172.53 605.32v43.9c0 24.25 17.74 43.9 39.63 43.9h680.38c21.9 0 39.63-19.65 39.63-43.9v-43.9z" class="Q"/><path d="M668.6 784.06v7.82H437.33v-6.36a75.74 75.74 0 0 0 17.84-9.5H654.4a76.11 76.11 0 0 0 14.18 8.04z" class="B"/><rect x="360.91" y="778.46" width="384.09" height="23.17" rx="9.5" class="Q"/><path d="M932.17 124.3c0-21.887-17.743-39.63-39.63-39.63H212.16c-21.887 0-39.63 17.743-39.63 39.63v489.56h759.64z" fill="#30374e"/><path d="M911.45 141.97v420.67c0 10.775-8.735 19.5-19.5 19.5H212.77a19.5 19.5 0 0 1-19.51-19.51V141.97a19.51 19.51 0 0 1 19.51-19.54h679.17a19.52 19.52 0 0 1 19.51 19.54z" class="G"/><g class="D"><circle cx="552.35" cy="103.56" r="9.15"/><circle cx="552.35" cy="651.04" r="22.56"/><path d="M911.44 141.97H193.26a19.5 19.5 0 0 1 19.51-19.54h679.16a19.5 19.5 0 0 1 19.51 19.54z"/></g><g class="G"><circle cx="212.77" cy="132.21" r="4.88"/><circle cx="227.4" cy="132.21" r="4.88"/><circle cx="242.03" cy="132.21" r="4.88"/></g><path d="M260.88 196H840.5v338.72H260.88z" class="D"/><path d="M1034.42 674.83c.2-.57-1.38-3.77-1.38-3.93s-1.63-1.94-1.63-2.93-2.17-3.15-2.17-3.15-2.9-1.2-3.2-3.82-3.48-2.67-3.5-2.67h0v-.6a8.47 8.47 0 0 0-.38-3.07 3.12 3.12 0 0 0-1.8-1.52 6.76 6.76 0 0 0-1-2.67 3 3 0 0 1-.74-2.83c.32-1-.42-3.5-2-3.88l-3.27-.94-.42.07-.2-.07a10.31 10.31 0 0 1-1.11.14 1.4 1.4 0 0 1-.9-.3c-.53-.57-4.8-1.67-5.6-1.67a13.25 13.25 0 0 1-3.06-1l-2.27-1.73a14.81 14.81 0 0 1-2-2.74h0a11.19 11.19 0 0 1-.48-1.38h0a12.47 12.47 0 0 0 2-2.7l.15-.3a1.27 1.27 0 0 0 .34 0l.14-.06a2.22 2.22 0 0 0 1.12-1.34h0a2.19 2.19 0 0 0 .1-.34v-.12a2 2 0 0 0 0-.24.59.59 0 0 0 0-.13 2 2 0 0 0 0-.24v-.43l.17-1.1a21.08 21.08 0 0 1 1.78-3.94h0q.14-.28.24-.57l.2-.64a1.46 1.46 0 0 0 0-.2c0-.15.08-.3.1-.47s0-.14 0-.2c0-.22.06-.44.08-.66a8 8 0 0 0-.54-3.68c-.4-1-1-1.87-1.38-2.85-.6-1.5-.77-3.18-1.5-4.6a5.49 5.49 0 0 0-6.57-2.68c-1.15.43-2.14 1.26-3.3 1.63-1.56.5-3.22.12-4.84-.1s-3.4-.24-4.7.8c-1.5 1.2-1.9 3.5-3.3 4.83-.6.56-1.32.9-1.94 1.43a3.15 3.15 0 0 0-1 1.33v.1a1 1 0 0 0 0 .14.88.88 0 0 0 0 .16v.1a2.61 2.61 0 0 0 0 .28h0a2.38 2.38 0 0 0 .05.26v.07a1.42 1.42 0 0 0 .07.22h0l.1.24.06.12a.3.3 0 0 0 0 .1 6.48 6.48 0 0 1 .49 1.22 1.37 1.37 0 0 1 0 .8 2.33 2.33 0 0 1-.59.77 11.06 11.06 0 0 0-2.38 3.81l-.17.5h.07a2.52 2.52 0 0 0 .46.1h.27a4.26 4.26 0 0 0 1.07-.08l.27-.06a6.31 6.31 0 0 0 1.07-.4v.5a12.45 12.45 0 0 0 6.92 11.14v.34a2.7 2.7 0 0 1 0 .28l-.14-.13s-1-.47-1.85.9a6 6 0 0 1-2.59 2s-9.6 1.52-10 2.78l-4.48.26s-1.58.2-1.74 3.5-1 3.6-1 3.6-1.85 3.25-1.7 4.93a2.73 2.73 0 0 1-1.43 2.51l-.2 3a2 2 0 0 0-2.21 1.78 7.21 7.21 0 0 1-1.32 3c0 0-2.9 2.4-3.06 4.45l-1.8 1.1s-4.16-.94-5.1-2.62l-.3-.27a14.23 14.23 0 0 0-1.74-1.54 1.29 1.29 0 0 1 .08.84l-.3-.34-.5-1.04s-6.2-7.12-10.15-7.62h0a2.49 2.49 0 0 0-1.78 1.72c-.5 1.7-1 4.52.28 5.9l6.25 6.66.16.12 1.36 1.74a21.09 21.09 0 0 0-.59 1.57h0c0 .1-.07.2-.1.3v.1l-.1.3c0 .06 0 .12-.05.17v.1l-.3 1.16-.35-.1.34.15a.45.45 0 0 0 0 .11l.32.14c1.85.8 11.07 4.85 11.55 5.47a6.67 6.67 0 0 0 7.17 1 7.56 7.56 0 0 0 3.85-4.24A44.77 44.77 0 0 0 962 676c.1-.62 2.48-1.36 2.48-1.36s.2 7-1 9.6-3.48 13.92-3.48 13.92a1.71 1.71 0 0 1 .45 0l-.13.66a1.57 1.57 0 0 1 .56 0c-.17 1.3-1.14 7.3-1.14 7.3a15.39 15.39 0 0 1-.84 3.67c-.53.94-.6 5.86-.6 5.86l-.84 3.57a8.83 8.83 0 0 0 .32.61h0a9 9 0 0 0 2.43 3.13 6.16 6.16 0 0 1-.43 1.63 5.78 5.78 0 0 0-.42 2.52 31.64 31.64 0 0 0-.79 5.19 19.52 19.52 0 0 1-.58 4l-1 9.12s-.63 7.9-.32 10a19.09 19.09 0 0 1-.21 5.08c0 0 .63 6.24.48 6.92s-1 3.62-.48 5.24.2 6.08.2 6.08.32 5.87.7 7.75a13.26 13.26 0 0 1-.11 4.3 34.75 34.75 0 0 1-.53 4c-.15 0-1.53 2.78 1.27 5.5s1.06 2.3 1.06 2.3-2.22-1.1-2 1.15.6 1.6.63 1.53l-.52 1.72.37.05c-.1.12-.2.25-.3.37a8.15 8.15 0 0 1-1.06 1.1 2.3 2.3 0 0 0-.69 1.52 41.26 41.26 0 0 1-7.54 6.39 22.42 22.42 0 0 0-4.29 2.88c-.65.7-.54 1.3.8 1.73a20.45 20.45 0 0 0 11.44.21 13.35 13.35 0 0 0 5.6-3.61 8.07 8.07 0 0 1 4.48-.74c2.22.42 6.65-2.46 6.65-2.46l-.08-.74-.24-2.14a1.7 1.7 0 0 1-.37-1.31 7 7 0 0 0-.18-1.88c0-.2-.08-.42-.12-.6l.4-.08s-.53-2.67.42-3.2.68-7.4.68-7.4a8.4 8.4 0 0 0-1.84-1.83c-.63-.27-.06-3.52 0-3.93s1-8.55 1-8.55a11 11 0 0 1 .11-3.66c.42-1.1-.53-5.34-.53-5.34a1 1 0 0 1 .26-1.16c.58-.63.37-6.23.37-6.23l-.05-3.57a12.93 12.93 0 0 1 1.21-4.29c.58-.9.22-3.67.22-3.67h0v-.8a40.89 40.89 0 0 1 1-4.54c.7-2.2 1.48-6.08 1.48-6.08l4.9-12.8v-.15a20.05 20.05 0 0 1 2.27 8.07 46.08 46.08 0 0 1 .42 5.92 69.66 69.66 0 0 0 .48 7.17c0 0 .68 8.5.68 8.86s.85 6.9 1.38 7.9-.53 4-.85 4.35.1 8 .1 8l-.95 7.34c-.16 1.26-.8 6.08-.26 8s.32 2.14.32 2.14 1.9 1.94.8 2.1a2.9 2.9 0 0 0-2.11 3.82 49.81 49.81 0 0 0 2.32 5.61l.88-.18v.62l.06 3.12a18.48 18.48 0 0 1 .16 3.67c-.15.5-.37 2.85-.47 4.07 0 .45-.06.75-.06.75s0 2.78 5.86 1.94 6.9-3.14 6.9-3.14v-.3c.1-.53.28-1.66.43-2.28.2-.84-1.68-4.6-1.68-4.6s-.32-2.57-.85-3.15a2.7 2.7 0 0 1-.42-1.1c0-.2-.1-.43-.13-.64l.4.07s-.3-1.84.9-2.4a1.74 1.74 0 0 0 .74-2.31 17.63 17.63 0 0 1 .47-3.46 1.72 1.72 0 0 1 .42-1.67c.75-.74 1.32-5.87 1.32-5.87l.1-19.8a19.05 19.05 0 0 0-.05-4.92c-.43-1.42-.85-4.14-.27-4.88s.06-4.13.06-4.13 0-7.18.8-9 .53-13.05.53-13.05l.2-7.4s1.72-1.62 1.3-10.13c1.84-.1 3.9-.18 4.23.07.58.47 4.32 2.9 6.54 1.37a31.72 31.72 0 0 0 2.63-2.05l-.93-15.7.94 1.46c0-2.2 6.22-9.33 6.22-9.33s5.8-7.5 7.07-8.38 3.75-5.6 3.75-5.6a22.5 22.5 0 0 1 1.26-2.62c.9-.9-1-3.42-.8-4zm-13.62 5.5c-1.58.16-4.9 3.78-5 4.56a3.16 3.16 0 0 1-.7 1.41c0-.32 0-.64-.07-1-.38-4.63-.78-10.27-.6-10.8a31.41 31.41 0 0 0 .21-5.19h0l.06-.08c1.06 3.3 4.37 7.16 4.37 7.16s.58 1.68 1.26 1.73.47 2.22.47 2.22z" transform="translate(-32.15 -21.57)" fill="url(#A)"/><path d="M904.06 657.57s1.93-10.1 8.12-10.14l4.52 9.3-3 2.08s-6.57.2-9.64-1.24z" class="F"/><path d="M916.7 656.73l-3 2.08a35.47 35.47 0 0 1-7.9-.66 9.89 9.89 0 0 1-1.72-.58v-.17a21.91 21.91 0 0 1 1.17-3.71l.64-1.38a9.32 9.32 0 0 1 3.92-4.3 5.19 5.19 0 0 1 2.06-.54h.28l.1.2 1.53 3.15z" class="B"/><use xlink:href="#C" class="F"/><use xlink:href="#C" class="B"/><path d="M910.85 647.17s-.5 6.34-4.47 6.44c0 0-1.12-.67-2.62-1.8-3.48-2.6-9-7.6-7.46-12.24 2.18-6.65 12.8 5.62 12.8 5.62l.82.9z" class="L"/><path d="M910.85 647.17s-.5 6.34-4.47 6.44c0 0-1.12-.67-2.62-1.8l-.34-.43a5.15 5.15 0 0 0 2.16.58 2.9 2.9 0 0 0 2.83-1.78 21.58 21.58 0 0 0 1.1-2.52 8.09 8.09 0 0 0 .4-1.56z" class="B"/><path d="M909.16 658.66l-.9-1.15-3-3.85-1.53-2a5.26 5.26 0 0 0 2.17.59 2.92 2.92 0 0 0 2.82-1.79 22.31 22.31 0 0 0 1.1-2.51c.5-1.4.48-2.13.3-2.37a14.75 14.75 0 0 1 1.71 1.55h0l.3.27.1.2 1.5 3v.13c.17 1 .68 7.06-4.6 7.92z" class="K"/><path d="M940.3 792.5s-4.37 2.86-6.56 2.44a7.82 7.82 0 0 0-4.42.73 13.14 13.14 0 0 1-5.51 3.59c-3.53 1.2-8.47.72-11.28-.2-1.33-.44-1.44-1-.8-1.72a22.18 22.18 0 0 1 4.23-2.86 40.71 40.71 0 0 0 7.44-6.34 2.27 2.27 0 0 1 .67-1.51 8 8 0 0 0 1-1.09c.56-.66 1.08-1.35 1.08-1.35l12.85.4a39.78 39.78 0 0 0 .39 1.88 6.91 6.91 0 0 1 .18 1.87 1.69 1.69 0 0 0 .36 1.3l.23 2.12zm26.9 3.58c-.16.63-.34 1.74-.43 2.27v.28s-1 2.3-6.8 3.12-5.77-1.92-5.77-1.92 0-.3.06-.74a38.1 38.1 0 0 1 .46-4 18.94 18.94 0 0 0-.16-3.64l-.06-3.1v-2.16l9.56-1a19.63 19.63 0 0 0 .31 2.13 2.87 2.87 0 0 0 .42 1.09c.52.57.83 3.12.83 3.12s1.8 3.72 1.6 4.55z" class="F"/><path d="M939.06 784.6l.4 1.88c-1.4.25-7.45 1.3-9 .57a23.38 23.38 0 0 0-5.41-1.3l.06-.2 1.08-1.35zm25.2 2.7c-2.42-.42-7.74.58-9.83 1v-2.16l9.56-1a19.63 19.63 0 0 0 .27 2.16z" class="B"/><path d="M969.68 708.43l-.2 7.33s.26 11.18-.52 13-.78 8.9-.78 8.9.52 3.38-.06 4.1-.15 3.43.26 4.83a18.81 18.81 0 0 1 .05 4.89l-.1 19.66s-.57 5.1-1.3 5.82a1.68 1.68 0 0 0-.41 1.66 17.29 17.29 0 0 0-.47 3.44 1.72 1.72 0 0 1-.73 2.28c-1.2.58-.9 2.4-.9 2.4-2.85-.68-11 1.14-11 1.14a47.77 47.77 0 0 1-2.29-5.57 2.87 2.87 0 0 1 2.08-3.79c1.1-.16-.78-2.08-.78-2.08s.2-.26-.32-2.13.1-6.66.26-7.9l.94-7.27s-.42-7.65-.1-8 1.35-3.33.83-4.3-1.35-7.5-1.35-7.86-.68-8.8-.68-8.8-.62-5.87-.47-7.12a45.67 45.67 0 0 0-.41-5.87 20 20 0 0 0-2.24-8l-.05.15-4.84 12.7s-.78 3.85-1.45 6a39.89 39.89 0 0 0-1 4.52v.78s.37 2.75-.2 3.64a12.68 12.68 0 0 0-1.2 4.26l.05 3.54s.2 5.56-.36 6.18a1 1 0 0 0-.26 1.15s.93 4.2.52 5.3a10.92 10.92 0 0 0-.11 3.64c0 0-.83 8.06-.93 8.48s-.68 3.64-.05 3.9a8.34 8.34 0 0 1 1.81 1.82c0 0 .27 6.8-.67 7.33s-.42 3.17-.42 3.17-7.54 1.46-9.25.62a23.94 23.94 0 0 0-5.41-1.3l.52-1.7c0 .06-.38.62-.62-1.5s1.92-1.15 1.92-1.15 1.72.42-1-2.28-1.4-5.46-1.25-5.46a34.21 34.21 0 0 0 .52-4 13.41 13.41 0 0 0 .11-4.27c-.37-1.87-.68-7.7-.68-7.7s.26-4.4-.2-6 .3-4.52.47-5.2-.47-6.86-.47-6.86a19.27 19.27 0 0 0 .21-5c-.3-2.14.3-10 .3-10l.94-9a19.45 19.45 0 0 0 .57-4 32.57 32.57 0 0 1 .78-5.14 5.78 5.78 0 0 1 .41-2.5 18.66 18.66 0 0 0 .73-4.47l5-11.44 2.44-10.1 33-.3.32 2.47.8 6.84.9 9.2c.86 11.02-1.22 12.96-1.22 12.96z" class="M"/><path d="M966.62 617.43l-7.7 8.22s-9.88-4-8.84-5.3c.4-.53.34-2.18.1-4-.37-2.88-1.15-6.2-1.15-6.2s17.26-2.8 15.8.1a4.77 4.77 0 0 0-.11 3.45 12.67 12.67 0 0 0 1.88 3.72z" class="L"/><path d="M964.85 610.25c-.53 1.06-.8 1.17-.46 2.3-2.25 2.42-5.12 5.07-8.7 5.07a12.25 12.25 0 0 1-5.51-1.29c-.37-2.88-1.15-6.2-1.15-6.2s17.26-2.8 15.8.1z" class="B"/><path d="M968.07 604.94a12.38 12.38 0 0 1-18.666 11.014 12.38 12.38 0 0 1-6.084-11.014v-.17c.23-6.7 5.754-12 12.458-11.953s12.153 5.42 12.292 12.123z" class="L"/><path d="M969.85 686.6l-13.27.15h-2.07c-7.23.1-14.36-1.3-17.22-1-6.08.57 2.18-5.62 2.18-5.62a50.77 50.77 0 0 0 13.86 1.4l1.75-.1c5.53-.3 11.1-.83 14-1.7l.77 6.86z" class="B"/><path d="M969.85 686.27l-13.2.16h-2.15c-7.23.12-14.36-1.3-17.22-1-6.08.57 2.18-5.62 2.18-5.62a50.77 50.77 0 0 0 13.86 1.4l1.75-.1c5.53-.3 11.1-.83 14-1.7l.77 6.85z" fill="#e3a79f"/><path d="M952.37 620.86l-9.52 4.47-7.43 57.1s4.37-2 6.86-.73 10.2.1 10.2.1 5.62-.32 6.45.3 10.6-2.6 10.6-2.6 1.76-4 .4-4.58.42-6.76.42-6.76l-.83-41.18-1.67-5.3-4.47-2.7-4.54 3.62-2.2.32z" class="B"/><path d="M952.37 620.23l-9.52 4.47-7.38 57.1s4.37-2 6.86-.73 10.2.1 10.2.1 5.62-.3 6.45.3 10.6-2.6 10.6-2.6 1.76-4 .4-4.57.42-6.76.42-6.76l-.83-41.18-1.67-5.3-4.47-2.7-4.6 3.64-2.2.3z" class="K"/><path d="M952.2 622.88s2.76 3.28 2.7 4l-.16 2.28-2.08 4.22-1.14 6.34c0 1.1-1.82 10.55-1.82 10.55l-2.2 14.56-2.75 19.1 2.8 4.83 3.33-2.8 4.42-34 .94-6.7 1-13.3a41.73 41.73 0 0 0-.58-4.52c0 0 .68-3.12 3.5-3.85s-.2-.16-.2-.16l-1.6-1.3-1.4.57s-3.9-1.23-4.74.22z" class="B"/><path d="M951.9 622.57s2.76 3.28 2.7 4l-.15 2.3-2.08 4.2-1.15 6.35c0 1.1-1.82 10.55-1.82 10.55l-2.18 14.56-2.76 19.08 2.8 4.84 3.33-2.8 4.42-34 .94-6.7 1-13.3a42.71 42.71 0 0 0-.57-4.53s.68-3.12 3.5-3.84-.2-.16-.2-.16l-1.6-1.3-1.4.57s-3.92-1.24-4.75.2z" class="M"/><path d="M950.08 617.1s-.42.32-.52 2.4a41.36 41.36 0 0 1-1.56 6.75c0 0 5.4-3.74 8.1-3.32z" class="B"/><path d="M950.08 616.5s-.42.3-.52 2.4a41.28 41.28 0 0 1-1.56 6.76s5.4-3.74 8.1-3.33z" class="K"/><path d="M964.85 615.43l-8.53 7.5 8.1 5.3c.93 1.04 1.87-10.2 1.87-10.2z" class="B"/><path d="M965.16 614.83l-8.53 7.48 8.1 5.3c.93 1.04 1.88-10.2 1.88-10.2z" class="K"/><path d="M950.4 617.1s-.93-.46-1.82.9a5.84 5.84 0 0 1-2.55 2s-9.46 1.5-9.82 2.76l-4.42.26s-1.56.2-1.72 3.48-1 3.6-1 3.6-1.82 3.22-1.66 4.9a2.71 2.71 0 0 1-1.4 2.49l6.5 16.9s.2 7-1 9.52-3.43 13.83-3.43 13.83.93-.2.88.4-1.14 7.44-1.14 7.44a15.13 15.13 0 0 1-.84 3.64c-.52.94-.57 5.82-.57 5.82l-.83 3.54s2 4.42 5 3.8 8.48-12.43 8.48-12.43l3.48-12.74 2.7-12.58.78-8.53 1.25-18.88 1.82-12.48s2.04-6.73 1.3-7.62z" class="B"/><path d="M950.08 616.5s-.94-.47-1.82.88a5.81 5.81 0 0 1-2.55 2s-9.46 1.5-9.82 2.75l-4.42.26s-1.56.2-1.72 3.5-1 3.6-1 3.6-1.82 3.22-1.66 4.88a2.74 2.74 0 0 1-1.41 2.5l6.5 16.9s.2 7-1 9.5-3.44 13.84-3.44 13.84.94-.2.9.4-1.15 7.44-1.15 7.44a15 15 0 0 1-.83 3.64c-.52.93-.57 5.82-.57 5.82l-.83 3.54s2 4.42 5 3.8 8.48-12.43 8.48-12.43l3.48-12.73 2.7-12.6.78-8.53 1.25-18.87 1.82-12.48s2.1-6.73 1.32-7.6z" class="F"/><path d="M916.7 656.73l-3 2.08a35.47 35.47 0 0 1-7.9-.66l-1.68-.75-.34-.14.35.1a6.87 6.87 0 0 0 4.16.14c4.27-1.43 3.8-8.48 3.63-10.07v-.3a2.22 2.22 0 0 0 .19.27l.2.2 1.5 3v.13z" class="B"/><path d="M927.15 636.43l-1.46.42-.2 3a2 2 0 0 0-2.19 1.77 7.2 7.2 0 0 1-1.3 3c0 0-2.86 2.4-3 4.4l-1.77 1.1s-4.1-.94-5-2.6c0 0 1.87 13.4-8.12 10.14 0 0 11.18 4.88 11.7 5.56a6.55 6.55 0 0 0 7.07 1 7.55 7.55 0 0 0 3.8-4.21c0 0 3-4.22 3.12-4.84s2.44-1.35 2.44-1.35l4.48-10.82z" class="F"/><path d="M963.65 621.7l1.5-6.86a8.19 8.19 0 0 0 1.35 2.75l2.24 1.72a12.92 12.92 0 0 0 3 1c.78 0 5 1.1 5.5 1.66s2.6.16 2.6.16l3.23.93c1.5.36 2.23 2.86 1.92 3.85a3 3 0 0 0 .73 2.81 6.75 6.75 0 0 1 .94 2.65 3 3 0 0 1 1.76 1.51 10.53 10.53 0 0 1 .37 3.64l-7.74 10.92a31.9 31.9 0 0 1-.21 5.14c-.3.94 1.1 16.85 1.1 16.85l1.62 27.35a30.49 30.49 0 0 1-2.6 2c-.47.2-.94-9.67-.94-10s-12-18-12-18a16.19 16.19 0 0 1-1.61-3.17c0-.57-1.5-5.82-1.5-5.82l-2.3-10.14z" class="B"/><path d="M989.46 636.95v.6l-7.76 10.88a31.68 31.68 0 0 1-.2 5.14c-.18.55.2 6.14.58 10.74l.5 6.1 1.6 27.35a29 29 0 0 1-2.6 2c-.47.2-.94-9.67-.94-10s-12-18-12-18a16.19 16.19 0 0 1-1.61-3.17c0-.57-1.5-5.82-1.5-5.82l-2.28-10.14 1-31 .88-6.86a15 15 0 0 0 2 2.75l2.23 1.72a13 13 0 0 0 3 1c.78 0 5 1.1 5.5 1.66s2.6.16 2.6.16 1.7.57 3.22.93 2.24 2.86 1.93 3.85a3 3 0 0 0 .72 2.81 6.59 6.59 0 0 1 .94 2.65 3 3 0 0 1 1.77 1.51 8.53 8.53 0 0 1 .4 3.13z" class="F"/><path d="M925.9 775.5c.26 0 11.18.42 11 2.2s-11-2.2-11-2.2zm2.45 2.93s7.33 1.2 5.4 2.3-5.4-2.3-5.4-2.3zm27.25-4.08s12.17 1 10.35 2.4-6.14 1.56-6.34 1.6a56.07 56.07 0 0 1-4.01-4zm-1.46 5.35s6.76 1.14 7 2.44-7-2.44-7-2.44zm3.7-31.27s6.2 1.46 6.55 2.45zM934 752.88s-3.22.93-.1 2.8.1-2.8.1-2.8zm14.3-49.98c.37 0 6-1.87 8-1a13.24 13.24 0 0 0 4.42.83zm.74 5.93l-.05.52-4.84 12.7-1.45 6a39.89 39.89 0 0 0-1 4.52l4.3-26.6z" class="B"/><path d="M956.6 686.43h-2.07l-1.18-5.24 1.75-.1z" class="M"/><path d="M981.12 680.08l-1.3 1.07-4.32 3.56s-11.7 6.24-14.93.3c-2.84-5.22 10.43-9 13.62-9.76l.68-.17z" class="L"/><path d="M931.15 628.97s2.3 1 2.8 2.5-2.8-2.5-2.8-2.5zm-7.07 15.6s-3.33 4.05-2 5.6 2-5.6 2-5.6zm59.5-13.3s-3.12.3-3.23 3zm-28.9 42.64c.3-.3 7.48-10.92 9.15-10zm13.4-68.96a12.4 12.4 0 0 1-1.46 5.85h-.1c-.8-.17-1.2-1.08-1.8-1.65a2.42 2.42 0 0 0-2.8-.39 2.82 2.82 0 0 0-1.38 2.66c-.4-1.66-.27-3.43-.66-5.1s-1.55-3.36-3.15-3.4c-.68 0-1.48.26-2-.26-.3-.3-.36-.8-.6-1.17-1.13-1.85-4.6-.9-6 0a36.81 36.81 0 0 1-4.82 3.27 12.38 12.38 0 0 1 12.458-11.953c6.704.047 12.153 5.42 12.292 12.123z" class="B"/><path d="M954.16 601.15c.23.38.3.87.6 1.18.5.5 1.3.25 2 .26 1.6 0 2.75 1.72 3.14 3.4s.26 3.44.66 5.1a2.83 2.83 0 0 1 1.38-2.67 2.43 2.43 0 0 1 2.8.4c.6.57 1 1.48 1.8 1.65s1.54-.6 1.82-1.42a24.13 24.13 0 0 0 .45-2.59c.35-1.62 1.4-2.95 2-4.5a8.19 8.19 0 0 0-.06-5.81c-.4-1-1-1.85-1.36-2.83-.6-1.48-.76-3.15-1.5-4.56a5.37 5.37 0 0 0-6.47-2.66c-1.13.42-2.1 1.24-3.26 1.6-1.54.5-3.18.12-4.77-.1s-3.35-.24-4.63.8c-1.47 1.2-1.87 3.46-3.26 4.8-.58.55-1.3.9-1.9 1.42a2.6 2.6 0 0 0-1.07 2.11c.1 1.08 1.14 2.06.75 3.05a2.37 2.37 0 0 1-.57.76 10.87 10.87 0 0 0-2.52 4.29c2.78.87 5.8-2.2 8-3.65 1.38-.95 4.85-1.88 5.98-.04z" class="M"/><path d="M981.12 680.08l-1.3 1.07c-1.14-1.9-5.83-5.7-5.83-5.7l.2-.2.68-.17z" class="B"/><path d="M982.37 678.16l-.95 2.16c-.5 1-1 1.9-1 1.17-.06-1.46-6.1-6.35-6.1-6.35l.82-.8 1-.92z" class="K"/><path d="M982.58 670.43l.68 11.6c-1.6-2.5-6-9-8.9-8.74l6.92-7.95a10.36 10.36 0 0 0 .79-1l.5 6.1z" class="B"/><path d="M982.37 678.16l-.95 2.16c-1.8-2.5-4.3-5.43-6.3-6l1-.92z" class="B"/><path d="M987.57 636.1l1.87 1.46s3.12 0 3.43 2.65 3.18 3.8 3.18 3.8 2.13 2.13 2.13 3.12 1.6 2.75 1.6 2.9 1.56 3.32 1.35 3.9 1.66 3.06 1.1 4a24 24 0 0 0-1.25 2.6c0 0-2.44 4.68-3.7 5.56s-7 8.32-7 8.32-6.14 7.07-6.14 9.26c0 0-6-10-9.52-9.72l6.92-8s1.2-1.3 1.25-2.08 3.33-4.37 4.9-4.52c0 0 .26-2.14-.42-2.2s-1.25-1.7-1.25-1.7-4.57-5.4-4.63-8.84 6.18-10.52 6.18-10.52z" class="F"/><path d="M990.33 641.03s-4.37 3.23-3.44 4.27 3.44-4.27 3.44-4.27zm.2 13.3s8.1-2.6 9 0zM940.3 792.5s-4.37 2.86-6.56 2.44a7.82 7.82 0 0 0-4.42.73 13.14 13.14 0 0 1-5.51 3.59c-3.53 1.2-8.47.72-11.28-.2-1.33-.44-1.44-1-.8-1.72 3.06.6 9.88 1.82 11.72.94a49.34 49.34 0 0 0 5.82-3.64s4.47-.63 5.1-.63a54.78 54.78 0 0 0 5.84-2.24zm26.46 5.85v.28s-1 2.3-6.8 3.12-5.77-1.92-5.77-1.92 0-.3.06-.74c1.78.7 5.77 1.46 12.52-.74zM933.3 640.43s0 11.85-1 13 1-13 1-13zm46.9 3.8l1.5 4.24s.6-4.16-1.5-4.24z" class="B"/><g class="B"><path d="M943.42 598.78c.38-1-.62-1.93-.75-3a2 2 0 0 0-.16.94c.06.8.65 1.52.8 2.25a1.39 1.39 0 0 0 .11-.19zm17.26 11.2c-.38-1.64-.27-3.38-.64-5s-1.56-3.35-3.15-3.38c-.7 0-1.5.25-2-.26-.3-.3-.36-.8-.6-1.18-1.14-1.84-4.6-.9-6 0-2.13 1.42-5.05 4.38-7.78 3.7a9.94 9.94 0 0 0-.35 1c2.78.87 5.8-2.2 8-3.65 1.42-1 4.9-1.88 6 0 .23.38.3.87.6 1.18.5.5 1.3.25 2 .26 1.6 0 2.75 1.72 3.14 3.4s.26 3.44.66 5.1a2.74 2.74 0 0 1 .12-1.17z"/><path d="M968.5 608.03c-.3.82-1 1.58-1.83 1.4s-1.2-1.08-1.8-1.65a2.45 2.45 0 0 0-2.81-.39 2.85 2.85 0 0 0-1.38 2.52 2.77 2.77 0 0 1 1.23-1.51 2.43 2.43 0 0 1 2.8.4c.6.57 1 1.48 1.8 1.65s1.54-.6 1.82-1.42a7.41 7.41 0 0 0 .29-1.49l-.13.48zm2.44-7.1c-.58 1.55-1.64 2.88-2 4.5a8.33 8.33 0 0 0-.16 1c.36-1.62 1.4-2.94 2-4.48a8 8 0 0 0 .48-2.16 8.34 8.34 0 0 1-.32 1.14z"/></g><g class="G"><use xlink:href="#D"/><use xlink:href="#D" x="95"/></g><g class="C"><use xlink:href="#D" x="190" opacity=".2"/><use xlink:href="#D" x="285" opacity=".2"/><use xlink:href="#D" x="380" opacity=".2"/><use xlink:href="#E" class="B"/></g><path d="M352.35 235.97a12.36 12.36 0 0 0-8.736 21.103 12.36 12.36 0 0 0 21.096-8.753 12.35 12.35 0 0 0-12.36-12.35zm8.5 15.68c-.48-.16-1.4-.2-1.75-.62-.17-.2-.06-1-.06-1a3.69 3.69 0 0 0 1.84-.36c.23-.14.13-.16 0-.36-.65-1.1-.36-2.47-.4-3.66a3 3 0 0 0-1.19-2.64 3.76 3.76 0 0 0-1.86-.41 4.14 4.14 0 0 0-1.5.24c-2.52 1-1 4.35-1.9 6.26-.15.33-.36.44 0 .63a4.64 4.64 0 0 0 1.72.37v.83c-.07.3-.7.5-.94.56a7.3 7.3 0 0 0-1 .34.24.24 0 0 0 0 .45 4.35 4.35 0 0 1 .69.17 6.5 6.5 0 0 1 2.73 1.48 4.07 4.07 0 0 1 1.19 2.65.74.74 0 0 1-.33.69l-.34.2a.16.16 0 0 1-.25-.14 4 4 0 0 0-2.72-3.87c-.8-.28-1.67-.3-2.47-.58-.25-.08-.73-.2-.83-.46a3 3 0 0 1-.11-.88v-.68c0-.22.38-.46.46-.6a4.55 4.55 0 0 0 .41-1.86c.52.14.58-.8.67-1.1s.3-1.24-.15-1.4a2.42 2.42 0 0 0 .25-.87 5.28 5.28 0 0 0-.07-2.34 3.69 3.69 0 0 0-3.52-2.46 3.77 3.77 0 0 0-3.77 2.25 4.92 4.92 0 0 0-.17 2.35 2.88 2.88 0 0 0 .28 1.07c-.38.17-.27 1-.2 1.27s.18 1.4.72 1.24a8.81 8.81 0 0 0 .23 1.44 2.06 2.06 0 0 0 .49.83c.1.12.16.13.15.28a6.1 6.1 0 0 1-.11 1.42c-.12.45-1.1.64-1.5.72a8.62 8.62 0 0 0-2.46.69 10.71 10.71 0 0 1 9.09-16.17 10.75 10.75 0 0 1 7.59 3.06 10.63 10.63 0 0 1 3.21 7.63 10.8 10.8 0 0 1-.86 4.23 2.75 2.75 0 0 0-1.33-.9z" class="D"/><path d="M353.48 292.65v-13.67l6.3 6.3 1.57-1.63-9-9-9 9 1.58 1.57 6.3-6.24v13.67zm95 0v-13.67l6.3 6.3 1.57-1.63-9-9-9 9 1.57 1.57 6.3-6.24v13.67z" opacity=".5" class="C"/><path d="M447.7 245.93a.27.27 0 0 0-.43 0l-5.13 6.8a.26.26 0 0 0 .18.43l9 .78a.26.26 0 0 0 .25-.39l-3.86-7.6zm5.85 3.62a.27.27 0 0 0-.43 0l-1.38 1.4a.24.24 0 0 0 0 .3l1.42 2.76a.26.26 0 0 0 .2.13l2.5.2a.26.26 0 0 0 .25-.39l-2.54-4.38zm.6-2.2a1.33 1.33 0 0 0 1.28-1.07 1.32 1.32 0 1 0-1.28 1.07zm4.3-5.3l-3.67-.32-.34-3.74a1.52 1.52 0 0 0-1.65-1.37l-16.57 1.5a1.51 1.51 0 0 0-1.37 1.64l1.5 16.54a1.51 1.51 0 0 0 1.65 1.36l.87-.07-.08.93a1.5 1.5 0 0 0 1.38 1.63l16.58 1.45a1.52 1.52 0 0 0 1.64-1.38l1.46-16.54a1.5 1.5 0 0 0-1.38-1.63zm-20.5 9.56a.39.39 0 0 1-.41-.34l-1-11.16a.37.37 0 0 1 .34-.41l15.57-1.4a.39.39 0 0 1 .41.34l.27 2.95-11.25-1a1.51 1.51 0 0 0-1.64 1.37l-.83 9.5-1.46.14zm20.2-7.57l-1 11.16a.38.38 0 0 1-.41.34l-1-.1-14.54-1.26a.38.38 0 0 1-.35-.41l.2-2.45.77-8.7a.37.37 0 0 1 .4-.35l15.58 1.4a.37.37 0 0 1 .34.36z" class="D"/><path d="M315.35 380.14h169v126h-169z" class="G"/><path d="M419.24 418.84a59.35 59.35 0 0 0-78.72 56.08 4.21 4.21 0 0 1-8.42 0 67.78 67.78 0 0 1 89.61-64.14" class="C"/><path d="M421.7 410.78c27.424 9.387 45.86 35.154 45.9 64.14a4.21 4.21 0 1 1-8.42 0c-.03-25.286-16.054-47.785-39.94-56.08" class="D"/><path d="M406.1 444.96h-.07a7.37 7.37 0 0 0-6.17 3.38 7.37 7.37 0 0 0-6.17-3.38h-.07a7.34 7.34 0 0 0-7.28 7.34 15.79 15.79 0 0 0 3.11 8.63c3.9 5.35 10.4 10 10.4 10s6.5-4.68 10.4-10a15.79 15.79 0 0 0 3.11-8.63 7.34 7.34 0 0 0-7.28-7.34z" class="C"/><path d="M530.96 327.47h256.4v190.67h-256.4z" class="G"/><path d="M557.35 470.95h10.5v35.2h-10.5zm20-43.55h10.5v78.75h-10.5z" class="D"/><path d="M597.35 388.14h10.5v118h-10.5z" class="G"/><path d="M617.35 360.14h10.5v146h-10.5z" class="D"/><path d="M597.35 360.14h10.5v146h-10.5zm40 65.76h10.5v80.25h-10.5z" class="C"/><path d="M657.35 405.14h10.5v101h-10.5zm20-31.5h10.5v132.5h-10.5z" class="D"/><path opacity=".2" d="M697.35 447.14h10.5v59h-10.5zm20-27.24h10.5v86.25h-10.5zm20-31.76h10.5v118h-10.5zm20 0h10.5v118h-10.5z" class="C"/><path d="M816 309.05l10.28-5.78 4.82 2.9 96.34 463.72-5.77 1.1-12.04-10.45L816 309.05z" class="F"/><path d="M826.3 303.27l95.4 467.7 5.77-1.1-96.34-463.72-4.82-2.9z" class="B"/><path d="M755.38 328.62l73.32 7.02v5.67l-72.93-6.35-.4-6.34zm7.77 69.08h77.75v8.3h-78.75l1-8.3zm7.13 72.43l78.5-3.12 9.82 3.12v5.32l-69.74 3.67h-17.93l-.64-9z" class="F"/><path d="M789.85 474.45l68.74-4.32v5.32l-69.74 3.67 1-4.67z" class="B"/><path d="M770.28 470.13l19.57 4.32-1 4.67h-17.93l-.64-9z" class="B"/><path d="M777.4 548.74l86.66-8.04 9.55 2.5v5.55l-77.4 8.13-18.8 1.67v-9.8z" class="F"/><path d="M795.86 552.2l69.13-6.95 8.6-2.06v5.55l-77.4 8.13-.33-4.67z" class="B"/><path d="M776.23 553.22l19.63-1.02.33 4.67-18.8 1.67-1.16-5.32z" class="B"/><path d="M781.5 626.92l97.73-12.98 8.38 3.33v6.34l-84.3 12.68h-19.8l-2-9.37z" class="F"/><path d="M803.32 632.28l84.3-15v6.34l-84.3 12.68v-4z" class="B"/><path d="M782.68 632.4l20.64-.1v4h-19.8l-.83-3.9z" class="B"/><path d="M787.28 707.42l107.2-20 9.5 5.58v4.4l-94.06 22.82-19.4 1.47-3.24-14.3z" class="F"/><path d="M809.9 715.7l94.06-22.7v4.4l-94.06 22.82v-4.54z" class="B"/><path d="M789.4 716.73l20.52-1.03v4.54l-19.4 1.47-1.13-4.98z" class="B"/><path d="M762.2 297.5l-8.67 1.93 31.32 498.64 9.15 3.37h7.23L762.2 297.5z" class="F"/><path d="M757.98 298.43l36.03 503h7.23L762.2 297.5l-4.23.94z" class="B"/><use xlink:href="#E" x="9.052" y="-3.135" class="D"/><use xlink:href="#E" x="9.052" y="-3.135" class="G"/><path d="M783.32 270.35l-8.24-10.92 8.82 1.22.27-2.25-12.6-1.75-1.72 12.63 2.2.3 1.26-8.78 8.25 10.9z" opacity=".5" class="C"/><path d="M763.85 246.52a11.59 11.59 0 0 1-18.45-11 .93.93 0 0 1 1.06-.78.94.94 0 0 1 .78 1.07 9.73 9.73 0 1 0 4.48-6.73l2.2 2.9a.94.94 0 0 1-1.49 1.13l-2.78-3.67a.94.94 0 0 1 .18-1.31c5.1-3.666 12.212-2.6 16 2.424a11.6 11.6 0 0 1-2.01 16.066zm-13.95-10.8l7.1-.17a1.75 1.75 0 1 1 .09 3.49 1.69 1.69 0 0 1-.56-.08l-6.8-2.1a.58.58 0 0 1-.38-.73.59.59 0 0 1 .54-.41z" class="D"/><path d="M872.18 493.32l-1.22-5a10.54 10.54 0 0 0-1.37-5.11v-.74l-.2-5.44a18.6 18.6 0 0 1 1.27-2.9c.9-1.75-.3-8-.3-8s-4-8.7-3.3-14.34-8.42-24.6-8.42-24.6a24.25 24.25 0 0 1 .57-5.54 4.26 4.26 0 0 0 .06-1.16.66.66 0 0 0 0-.14h0c-.27-3.7-3.46-10.5-3.46-10.5l-.1-13.22s1.56-7.86-1.88-18.2c-1.2-3.6-2-6.5-2.52-8.74-.06-.25-.1-.5-.16-.73l11-2.18s-4.22-15.06-6.78-17.62-4.84-10.85-4.84-10.85-1.7-10.7.25-13.9 2-8.64 2-8.64 4.58-3.6 5.1-5.14a25.15 25.15 0 0 0 1.31-6.81c-.07-1.8-.72-3.4-.56-4.35s-1.55-4.5-.83-6.25a4.5 4.5 0 0 0 .25-1.66v-.05a23.3 23.3 0 0 0-.58-4.44 12.71 12.71 0 0 0-4.76-2.32l-.12-.4-.3-1.06a4.33 4.33 0 0 0-.47-.25v-.4l-.1-1.54.6-3.5c1.2-6.1-6.87-6.68-6.87-6.68A4.25 4.25 0 0 0 843 269c-1.64-.5.08 9.08.86 9.67a36.53 36.53 0 0 1 3.37 4.85h0l.14.24a3.45 3.45 0 0 0-.35.4l.45 2.4a8.36 8.36 0 0 0-1.2 2.24 4.7 4.7 0 0 1 1.31 3.37 10.8 10.8 0 0 0 .64 4.16c-.1-.1-1.17-1.18-2.2-.86s-3.88 1.3-3.88 1.3-2.15.46-1.93.93-1.37 2.62-1.37 2.62l-6-5.27c-.06-.17-.13-.33-.2-.5a13.81 13.81 0 0 1-.59-2.38 13.87 13.87 0 0 0 1.83-.67 4 4 0 0 0 1.57-1.09 6.25 6.25 0 0 0 .83-2.53 37.29 37.29 0 0 1 2-4.89 15.66 15.66 0 0 0 .83-8.67 5.76 5.76 0 0 0-1-2.49c-1-1.26-2.74-1.73-4-2.72s-2.15-2.55-3.64-3.27a6.94 6.94 0 0 0-4.42-.21 23.79 23.79 0 0 0-8.17 3.38 4.2 4.2 0 0 1-2.71 1 3.7 3.7 0 0 1-2-1.38v-.08l-.06-.08a10.13 10.13 0 0 0-.74 4.38q0 .34.06.7a1.94 1.94 0 0 0 0 .24 1.47 1.47 0 0 1 0 .21h0a1.71 1.71 0 0 1 0 .31 2.25 2.25 0 0 1-.52.8 5 5 0 0 0-.44.66 2.17 2.17 0 0 1 .07-.24 3.48 3.48 0 0 0-.54 1.86 1.89 1.89 0 0 0 .49 1.29 6.34 6.34 0 0 0 1 .72 10.43 10.43 0 0 0-.1 1.94 11.22 11.22 0 0 0 5.83 9.37c.08.16.15.32.22.5a13.92 13.92 0 0 1 1.3 6.28c0 .16 0 .3-.06.47l-.2.25s-9.57.46-11.9-1.5-5.5 5.2-5.5 5.2-3.4.8-4.12.16-4.72.1-4.72.1a8.67 8.67 0 0 0-6.07-2 17.77 17.77 0 0 0-4.49-2.27h0-.12a5 5 0 0 0-2.17-.19c0 0-4.86-3.7-6.32-5.75s-8.3-9.54-8.33-9.57V282l-.12-1.13a3.43 3.43 0 0 1-.59.07l-.14-.38a20.74 20.74 0 0 0-1.52-3.14c0 0 0-1.43.35-1.8s-.4-5.58-.4-5.58-4.62-9.76-8.14-2.2c0 0-7 5.07-.76 10.42 0 0 2.45 1.07 2.83 2 .25.6 1.13 2.24 1.72 3.33l.27.5-.07.06.13.93v.36c-1.1.7-1.85 1.36-1.65 1.84a10.55 10.55 0 0 1 .79 2.53c0 0 8.75 10.13 10 14.56 0 0 22.9 12.44 30.3 13.1l-1 6.7s-.24 4-.1 5.43-.58 7.92-.58 7.92-.9 9.55-1.94 10.92-.6 7.07-.6 7.07a47.93 47.93 0 0 1-1.16 8.13 20.68 20.68 0 0 0 0 8.09c0 0-3.4 8.7 5.3 2.55l9.42-.8v2.6c.12 4.9.35 11.65.77 16.75.74 9 4.18 26.77 4.18 26.77l.34 9a13 13 0 0 0-.16 2.58 16.69 16.69 0 0 0 2.76 8.89l.92 6s1.77 3.88 1.9 6.23a3.48 3.48 0 0 1-.05.58 3.71 3.71 0 0 0 0 .92c0 2.72 1.9 9.16 1.9 9.16s.35 6.55 1.35 6.9-1 3.82-1.53 4.83v-.18l-.1.2a4.81 4.81 0 0 0-.25 1.67 2.4 2.4 0 0 0 1.18 2.26c1.9 1.07 2.95 2 1.38 2.42a17 17 0 0 0-1.71.43c0-.07-.07-.15-.1-.2a1 1 0 0 0-.61 1.17 5 5 0 0 0 .67 2.2 23.91 23.91 0 0 0 2.85 4.74l.75-.1a3.76 3.76 0 0 1-.41.83 3.09 3.09 0 0 1-1.07 1 3.62 3.62 0 0 1-1.32.52 3.75 3.75 0 0 0-2.73 1.46c-.93 1.3-1.48 3.05.5 4.5l7.12 2.15s12.07.98 11.37-1.7l-1.23-5a10.85 10.85 0 0 0-1.16-4.77 6.36 6.36 0 0 0-.46-.69l.43-.06s.65-6 1.78-7.2c.27-.27.32-.48.25-.63.1-.33-.2-.5-.6-.6 0 .08-.05.15-.07.24a6 6 0 0 0-1.18-.09c0 0-.5-3.12.72-4.3a1.2 1.2 0 0 0 .21-.94 5.07 5.07 0 0 0-.18-1.27.25.25 0 0 0 0 .07 46.5 46.5 0 0 0-3.11-7.25s-.2-2.85.54-4-.7-15.48-.7-15.48 0-6.95-1-10.15.8-7.07.8-7.07v-.2l-.16-1.1v.07c-.27-1.83-.77-5.14-1.1-6.67-.47-2.17-.38-12.64-.38-12.64l1.6-4.53 3.44 7.57 3.73 10.13a8.77 8.77 0 0 1 1.86 4.3v.32a5.35 5.35 0 0 0 0 .69 6.15 6.15 0 0 0 1.16 3.62c0 0 1.07 4.8 2.5 6a5.49 5.49 0 0 1 1.51 3.56c0 0 1.94 7 2.77 8.17.7 1 .85 3.88.88 4.75h0v.26s.32 2.5.4 4.62v.7A7.84 7.84 0 0 1 851 460a.36.36 0 0 0 0 .1v-.36a17.82 17.82 0 0 0-.33 4.4c.05 2.53.55 5.5 2.15 7.2 2.77 2.94 4.42 2.5 4.42 2.5s-1.13 3.85-2.67 4.67a.61.61 0 0 0-.16.12 2.25 2.25 0 0 1 0-.22 1.82 1.82 0 0 0-.41 1.43 10.14 10.14 0 0 0 2.16 5.56 3.14 3.14 0 0 0 1.36.72l-.24.16a4 4 0 0 1-.53.28 2.85 2.85 0 0 1-.8.24 3.77 3.77 0 0 0-2.73 1.46c-.92 1.3-1.47 3.05.52 4.5l7.1 2.15s12.08 1.1 11.33-1.58z" transform="translate(-32.15 -21.57)" fill="url(#B)"/><path d="M794.1 478l-6.9-2.16c-1.93-1.44-1.4-3.2-.5-4.5a3.63 3.63 0 0 1 2.64-1.46 3.16 3.16 0 0 0 1.28-.51 3 3 0 0 0 1-1 5 5 0 0 0 .67-2.66s7.38-2.47 9.5-.36a5.22 5.22 0 0 1 1 1.29 11 11 0 0 1 1.13 4.76l1.2 5c.72 2.64-11.03 1.6-11.03 1.6zm33.12-4.57l-6.9-2.16c-1.93-1.45-1.4-3.2-.5-4.5a3.57 3.57 0 0 1 2.64-1.46 2.28 2.28 0 0 0 .77-.24 4.27 4.27 0 0 0 .51-.27c1.86-1.12 1.72-3.7 1.72-3.7s7.37-2.47 9.5-.36a5.25 5.25 0 0 1 .75.94 10.88 10.88 0 0 1 1.34 5.12s.47 2.36 1.2 5-11.02 1.6-11.02 1.6z" fill="#2d293d"/><path d="M801.85 465.35a5.22 5.22 0 0 1 1 1.29h0l-11.13 1.73a5 5 0 0 0 .67-2.66s7.32-2.47 9.46-.36zm33.85-3.7l.08 2.1c-1.63 2.94-10.06 2.63-12.56 1.3a4.27 4.27 0 0 0 .51-.27c1.86-1.12 1.72-3.7 1.72-3.7s7.37-2.47 9.5-.36a5.25 5.25 0 0 1 .75.94z" class="B"/><path d="M836.7 452.6a19 19 0 0 0-1.22 2.9l.3 7.5c-1.78 3.2-11.7 2.55-13.1.9s-3-6.07-1.5-6.9 2.58-4.67 2.58-4.67-1.6.45-4.28-2.5-2.18-9.7-1.77-11.35-.27-7-.27-7-.05-3.8-.86-5-2.7-8.17-2.7-8.17a5.6 5.6 0 0 0-1.47-3.56c-1.38-1.18-2.42-6-2.42-6a6.28 6.28 0 0 1-1.11-4c.2-2.4-1.8-4.88-1.8-4.88l-3.63-10.14-3.33-7.58-1.54 4.53s-.08 10.47.4 12.64 1.26 7.95 1.26 7.95-1.76 3.87-.78 7.07 1 10.14 1 10.14 1.4 14.32.7 15.48-.5 4-.5 4 4.22 8.2 3 9.4-.7 4.3-.7 4.3 2.66-.1 1.56 1.08-1.72 7.2-1.72 7.2l-11.44 1.77a24.3 24.3 0 0 1-2.76-4.74c-1.65-3.46.17-3.15 1.68-3.6s.5-1.35-1.34-2.42-.9-3.68-.9-3.68 2.58-4.76 1.6-5.1-1.3-6.9-1.3-6.9-2.2-7.7-1.8-9.82-1.8-7.07-1.8-7.07l-.9-6a16.46 16.46 0 0 1-2.53-11.22l-.35-9.22s-3.35-17.76-4.08-26.77c-.46-5.77-.7-13.66-.8-18.6l-.08-4.6 40.88-5.88a33.71 33.71 0 0 0 1 6.07c.5 2.24 1.27 5.13 2.44 8.74 3.35 10.34 1.84 18.2 1.84 18.2l.13 13.22s4 8.7 3.3 11.76a25.6 25.6 0 0 0-.55 5.54c0 0 8.82 19 8.18 24.62s3.2 14.34 3.2 14.34 1.17 6.23.28 7.98z" fill="#575988"/><path d="M811.32 404l12.43-2.14s-6.8 7.5-12.43 2.14z" opacity=".05"/><path d="M821.47 389.7s.6 4.4-2 6.17c-.04 0 4.77-.95 2-6.17zm-1.3-14.02s-10.12 9-13.94 8.43 13.94-8.43 13.94-8.43zM796 408.63s-7.86 2.1-8 5.3 8-5.3 8-5.3z" class="B"/><path d="M799.26 448.18s-11.13 2.52-7.9 3.82a54.29 54.29 0 0 0 8.5 2.24s3.62.05-.6-6.06z" opacity=".05"/><path d="M789.2 454.35a2.21 2.21 0 0 1-1.09-1.59l-.1.2s-.94 2.6.9 3.67l.6.37 1-.24c1.54-.44.54-1.34-1.3-2.42zm14.4-1.32c.3-.3.26-1 0-2a5.36 5.36 0 0 0-.53 2.77 2.26 2.26 0 0 1 .53-.77zm-3.54-47.2a13 13 0 0 0-.63 3.53 14.09 14.09 0 0 1 .78-2.44l-.15-1.1zm25.47-5.97a4.82 4.82 0 0 0 .07-1.05l-.24 2 .17-.95zm-24.43 39.76a6.35 6.35 0 0 0 .2-2.12 7.29 7.29 0 0 0-.45 2.68 2.63 2.63 0 0 1 .25-.56zm3.03 17.8a37.07 37.07 0 0 0-1.08 5.89l-11.44 1.77a24.3 24.3 0 0 1-2.76-4.74l-.36-.83c-.67.34-.92 1.07.07 3.12a23.6 23.6 0 0 0 2.76 4.75l11.43-1.78s.63-6 1.72-7.2c.54-.57.17-.84-.34-.98zm-15.83-16.46s.35 6.55 1.32 6.9h0c.44-1.1.72-2.15.3-2.3-1-.35-1.3-6.9-1.3-6.9s-2.2-7.7-1.8-9.82-1.8-7.07-1.8-7.07l-.9-6a16.44 16.44 0 0 1-2.52-11.23l-.36-9.2s-3.35-17.76-4.07-26.77c-.47-5.77-.7-13.66-.8-18.6 0-.9 0-1.68-.05-2.34H776s0 1.83.08 4.6c.1 4.92.35 12.8.8 18.58.73 9 4.08 26.77 4.08 26.77l.35 9.22a16.46 16.46 0 0 0 2.58 11.31l.9 6s2.2 5 1.8 7.07 1.75 9.8 1.75 9.8zm34.65 20.36a11.19 11.19 0 0 1-2-4.45c-1.14 1.1.37 5.17 1.7 6.74s11.3 2.33 13.1-.88l-.07-1.8c-2.46 2.64-11.4 1.97-12.72.4zm14.03-11.3a17.81 17.81 0 0 0-1.22 2.9l.05 1.33a20.86 20.86 0 0 1 .88-1.94 5.84 5.84 0 0 0 .32-2.37zm-13.8 2.03a18.55 18.55 0 0 0 .85-2.3s-1.6.45-4.3-2.5c-1.95-2.14-2.2-6.3-2-9-.42 1.63-.92 8.4 1.76 11.35 1.7 1.87 3 2.35 3.68 2.45zm-5.78-20.87a50.54 50.54 0 0 1 .41 5.62c0-.37.1-.67.16-.9.42-1.63-.27-7-.27-7s-.06-3.8-.86-5-2.7-8.17-2.7-8.17a5.59 5.59 0 0 0-1.47-3.56c-1.37-1.18-2.4-6-2.4-6a6.17 6.17 0 0 1-1.11-4c.2-2.4-1.8-4.88-1.8-4.88l-3.62-10.14-3.34-7.58-1.54 4.45v1.45l1.25-3.68 3.34 7.58 3.62 10.13s2 2.5 1.8 4.88a6.21 6.21 0 0 0 1.1 4s1 4.8 2.42 6a5.57 5.57 0 0 1 1.47 3.55s1.9 7 2.7 8.18.86 5.06.86 5.06z" opacity=".05"/><path d="M818.66 256.1l-.58 3.5.1 1.55.08 1.13-3.95.56-.48-.8a35.24 35.24 0 0 0-3.26-4.86c-.76-.6-2.44-10.18-.85-9.67a4.17 4.17 0 0 1 2.29 1.91c0 0 7.84.6 6.65 6.7z" class="N"/><path d="M818.26 262.26l-3.95.56-.48-.8a3.49 3.49 0 0 1 4.35-.89z" class="B"/><path d="M819.33 264.1l-5.18 1.42-.14-.78-.38-2.08a3.61 3.61 0 0 1 5-.89l.3 1.06z" fill="#dce6f2"/><path d="M734.36 259.7l-5.46 3.2-.55-1-1.67-3.33c-.37-.9-2.74-2-2.74-2-6.06-5.36.72-10.42.72-10.42 3.4-7.55 7.9 2.2 7.9 2.2s.77 5.2.38 5.58-.34 1.8-.34 1.8a20.81 20.81 0 0 1 1.47 3.14l.3.8z" class="N"/><path d="M734.36 259.7l-5.46 3.2-.55-1c.76-.7 3.47-3.06 4.4-3a7.49 7.49 0 0 0 1.32 0l.3.8z" class="B"/><path d="M735 261.43l-6.14 3.28-.17-1.35-.13-.92s3.52-3.26 4.6-3.18a5.5 5.5 0 0 0 1.64-.07l.12 1.13z" fill="#dce6f2"/><path d="M804.35 279.7s-27.22 4.14-22.18 2.28c3.52-1.3 4.84-3.6 5-6.13a14.37 14.37 0 0 0-1.26-6.29 26.85 26.85 0 0 0-2.63-4.84c0 0 20.46-12.3 16.68-1.7a16.85 16.85 0 0 0-1 5 14.06 14.06 0 0 0 .73 5 15 15 0 0 0 4.66 6.67z" class="N"/><path d="M800 263.04a16.85 16.85 0 0 0-1 5c-1.9 1.73-4.07 1.7-6.84 1.8-2.13.08-4.47.7-6.2-.28a26.85 26.85 0 0 0-2.63-4.84c0 0 20.46-12.3 16.68-1.7z" class="B"/><circle cx="791.39" cy="259.28" r="11.31" class="N"/><path d="M804.35 279.7s-27.22 4.14-22.18 2.28c3.52-1.3 4.84-3.6 5-6.13 1.3-1.52 4-2.7 5.74-3.33a8.21 8.21 0 0 1 4.95-.27 7 7 0 0 1 1.83.77 15 15 0 0 0 4.66 6.68zm14.98-15.6l-5.18 1.42-.14-.78a4.62 4.62 0 0 1 5-1.91zM735 261.43l-6.14 3.28-.17-1.35a46.47 46.47 0 0 1 6.22-3zm82.85 86.77c-10.53 2.08-25.5 4.84-27.93 4.2-2-.53-8.34-.22-13.85.18l-.08-4.6 40.86-5.86a33.71 33.71 0 0 0 1 6.07z" class="B"/><path d="M828.28 345.3s-34.64 7.33-38.43 6.33-23 1-23 1c-8.42 6.13-5.14-2.56-5.14-2.56a21.14 21.14 0 0 1 0-8.09 49.25 49.25 0 0 0 1.14-8.15c0 0-.4-5.7.58-7.06s1.86-10.92 1.86-10.92.7-6.5.56-7.92.07-5.43.07-5.43l1-6.7c-7.16-.68-29.33-13.15-29.33-13.15-1.22-4.42-9.7-14.56-9.7-14.56a10.72 10.72 0 0 0-.76-2.54c-.63-1.5 7.8-4.87 7.8-4.87s6.67 7.55 8.08 9.6 6.12 5.75 6.12 5.75a4.56 4.56 0 0 1 2.1.2.45.45 0 0 1 .11 0h0a16.91 16.91 0 0 1 4.35 2.28 8.24 8.24 0 0 1 5.87 2c0 0 3.88-.72 4.57-.08s4-.15 4-.15 3.05-7.16 5.32-5.2 11.53 1.5 11.53 1.5c1.17-1.7 4.13-3 6-3.67a8.22 8.22 0 0 1 4.95-.27 6.4 6.4 0 0 1 2 .87l5.83 5.3s1.54-2.15 1.33-2.62 1.87-.92 1.87-.92 2.72-1 3.75-1.3 2 .77 2.13.86a11 11 0 0 1-.64-4.15 4.75 4.75 0 0 0-1.27-3.38c3-8.3 10.78-1.75 10.78-1.75s1 4.44.33 6.18 1 5.3.8 6.24.48 2.55.55 4.36a25.92 25.92 0 0 1-1.26 6.8c-.5 1.55-4.94 5.14-4.94 5.14s-.07 5.43-2 8.64-.23 13.9-.23 13.9 2.23 8.3 4.7 10.86 6.6 17.62 6.6 17.62z" fill="#656691"/><path d="M775.05 284.74s-1.17-3.1-2.13-3.34a22.45 22.45 0 0 1-2.8-1.13l.57-1.2s3.6.84 4.2 1.86.15 3.8.15 3.8zm-19.35-6.2c-.16 1-8.58 2.14-8.58 2.14l4.1-4.45h.1a16.91 16.91 0 0 1 4.36 2.31z" class="B"/><g fill="#575988"><circle cx="730.72" cy="266.44" r=".76"/><circle cx="731.75" cy="267.92" r=".76"/><circle cx="732.76" cy="269.29" r=".76"/><circle cx="733.81" cy="270.77" r=".76"/><circle cx="823.36" cy="267.24" r=".62"/><circle cx="823.51" cy="268.64" r=".62"/><circle cx="823.65" cy="270.03" r=".62"/></g><path d="M776.1 310.5c-.1-.1 22.36 26.1 38.4 9.84 0 0-26.14 4.58-38.4-9.84zm-11.78 14.52s12.83-.14 14.32 3.5l.14 3.84a2.43 2.43 0 0 1-2.38.09c-1.32-.65-9.22-4.3-11.88-2.3z" class="B"/><path d="M764.56 325s12.27-.14 13.7 3.33l.14 3.66a2.35 2.35 0 0 1-2.28.08c-1.26-.6-8.82-4.08-11.36-2.18z" fill="#656691"/><path d="M770.25 296.92a41.14 41.14 0 0 0 5.3 8.34 33.42 33.42 0 0 0 8.07 7.21s-13.1-13.8-13.37-15.55zm-4.77-14.72s2.5 9.15 8.13 12.07zm-3.24 1.05c-.06-.17-1.62 7.37 7.54 11.16 0 .02-3.87-1.15-7.54-11.16zm55.72-8.35c-.14 0 4.56 2.75 5.85 4 .04.05-3.15-4.3-5.85-4z" class="B"/><path d="M788.72 269.65a2.45 2.45 0 0 0 .94 1.49 2.47 2.47 0 0 0 1.08.2c3.45.08 7.05.1 10.18-1.36a3.87 3.87 0 0 0 1.52-1.09 6.38 6.38 0 0 0 .81-2.53 35.55 35.55 0 0 1 1.9-4.89 16.18 16.18 0 0 0 .79-8.66 5.92 5.92 0 0 0-1-2.49c-1-1.27-2.65-1.74-3.9-2.73s-2.1-2.55-3.53-3.28a6.59 6.59 0 0 0-4.28-.21 22.55 22.55 0 0 0-7.85 3.29 3.94 3.94 0 0 1-2.62 1 3.66 3.66 0 0 1-2-1.42 10.44 10.44 0 0 0-.65 4.95 2.36 2.36 0 0 1 0 .75 2.25 2.25 0 0 1-.5.8c-.8 1-1.28 2.6-.4 3.57.38.42 1 .64 1.33 1.06.66.77.5 1.92.52 2.94a1.48 1.48 0 0 0 .28 1 1.45 1.45 0 0 0 1.41.28 4 4 0 0 1 1.48-.2 2.52 2.52 0 0 1 1.33.95 17.57 17.57 0 0 1 3.16 6.58z" fill="#2d293d"/><g class="B"><path d="M802.78 268a3.86 3.86 0 0 1-1.51 1.09c-3.14 1.45-6.73 1.43-10.2 1.35a2.3 2.3 0 0 1-1.07-.2 2.35 2.35 0 0 1-.94-1.49 17.72 17.72 0 0 0-3.14-6.58 2.45 2.45 0 0 0-1.33-.94 3.79 3.79 0 0 0-1.48.2 1.49 1.49 0 0 1-1.41-.28 1.54 1.54 0 0 1-.29-1c0-1 .15-2.17-.52-2.94-.37-.43-.94-.64-1.33-1.07a2.22 2.22 0 0 1-.3-2.26 2.61 2.61 0 0 0 0 3c.4.42 1 .63 1.33 1.06.67.77.5 1.92.52 2.94a1.54 1.54 0 0 0 .29 1 1.44 1.44 0 0 0 1.41.28 4 4 0 0 1 1.48-.2 2.52 2.52 0 0 1 1.33.95 17.6 17.6 0 0 1 3.14 6.57 2.4 2.4 0 0 0 .94 1.5 2.43 2.43 0 0 0 1.07.2c3.46.08 7 .1 10.2-1.36a3.77 3.77 0 0 0 1.51-1.09 3 3 0 0 0 .46-.93zm-22.63-15.57a1.55 1.55 0 0 0 .32-.59 2 2 0 0 0 0-.74 10.57 10.57 0 0 1 .37-4.11l-.06-.07a10.45 10.45 0 0 0-.66 4.95 2.63 2.63 0 0 1 .03.56z"/><path d="M786.97 276.58s14.2 1.33 15.38-.85m11.85-6.05s7.85-.3 9.7 2.58"/></g><path d="M828.813 618.84l74 .116-.12 76.72-74-.116z" class="D"/><path d="M866.8 684.65V671l6.3 6.3 1.58-1.63-9-9-9 9 1.57 1.57 6.3-6.23v13.67z" opacity=".5" class="C"/><path d="M853.4 638.37h12.27V626.1h-.88a11.41 11.41 0 0 0-11.42 11.41l.03.85zm4.25 8.06a11.42 11.42 0 1 0 9.78-18.53v12.23h-12.26a11.38 11.38 0 0 0 2.48 6.3z" class="G"/><g class="C"><path d="M213.8 103.28c-6.45 13.32-17 28.5-28.93 22.7s-20.84-30.36-14.4-43.68 21.38-19.43 33.38-13.63 16.4 21.3 9.94 34.62z"/><path d="M188.26 134.43s-2.33-.38-1.44-2.3a3.17 3.17 0 0 1 .28-.49 5.49 5.49 0 0 0 .76-1.79 5.79 5.79 0 0 0 .13-.68 9.1 9.1 0 0 0-.11-3.1l6.35-.42s-2.47 2.1-2.18 3.2a.68.68 0 0 0 .29.39 1.39 1.39 0 0 0 .42.18 4 4 0 0 1 .48.14c1.67.58 1 1.43 1 1.43-.25 2.7-5.98 3.45-5.98 3.45z"/></g><path d="M192.34 129.2l-4.48.6a5.79 5.79 0 0 0 .13-.68c1.13 0 2.92-.2 4.06-.32a.68.68 0 0 0 .29.39z" class="E"/><use xlink:href="#F" class="C"/><use xlink:href="#F" class="B"/><path d="M191.65 70.03s-7.1-.85-9.1 3.87a5.88 5.88 0 0 1 2.55.15 3.62 3.62 0 0 0 1.66.32 9.52 9.52 0 0 1 4.9-4.34z" class="B D"/><use xlink:href="#G" class="C"/><use xlink:href="#G" class="B"/><path d="M183.98 166.43a3 3 0 0 1-.4-.4 5.45 5.45 0 0 0-1.52-1.21 5.25 5.25 0 0 0-.63-.31 8.26 8.26 0 0 0-2-.6 7.17 7.17 0 0 0-1-.12l.9-4.3v-.06l.4-1.87a12 12 0 0 0 .9 1.57c.46.7 1 1.38 1.6 1.4a.73.73 0 0 0 .44-.18 1.23 1.23 0 0 0 .29-.36l.27-.43c1-1.44 1.63-.53 1.63-.53 1.14.4 1.6 1.76 1.78 3.13q0 .3.06.6a15.78 15.78 0 0 1-.1 2.91s-1 2.14-2.6.77z" class="C"/><path d="M182.06 164.8a5.25 5.25 0 0 0-.63-.31l.68-3.43c0-.08 0-.15.05-.23s0-.23.06-.33a.73.73 0 0 0 .44-.18l-.1.68v.27z" class="E"/><use xlink:href="#H" class="C"/><use xlink:href="#H" class="B"/><path d="M125.48 145.14s-2.72 6.6 1.3 9.82a5.72 5.72 0 0 1 .83-2.42 3.56 3.56 0 0 0 .75-1.52 9.48 9.48 0 0 1-2.87-5.88z" class="B D"/><use xlink:href="#I" class="C"/><use xlink:href="#I" class="B"/><path d="M196.1 138.67c-1.6 2.23-6.86-.15-6.86-.15s-1.8-1.55 0-2.72a3.87 3.87 0 0 1 .5-.27 5.94 5.94 0 0 0 1.59-1.13l.46-.52a8.94 8.94 0 0 0 1.13-1.76 7.14 7.14 0 0 0 .39-.94l5.64 3a12.79 12.79 0 0 0-1.77.43c-.8.26-1.6.65-1.76 1.16a.63.63 0 0 0 0 .48 1.19 1.19 0 0 0 .27.37l.33.37c1.13 1.33.08 1.68.08 1.68z" class="C"/><path d="M195.44 136.2l-4.13-1.78.46-.52 3.63 1.85a.63.63 0 0 0 .04.45z" class="E"/><use xlink:href="#J" class="C"/><use xlink:href="#J" class="B"/><path d="M225.74 85.43s-5.6-4.44-9.8-1.46a5.76 5.76 0 0 1 2.09 1.46 3.63 3.63 0 0 0 1.26 1.14 9.49 9.49 0 0 1 6.44-1.14z" class="B D"/><g class="B"><path d="M114.63 120.8a5.62 5.62 0 0 0-.82 2.41c-4-3.2-1.3-9.8-1.3-9.8a9.55 9.55 0 0 0 2.86 5.89 3.56 3.56 0 0 1-.75 1.51zm50.83 11.23l1.3-6.22a13 13 0 0 0 .9 1.56 11.23 11.23 0 0 1-1.2 4.78 9.36 9.36 0 0 0-1-.12z"/><path d="M165.14 134.25l-.55.67a18.36 18.36 0 0 1-4 3.32c-.4.27-.83.52-1.27.76-9.7 5.34-25.78 6.18-36.08 1.1a22 22 0 0 1 4.18-7.06c7.1-8.06 19-9.7 29.2-4.84a29.43 29.43 0 0 1 6.83 4.52l1.7 1.53zm5.88.42a2.52 2.52 0 0 1-.4-.4 5.79 5.79 0 0 0-1.52-1.21l-.63-.3a8.65 8.65 0 0 0-2-.6 9.36 9.36 0 0 0-1-.12l1.3-6.22a13 13 0 0 0 .9 1.56c.46.7 1.05 1.38 1.6 1.4a.68.68 0 0 0 .44-.18 1.11 1.11 0 0 0 .29-.36l.26-.42c1-1.44 1.64-.54 1.64-.54 2.57.93 1.74 6.64 1.74 6.64s-1 2.15-2.62.77z"/><path d="M169.1 133.06l-.63-.3.8-4a.68.68 0 0 0 .44-.18z"/><use xlink:href="#K"/><use xlink:href="#K" class="B"/><path d="M113.85 123.2c-4-3.2-1.3-9.8-1.3-9.8a9.55 9.55 0 0 0 2.86 5.89 3.56 3.56 0 0 1-.75 1.51 5.62 5.62 0 0 0-.82 2.41z" class="B"/></g><g class="C"><path d="M165.4 133.7l-.4.44a18.35 18.35 0 0 1-3.6 2.88l-.38.24-.9.52c-9.8 5.38-26.07 6.2-36.35 1a20.33 20.33 0 0 1-4.32-2.88c-11.1-9.8-13-25.8-4.2-35.8 7.12-8.06 19-9.7 29.2-4.83a20.89 20.89 0 0 1 .95.47 29.75 29.75 0 0 1 5.88 4 82.48 82.48 0 0 1 10.57 11c.65.83 1.27 1.67 1.84 2.5.16.22.3.46.45.68.28.4.54.83.8 1.25l.58 1a19.59 19.59 0 0 1 2.95 10 11.23 11.23 0 0 1-1.2 4.78 12.51 12.51 0 0 1-1.87 2.73z"/><path d="M171.85 133.43a2.52 2.52 0 0 1-.4-.4 5.59 5.59 0 0 0-1.52-1.21 5.25 5.25 0 0 0-.63-.31 8.65 8.65 0 0 0-2-.6 9.36 9.36 0 0 0-1-.12l1.3-6.22a13 13 0 0 0 .9 1.56c.46.7 1.05 1.38 1.6 1.4a.73.73 0 0 0 .44-.18 1.23 1.23 0 0 0 .29-.36l.26-.42c1-1.45 1.64-.54 1.64-.54 2.57.93 1.74 6.64 1.74 6.64s-1.02 2.16-2.62.77z"/></g><path d="M169.92 131.83a5.25 5.25 0 0 0-.63-.31l.8-4a.73.73 0 0 0 .44-.18z" class="E"/><use xlink:href="#L" class="C"/><use xlink:href="#L" class="B"/><path d="M113.34 112.16s-2.73 6.6 1.3 9.82a5.8 5.8 0 0 1 .82-2.42 3.68 3.68 0 0 0 .76-1.52 9.48 9.48 0 0 1-2.87-5.88z" class="B D"/><g class="B"><use xlink:href="#M"/><path d="M164.16 113.9l1.37 2.25a22.87 22.87 0 0 1-2.78-1.2c-7.18-3.63-14.3-11.4-18.28-19.72a29.38 29.38 0 0 1 6.83 4.51 82.48 82.48 0 0 1 10.57 11c.82 1.02 1.6 2.08 2.3 3.16zm12.9 1.38a11.43 11.43 0 0 1-4.62 1.72 7.28 7.28 0 0 0-.47-.9l5.88-2.45a12.69 12.69 0 0 0-.79 1.63z"/><path d="M175.04 123.9s-2.33.4-2.1-1.7a3.07 3.07 0 0 1 .11-.56 5.84 5.84 0 0 0 .14-1.94 5.21 5.21 0 0 0-.1-.69 8.17 8.17 0 0 0-.64-2 7.28 7.28 0 0 0-.47-.9l5.88-2.45a12.69 12.69 0 0 0-.79 1.63c-.32.8-.54 1.65-.24 2.1a.72.72 0 0 0 .4.26 1.23 1.23 0 0 0 .45 0h.5c1.77 0 1.37 1 1.37 1 .7 2.72-4.5 5.25-4.5 5.25z"/><path d="M177.22 117.65l-4 2a5.21 5.21 0 0 0-.1-.69l3.74-1.6a.72.72 0 0 0 .36.29z"/><use xlink:href="#N"/><use xlink:href="#N" class="B"/><use xlink:href="#M" class="B"/></g><use xlink:href="#O" class="C"/><use xlink:href="#O" class="B"/><path d="M175.45 123.28s-2.33.4-2.1-1.72a3.24 3.24 0 0 1 .11-.56 5.78 5.78 0 0 0 .14-1.93 5.36 5.36 0 0 0-.1-.7 8.32 8.32 0 0 0-.64-2 7.28 7.28 0 0 0-.47-.9l5.88-2.45a13.24 13.24 0 0 0-.79 1.64c-.32.78-.54 1.65-.24 2.1a.73.73 0 0 0 .4.27 1.26 1.26 0 0 0 .45 0h.5c1.77 0 1.37 1 1.37 1 .7 2.72-4.5 5.25-4.5 5.25z" class="C"/><path d="M177.63 117.04l-4 2a5.36 5.36 0 0 0-.1-.7l3.74-1.6a.73.73 0 0 0 .36.3z" class="E"/><use xlink:href="#P" class="C"/><use xlink:href="#P" class="B"/><path d="M157.9 61.25s-7 1.5-7.37 6.6a5.62 5.62 0 0 1 2.46-.68 3.64 3.64 0 0 0 1.67-.24 9.57 9.57 0 0 1 3.24-5.69z" class="B D"/><g class="C"><path d="M251.08 174.64c-8.7 10.06-24.82 10.37-36 .7-5.44-4.7-11.06-10.44-14.4-16.25a19.61 19.61 0 0 1-3-10 11.41 11.41 0 0 1 1.13-4.79 13.1 13.1 0 0 1 1.85-2.79 22.92 22.92 0 0 1 8.9-5.87c11.52-4.57 28.54-4.08 37 3.26 11.16 9.7 13.2 25.7 4.5 35.75z"/><path d="M198.53 150.66a12.13 12.13 0 0 0-.91-1.57c-.48-.7-1.07-1.37-1.6-1.37a.63.63 0 0 0-.45.18 1.62 1.62 0 0 0-.29.36 4.06 4.06 0 0 1-.26.43c-1 1.46-1.63.56-1.63.56-2.58-.9-1.8-6.63-1.8-6.63s1-2.16 2.6-.8a3.06 3.06 0 0 1 .41.4 5.59 5.59 0 0 0 1.53 1.2 6.09 6.09 0 0 0 .63.3 9.09 9.09 0 0 0 2 .58 8.22 8.22 0 0 0 1 .11z"/></g><path d="M196 147.72a.63.63 0 0 0-.45.18l.56-4.48a6.09 6.09 0 0 0 .63.3l-.74 4z" class="E"/><use xlink:href="#Q" class="C"/><use xlink:href="#Q" class="B"/><path d="M252.85 162.53s2.66-6.65-1.38-9.8a5.78 5.78 0 0 1-.81 2.43 3.6 3.6 0 0 0-.74 1.52 9.48 9.48 0 0 1 2.93 5.86z" class="B D"/><path d="M200.66 159.08a19.61 19.61 0 0 1-3-10c-.48-.7-1.07-1.37-1.6-1.37a.63.63 0 0 0-.45.18 1.62 1.62 0 0 0-.29.36 4.06 4.06 0 0 1-.26.43c-1 1.46-1.63.56-1.63.56-2.58-.9-1.8-6.63-1.8-6.63s1-2.16 2.6-.8a3.06 3.06 0 0 1 .41.4 5.59 5.59 0 0 0 1.53 1.2 6.09 6.09 0 0 0 .63.3 9.09 9.09 0 0 0 2 .58 13.1 13.1 0 0 1 1.85-2.79 22.92 22.92 0 0 1 8.9-5.87c-1.4 8.87-4 18.2-8.88 23.45zm-14.03 3.06a15.72 15.72 0 0 1-2.15-.48c-.64-.18-1.27-.4-1.9-.65l-.4-.17-1.6-.76-1.22-.66c-7.6-4.4-15-13.2-18.3-22.17a29.3 29.3 0 0 1-1.79-7.62 20.47 20.47 0 0 1 .06-4.15 29.34 29.34 0 0 1 3.75-11.2l.66-1.06c5-7.7 13.4-12.37 22.35-11.44-1.94 5.6-4.7 10.4-8.6 12.9-.32.78-.54 1.65-.24 2.1a.73.73 0 0 0 .4.27 1.26 1.26 0 0 0 .45 0h.5c1.77 0 1.37 1 1.37 1 .7 2.65-4.5 5.18-4.5 5.18s-2.33.4-2.1-1.72a3.24 3.24 0 0 1 .11-.56 5.78 5.78 0 0 0 .14-1.93 5.36 5.36 0 0 0-.1-.7 8.32 8.32 0 0 0-.64-2 12.43 12.43 0 0 1-3.34 0 17.35 17.35 0 0 1-4.56-1.24 25.75 25.75 0 0 1 .58 1 19.59 19.59 0 0 1 2.95 10c.46.7 1.05 1.38 1.6 1.4a.73.73 0 0 0 .44-.18 1.23 1.23 0 0 0 .29-.36 6.46 6.46 0 0 1 .26-.42c1-1.45 1.64-.54 1.64-.54 2.57.93 1.74 6.64 1.74 6.64s-1 2.15-2.6.77a2.52 2.52 0 0 1-.4-.4 5.59 5.59 0 0 0-1.52-1.21 5.25 5.25 0 0 0-.63-.31 8.65 8.65 0 0 0-2-.6 12.51 12.51 0 0 1-1.87 2.77l-.4.44.13.12a78.17 78.17 0 0 1 8.87 9.44c.82 1.05 1.6 2.1 2.3 3.2.5.74 1 1.5 1.38 2.24a19.7 19.7 0 0 1 2.94 10c.46.7 1 1.38 1.6 1.4a.73.73 0 0 0 .44-.18 1.23 1.23 0 0 0 .29-.36c.1-.16.18-.3.27-.43 1-1.44 1.63-.53 1.63-.53 1.13.5 1.6 1.83 1.77 3.2z" class="B"/><g class="B"><use xlink:href="#R"/><path d="M210.15 130.76l-.43 3.15c-4.55 1.4-8.9 1.82-12.56.66-.8.26-1.6.65-1.76 1.16a.63.63 0 0 0 0 .48 1.19 1.19 0 0 0 .27.37 4.94 4.94 0 0 1 .33.37c1.12 1.37.07 1.72.07 1.72-1.6 2.23-6.86-.15-6.86-.15s-1.8-1.55 0-2.72a3.87 3.87 0 0 1 .5-.27 5.94 5.94 0 0 0 1.59-1.13 7.44 7.44 0 0 0 .46-.52 8.94 8.94 0 0 0 1.13-1.76 12.68 12.68 0 0 1-2.15-2.56c-4.23-6.6-4.15-18.23-.8-28.3 13 1.85 22 14.96 20.2 29.5zm-12.1 29.08a11.38 11.38 0 0 1-4.61 1.72 7.28 7.28 0 0 0-.47-.9l5.88-2.44a13 13 0 0 0-.8 1.62z"/><path d="M196.03 168.43s-2.34.4-2.1-1.72a3.16 3.16 0 0 1 .1-.56 5.53 5.53 0 0 0 .14-1.93 5.36 5.36 0 0 0-.09-.7 9 9 0 0 0-.64-2 7.28 7.28 0 0 0-.47-.9l5.88-2.44a13 13 0 0 0-.8 1.62c-.3.8-.53 1.66-.23 2.1a.63.63 0 0 0 .39.27 1.13 1.13 0 0 0 .46 0h.5c1.77 0 1.37 1 1.37 1 .68 2.75-4.5 5.25-4.5 5.25z"/><path d="M198.2 162.22l-4 2q0-.34-.1-.7l3.74-1.6a.63.63 0 0 0 .35.29z"/><use xlink:href="#S"/><use xlink:href="#S" class="B"/><use xlink:href="#R" class="B"/></g><g class="C"><path d="M208.72 131.6c-1.8 14.7-6.87 32.44-20.07 30.84s-29.52-22-27.7-36.72 14-25.28 27.18-23.65 22.42 14.83 20.6 29.53z"/><path d="M194.6 169.28s-2.34.4-2.1-1.72a4.78 4.78 0 0 1 .1-.56 5.54 5.54 0 0 0 .15-1.93c0-.24-.06-.47-.1-.7a9.08 9.08 0 0 0-1.11-2.9l5.88-2.44s-1.66 2.8-1 3.73a.66.66 0 0 0 .4.27 1.06 1.06 0 0 0 .45 0h.5c1.77 0 1.37 1 1.37 1 .66 2.7-4.53 5.24-4.53 5.24z"/></g><path d="M196.77 163.04l-4 2c0-.24-.06-.47-.1-.7l3.74-1.6a.66.66 0 0 0 .36.3z" class="E"/><use xlink:href="#T" class="C"/><use xlink:href="#T" class="B"/><path d="M177.04 107.26s-7 1.48-7.38 6.6a5.69 5.69 0 0 1 2.47-.68 3.48 3.48 0 0 0 1.67-.24 9.46 9.46 0 0 1 3.24-5.68z" class="B D"/><g fill="none" class="O P"><path d="M194.23 164.36a4.27 4.27 0 0 0-3.79 5.25c.88 2.94 4.5 3.88 6.86 5.85s3.5 5.12 3.78 8.2a20.06 20.06 0 0 1-5.77 15.87c-2.12 2.1-4.68 3.7-6.78 5.82a34.63 34.63 0 0 0-5.84 8.92 20.76 20.76 0 0 0-2.59 7.49c-.35 4.22 1.77 8.24 4.3 11.63s5.56 6.43 7.52 10.18a21.36 21.36 0 0 1 1.22 16.76 2 2 0 0 1-.71 1.13.79.79 0 0 1-1.15-.25"/><path d="M181.93 163.62a2 2 0 0 0-.08 2.55 3.15 3.15 0 0 0 2.44 1.13c1.13 0 2.4-.35 3.32.3a2.91 2.91 0 0 1 1 2.18 11.14 11.14 0 0 0 .25 2.45 4.75 4.75 0 0 0 1.08 1.75 5.41 5.41 0 0 0 2 1.46c1.66.65 3.6.07 5.3.6 2.26.7 3.47 3.13 4.15 5.4a15.55 15.55 0 0 1 .49 8.38 28.92 28.92 0 0 1-2.27 5.13 11.59 11.59 0 0 0-1.48 5.37 4.92 4.92 0 0 0 2.82 4.49"/></g><path d="M268.85 263.66l-1.88 1.13 2.54 9.2 2.05 1.28c2.24 1.47 5.74 4 7.6 6.73 2.87 4.14 15.64 15.76 14 10.92S290.8 289 290.8 289s2.8-7.3-4.1-10.6c-5.24-2.5-12.84-9.7-16.2-13-1-1.07-1.65-1.73-1.65-1.73z" class="I"/><path d="M306.92 288.27a16.43 16.43 0 0 1 2.87 3.69 5.51 5.51 0 0 1 .4 4.53c-.34.8-.92 1.5-1.27 2.3-1.67 3.86 2.67 8.08 1.85 12.2-.5 2.55-2.8 4.27-4.78 6s-3.93 4-3.4 6.58a14 14 0 0 0 1.6 3.33 3.61 3.61 0 0 1 .2 3.53c-1.16 1.8-4.56 1.5-5 3.57-.44 1.86 2.12 3.77 1.1 5.37a2.32 2.32 0 0 1-2.52.7 18.48 18.48 0 0 0-2.69-.73 3.31 3.31 0 0 0-3.13 4.91c.53.95 1.55 1.76 1.43 2.83a2.23 2.23 0 0 1-1.23 1.58 4.65 4.65 0 0 1-6.17-1.84c-.84-1.63-.6-3.6-.5-5.42s0-3.9-1.3-5.18a8.51 8.51 0 0 0-2.22-1.35 23.34 23.34 0 0 1-6.14-4.43c-1.58-1.6-3-3.6-2.86-5.84.15-2.53 2.26-4.7 2.1-7.23s-2.7-4.4-4.86-5.93-4.4-3.9-3.7-6.46c.76-2.75 4.32-3.56 6.08-5.8a7.68 7.68 0 0 0 1.32-2.94c.47-1.86.6-3.8 1-5.65a8 8 0 0 1 2.89-4.83c1.9-1.3 4.42-1.22 6.7-.88s4.63.9 6.87.35c1.67-.4 3.18-1.4 4.87-1.7a6.34 6.34 0 0 1 5.63 2.05c.8.87.8 1.1 1.92 1.22a4 4 0 0 1 2.95 1.46z" class="J"/><path d="M303.85 330.92a8.61 8.61 0 0 1-2.72 1.38 8.28 8.28 0 0 1 2.72-1.38zm-8.78 8.5a3.16 3.16 0 0 0-1.14.14 3.38 3.38 0 0 1 2.61-1 18.14 18.14 0 0 1 2.69.73 3.47 3.47 0 0 0 1.11.07.54.54 0 0 1-.05.11 2.35 2.35 0 0 1-2.52.7 18.6 18.6 0 0 0-2.7-.75zm-18.67-49.66c-.45 1.87-.57 3.8-1 5.66a7.68 7.68 0 0 1-1.32 2.94c-1.76 2.24-5.33 3.05-6.08 5.8-.7 2.55 1.54 4.9 3.7 6.45s4.68 3.3 4.86 5.93-1.93 4.7-2.08 7.23c-.14 2.23 1.28 4.26 2.86 5.85a23.4 23.4 0 0 0 6.14 4.43 8 8 0 0 1 2.21 1.35c1.32 1.28 1.44 3.34 1.32 5.17s-.35 3.8.5 5.43a4.69 4.69 0 0 0 5.42 2.16 3.24 3.24 0 0 1-.72.56 4.65 4.65 0 0 1-6.17-1.84c-.84-1.64-.6-3.6-.5-5.43s0-3.9-1.32-5.17a8 8 0 0 0-2.21-1.35 23.57 23.57 0 0 1-6.14-4.43c-1.58-1.6-3-3.62-2.86-5.85.15-2.52 2.26-4.7 2.1-7.23s-2.7-4.38-4.86-5.93-4.4-3.9-3.7-6.45c.76-2.75 4.32-3.56 6.08-5.8a7.68 7.68 0 0 0 1.32-2.94c.47-1.86.6-3.8 1-5.66a8 8 0 0 1 2.92-4.82 5.8 5.8 0 0 1 1.07-.57 8.32 8.32 0 0 0-2.52 4.51z" class="B"/><use xlink:href="#U" class="H"/><use xlink:href="#U" class="B"/><path d="M212.64 403.13s-.36 5.34-1.2 10.54c-.6 3.72-1.45 7.38-2.6 8.94-2.73 3.77-2.13 16-2.13 16l-3.4 13.9c.25 2.82-1.7 6.5-2.6 8.07-.27.47-.46.75-.46.75l2.37 4 3.82.95s6.55-2.18 4.6-6.5a6.59 6.59 0 0 1-.44-2.73c0-5.57 3.7-14.94 3.7-14.94s9-17.16 8.06-20.68a6.53 6.53 0 0 1-.19-1.16c-.28-3.9 2-10.64 2-10.64zm-58.9-25.65c-6.18 4-16.73 14.6-18.68 17.4-2.42 3.45-8.55 7.37-8.55 7.37l-4.32 2.6a5.65 5.65 0 0 0-1.49 1.43 10.59 10.59 0 0 0-.67 1l6.22 7.25s1.7-1.32 3.6-3 4.2-4 4.77-5.5c1.12-2.92 8.07-6.3 8.07-6.3s12.9-7.63 14.37-8.9a25.59 25.59 0 0 1 4.63-3.11 34.4 34.4 0 0 1 3.08-1.5 71 71 0 0 0 9.55-5.73l-6-9-11 4.5a7.92 7.92 0 0 0-3.58 1.53z" class="I"/><path d="M200.7 460.58l-.46.75 2.37 4 3.82.95s6.55-2.18 4.6-6.5a6.59 6.59 0 0 1-.44-2.73c-2 .47-2.7 3.27-2.7 3.27s-.26 1.16-3.32 2.24c-2.07.7-3.28-.92-3.87-2z" class="B"/><path d="M200.13 460.3c-.9.72-1.25 4-1.38 6.25l-.1 2.12c0 .5 3.4 1.66 5.52 1.1s10.62 2 10.62 2a24.08 24.08 0 0 0 8.59-1.41c2.8-1 2.5-2.23 1.34-3.26a9.67 9.67 0 0 0-3.07-1.65 7.35 7.35 0 0 1-3.1-2.52 17.66 17.66 0 0 0-4-3.82c-1.38-.92-2.93-1.73-3.92-1.56-2.16.35-2.85 3.3-2.85 3.3s-.26 1.15-3.3 2.24-4.27-2.85-4.35-2.78z" class="E"/><path d="M198.75 466.54l-.1 2.12c0 .5 3.4 1.66 5.52 1.1s10.62 2 10.62 2a24.08 24.08 0 0 0 8.59-1.41c2.8-1 2.5-2.23 1.34-3.26-2.24.72-6.65 2-9.3 1.83-3.16-.14-13.8-1.9-16.68-2.37zm-77.85-60.27h-.2a10.59 10.59 0 0 0-.67 1l6.22 7.25 3.6-3c-.5-3.72-8.37-5.94-8.37-5.94z" class="B"/><path d="M114.43 408.43s.6 8.05 2.34 11c1.32 2.26 2.47 1.88 4.68.73l2.47-1.28c4-1.92 4.07-3.9 4.07-3.9 5.82-5.7-6.87-9.28-6.87-9.28l-.6.73a9 9 0 0 0-4.15.88 12.1 12.1 0 0 0-1.95 1.11z" class="E"/><path d="M114.43 408.43s.6 8.05 2.34 11c1.32 2.26 2.47 1.88 4.68.73a8 8 0 0 1-4.11-5 24.74 24.74 0 0 1-1-7.86 12.1 12.1 0 0 0-1.91 1.13z" class="B"/><path d="M268.85 300.06l-13 9.54 3.17 10.83 4.52 4.77s6.08-.76 9.55-3.83a6.49 6.49 0 0 0 2.32-4.12 6.24 6.24 0 0 1 .37-1.46 5.31 5.31 0 0 1 .91-1.49 6.1 6.1 0 0 1 1.68-1.31c3.1-1.7 7.5-1.18 7.5-1.18s-1.13-13.8-3.37-11.7c-1.45 1.36-5.17 1-7.6.52l-2.27-.5z" class="I"/><circle cx="288.57" cy="304.36" r="11.38" class="B"/><circle cx="288.93" cy="304.14" r="11.38" class="I"/><path d="M229.5 318.07c-2.1 1.5-4.73 5.33-4.73 5.33l2.77 16.13 15.38 5.68h.06c.88-.76 12-10.33 16.42-8.83 4.6 1.57 13.38-3.6 13.38-3.6s3.72-7.8 4.7-9.5-.8-8.93-.8-8.93c-.3.54-.6 1-.9 1.5a14 14 0 0 1-2.8 3.19 5.81 5.81 0 0 1-3.89 1.53 4.27 4.27 0 0 0-1.13.06c-5.47 1-7-4.46-7.44-6.74-.1-.58-.13-1-.13-1l-2.32-4.9-1.46-3.07s-23.93 12.1-26 12.62a3.27 3.27 0 0 0-1.1.54z" class="E"/><path d="M275.75 315.8h0a15.27 15.27 0 0 1-1 1.37l3 5a16.56 16.56 0 0 0-.22-3.44z" class="J"/><path d="M274 318a11.83 11.83 0 0 1-1.07 1l-.13.1 3.64 6.07.87-1.65zm-3.53 2.34l4.57 7.64.84-1.7-3.95-6.58a6.08 6.08 0 0 1-1.46.64zm-2.9.3l6.1 10.18.83-1.7-5.15-8.58h-.3a4.74 4.74 0 0 0-1.13.07zm5.18 12.1l-.74.45-7.8-13a4.94 4.94 0 0 0 2.2.58l6.75 11.25z" class="D"/><path d="M255.4 305.5l5.1 8.52v-.18l-.14-1-3.78-7.96z" class="J"/><path d="M253.03 306.7l16.58 27.64 1.44-.7-16.6-27.67zm-2.37 1.18l16.48 27.5q.78-.3 1.5-.6l-16.55-27.6zm-2.36 1.2l16.26 27.12 1.58-.46-16.4-27.37zm-2.38 1.18l15.82 26.38a11.77 11.77 0 0 0 1.73-.2l-16.13-26.9zm-2.38 1.18l14.85 24.76a3.34 3.34 0 0 1 1 .16 5.06 5.06 0 0 0 1.12.24L245 310.72zm-2.38 1.17l14.48 24.16a10 10 0 0 1 1.59-.46l-14.64-24.4z" class="D"/><path d="M238.78 313.76l14.44 24.1 1.44-.7-14.45-24.1zm-2.4 1.16l14.56 24.27 1.36-.82-14.45-24.14zm-2.4 1.14l14.76 24.6 1.3-.9-14.62-24.33zm-2.42 1.1l15 25.08 1.28-1L233 316.46z" class="J"/><path d="M229.46 318.1l-.3.22 15.33 25.57 1.25-1-15.2-25.35a3.12 3.12 0 0 0-1.09.56zm-1.1.92l-1.14 1.2 14.8 24.7.85.32v-.05l.74-.63zm-1.87 2.05l-1 1.34 12.6 21 2.38.88zm-1.7 2.27l-.05.08.7 4.1 8.68 14.48 2.38.88z" class="D"/><path d="M225.93 330.38l.75 4.33 3.48 5.8 2.38.88-6.6-11.02zm1.24 7.2l.34 1.96 1.07.4-1.4-2.36z" class="J"/><path d="M229.5 318.07l1.6 4.63 5.67 11.8 12.55-5.43a19.45 19.45 0 0 0 1.08-6.23c-.18-2.4 1-5.83 7-7.92.35-.12.7-.24 1.1-.35a13.13 13.13 0 0 0 2-.75 11.5 11.5 0 0 0 6.28-6.68l.08-.25 8.24-5.9a3 3 0 0 0-.22-.37c-1.32-.24-2.27-.5-2.27-.5l-3.78-.06-10.78 7.9-1.46-3.07s-23.93 12.1-26 12.62a3.27 3.27 0 0 0-1.08.55z" class="B"/><g class="H"><path d="M249.5 293.1a11.19 11.19 0 0 1-4.27 6.06c-3.5 2.5-3 3.94-3 3.94l-10.33 6.34s-1.8 2.4-3.56 2 2.5 11 2.5 11l5.67 11.8 12.55-5.43a19.45 19.45 0 0 0 1.08-6.23c-.2-2.54 1.1-6.23 8.1-8.26a11.86 11.86 0 0 0 8.29-7.44c.05-.16.07-.25.07-.25l8.25-5.9a4.6 4.6 0 0 0-3.11-2.32 10.93 10.93 0 0 1-1.33-.28c-1.2-.36-1.78-1-1.77-2.1 0-1.5-.06-8-2.85-8.2s-16.3 5.27-16.3 5.27z"/><use xlink:href="#V"/></g><use xlink:href="#V" class="B"/><path d="M268.85 263.66l-1.88 1.13 2.54 9.2 2.05 1.28-1.4-8.3c-.1-.94-.12-1.6 0-1.68s.2 0 .37.07l-1.67-1.7z" class="B"/><path d="M251.52 259.12s-3.18 13.07-1.74 19.68c0 0 1.2 9.67-.27 14.3l15.75-2.45.56-2.92s-2.82-2-3.28-4.52-1.24-5.24-1.24-5.24a41.81 41.81 0 0 0-1-7c-.6-1.7 1.85-2 3.7-.82a4.3 4.3 0 0 1 .69.52 2.31 2.31 0 0 0 .59 3.05 6.56 6.56 0 0 0 2.2 1h0a21.6 21.6 0 0 0 3.55.63c0 0-1.13-5.6-1.44-8.5-.1-.94-.13-1.6 0-1.67.55-.33 4.42 3.5 4.42 3.5s.2-4.82-1.9-5.82c0 0-.33 1.38-1.46.88s-13.4-7.3-13.4-7.3-4.64-3.95-5.72 2.7z" class="H"/><path d="M262.4 264.43l1.6 5.77a4.3 4.3 0 0 1 .69.52 2.31 2.31 0 0 0 .59 3.05 6.56 6.56 0 0 0 2.2 1h0a22.73 22.73 0 0 0 3 .48c0 0-1.13-5.6-1.45-8.5z" class="B"/><path d="M263 264.54l1.7 6.15a2.31 2.31 0 0 0 .59 3.05c1.66 1.25 5.76 1.6 5.76 1.6l-1.44-8.5z" class="H"/><path d="M263.14 264.43l1.7 6.14a2.33 2.33 0 0 0 .58 3.06c1.67 1.25 5.77 1.58 5.77 1.58l-1.45-8.5z" class="B D"/><path d="M224.12 409.6l-11.48-6.46s-.36 5.34-1.2 10.54c3.95 2.5 7.62 4.88 10.7 6.56-.3-3.9 1.97-10.64 1.97-10.64zm-70.37-32.12a35.73 35.73 0 0 0 4.76 6.33s1.16 1.6 3.2 3.86l3.08-1.5a71 71 0 0 0 9.55-5.73l-6-9-11 4.5a7.92 7.92 0 0 0-3.58 1.56z" class="B"/><path d="M190.5 340.8c-2.06 3.23-12.08 14-12.08 14a55.09 55.09 0 0 0-4.52 6.83c-1.76 3.3-7.16 7.4-11.3 11.13s-4.13 1.23-6.57 2.57 4.82 9.1 4.82 9.1 12.3 17 26.22 17.72 34.3 19.1 42.75 20.94 3.2-3 6.8-4.25 5.36-5.2 5.36-5.2-1.32-9.7-.24-11.83 2.34-10.88 2.34-10.88 0-7.73.6-9 .32-10.3-.12-12.9 1.9-6.38 1.9-6.38-.83-1.38.33-4.45-1-12.88-1-12.88c-17.96-10.54-21.05-21.88-21.05-21.88l-2.25.7c-14.24-3.6-29.97 13.45-32.02 16.68z" class="E"/><path d="M222.5 324.1s1.4 15.25 23.32 21.2c-17.98-10.52-21.07-21.86-21.07-21.86zm2.4 26.25l-18.52 30.7c-.46 1.53 19.26-29.9 18.52-30.7zm-1.6-9.15s-13.86 20.8-16.58 21.67c0 0 13.3-20.07 16.58-21.67zm-8.45-4.9s-9.78 7-17.38 6.18zm-2.7-4.5s-9.4 3.9-11.76 3.7zm21.54 26.75l.7 19.3-3.4-5.7 2.7-13.6zm58.02-63.82c-.18 1.07-.76 2.13-.46 3.17a4.33 4.33 0 0 0 1.38 1.81c1.43 1.33 2.8 3 3 4.9.26 2.77-1.95 5.3-1.72 8.08a4.65 4.65 0 0 0 .87 2.36 4.7 4.7 0 0 0 1.1 1.08 4.61 4.61 0 0 0 3.42.75 5.9 5.9 0 0 0 4.27-4.09 12.35 12.35 0 0 0 .09-6.13c-1-5.3-3.58-10.18-6.1-15a2.34 2.34 0 0 0-.81-1c-.88-.5-4.26-.57-5.1.1-1.16.93 1.06 3.38.06 3.97z" class="B"/><path d="M292.1 294.5c-.2 1.07-.76 2.13-.47 3.17a4.28 4.28 0 0 0 1.39 1.81c1.42 1.33 2.78 2.95 3 4.9.25 2.77-2 5.3-1.73 8.08a4.75 4.75 0 0 0 .88 2.36 4.47 4.47 0 0 0 1.09 1.08 4.64 4.64 0 0 0 3.43.75 5.89 5.89 0 0 0 4.26-4.09 12.23 12.23 0 0 0 .1-6.13c-1-5.3-3.58-10.18-6.1-15a2.41 2.41 0 0 0-.81-1c-.88-.5-4.26-.57-5.1.1-1.18.9 1.06 3.38.06 3.97z" class="J"/><path d="M312.17 361.66l-5.7 4.35 13.68 9.7s4 8.3 11 6-4-9.4-4.76-9.7-2.17-1.13-2.17-1.13l-10.27-7.85z" class="I"/><path d="M312.17 361.66l-5.7 4.35 2.13 1.5c2.7-1.7 5-3.57 5.37-4.48zm-65.53-36.73l-12.3 8 8.64 12.2c.88-.76 12-10.33 16.42-8.83 4.6 1.57 13.38-3.6 13.38-3.6l4.7-9.5c.98-1.7-.8-8.93-.8-8.93a6.1 6.1 0 0 1 1.68-1.31 8.14 8.14 0 0 0-1.63.1c-2.43 1.07-3.67 2.76-3.76 5.9v.86c0 .48.05 1 .1 1.53v.25c.6 4.88-1.58 6.94-1.58 6.94a10.77 10.77 0 0 1-6.11 5c-4.3 1.38-18.74-8.6-18.74-8.6z" class="B"/><path d="M247.08 325.66l-12.3 8 9.72 13.77s4.82-2.64 6.4-4.6 9.62-5.2 9.62-5.2c9.7 3.42 13.86-2.4 13.86-2.4s11.26 17.53 12 17.6 6.84 4.88 6.84 4.88 4.72 6.07 6.1 6.57a8.69 8.69 0 0 1 1.5.68 3.07 3.07 0 0 1 .4.26l-4.13 2.4a1 1 0 0 0 .07.15l.05.08a6.67 6.67 0 0 0 2.52 2.51c1.87 1 14.08-6.6 13.88-8.32a1.86 1.86 0 0 0-.37-.88 10.33 10.33 0 0 0-3.18-2.48l-.32-.18-.12-.06s-7.06-7.08-9.35-8.12-10-13.46-10-13.46-4-5.33-3.48-6.48-2.05-10.83-3.67-11-2.34-2.4-2.34-2.4c1.07-2.25-.05-3-1.3-3.2a7.69 7.69 0 0 0-2.26 0c-2.64 1.17-3.88 3.07-3.76 6.75 0 .55.06 1.15.14 1.78.6 4.88-1.58 6.94-1.58 6.94a10.77 10.77 0 0 1-6.11 5c-4.36 1.34-18.8-8.63-18.8-8.63z" class="H"/><path d="M313.2 361.2a1.41 1.41 0 0 1 .15.51c.2 1.7-12 9.36-13.88 8.33a6.81 6.81 0 0 1-2.3-2.15l-.05-.08a1 1 0 0 1-.07-.15l4.13-2.4a3.07 3.07 0 0 0-.4-.26l.18-.1a12.35 12.35 0 0 0 8.74-6.36z" class="B"/><use xlink:href="#W" class="H"/><use xlink:href="#W" class="B D"/><path d="M273.4 320.57l3 1.3 3-8.07a7.69 7.69 0 0 0-2.26 0c-2.62 1.2-3.86 3.1-3.74 6.78z" class="H"/><path d="M273.53 320.5l3 1.28 3-8.07a7.69 7.69 0 0 0-2.26 0c-2.62 1.2-3.86 3.1-3.74 6.8zm19.32-26.43c-.2 1.07-.77 2.13-.47 3.17a4.27 4.27 0 0 0 1.38 1.81c1.43 1.33 2.8 2.95 3 4.9.25 2.77-2 5.3-1.73 8.08a4.73 4.73 0 0 0 .82 2.41 4.61 4.61 0 0 0 1.1 1 4.56 4.56 0 0 0 3.42.75 4.2 4.2 0 0 0 1.21-.4 4.75 4.75 0 0 1-1.94.84 4.58 4.58 0 0 1-4.52-1.82 4.82 4.82 0 0 1-.88-2.37c-.23-2.77 2-5.3 1.73-8.08-.17-1.94-1.53-3.56-3-4.9a4.22 4.22 0 0 1-1.39-1.81c-.3-1 .28-2.1.47-3.17 1-.6-1.22-3-.1-4a1.85 1.85 0 0 1 .58-.26c-.68 1.08 1.24 3.3.32 3.85zm-26.15 21.98s-3.9.27-4.37 2.3c0 0 3.74-3.6 3.22-4.55" class="B"/><path d="M332.04 376.43s-10.08-4.83-8.72 1.24 8.72-1.24 8.72-1.24z" class="I"/><path d="M310.7 341.317l9.55-4.363 49.027 107.333-9.55 4.363z" class="C"/><path d="M192.4 164.83c-1.86 4.08-6.4 7.7-5.05 12 .7 2.2 2.8 3.63 4.76 4.86 4.58 2.9 9.25 5.9 12.57 10.18s5.12 10.15 3.2 15.22c-1.3 3.47-4.15 6.15-5.8 9.47a19.85 19.85 0 0 0-1.09 13.36 46.11 46.11 0 0 0 5.49 12.51c.85 1.46 1.85 3 3.44 3.58a11.88 11.88 0 0 0 3.63.3c4.23.16 8.05 3 10.3 6.55s3.17 7.85 3.62 12.06c.22 2.12.38 4.37 1.58 6.13 1.68 2.46 4.88 3.27 7.82 3.77a99.06 99.06 0 0 0 23.14 1.19" fill="none" class="O P"/><rect x="248.29" y="269.78" width="13.75" height="9.08" rx="4.54" class="E"/></svg>