<svg xmlns="http://www.w3.org/2000/svg" xmlns:xlink="http://www.w3.org/1999/xlink" width="888" height="674.5"><style><![CDATA[.B{fill:#3f3d56}.C{fill:#2f2e41}.D{fill:#6c63ff}.E{fill:#ffb8b8}.F{fill:#d0cde1}]]></style><path fill="#e6e8ec" d="M256 20.5h418v537.564H256z"/><g class="B"><use xlink:href="#B"/><use xlink:href="#B" y="16.783"/><use xlink:href="#B" y="33.568"/></g><g class="D"><use xlink:href="#B" y="125"/><use xlink:href="#B" y="141.783"/></g><g class="B"><use xlink:href="#B" y="158.568"/><use xlink:href="#B" y="201"/><use xlink:href="#B" y="217.783"/><use xlink:href="#B" y="234.568"/><use xlink:href="#B" y="277"/></g><use xlink:href="#B" y="293.783" class="D"/><g class="B"><use xlink:href="#B" y="310.568"/><use xlink:href="#B" y="353"/><use xlink:href="#B" y="369.783"/><use xlink:href="#B" y="386.568"/><path d="M703.5 597h-449V0h449zm-447-2h445V2h-445zM604 46.5a12.99 12.99 0 0 1 6.5-11.247 13 13 0 1 0 0 22.493C606.48 55.43 604 51.14 604 46.5z"/></g><path d="M621 46.5c.001-4.64 2.48-8.93 6.5-11.247a13 13 0 0 0-16.474 19.609 13 13 0 0 0 16.474 2.884C623.48 55.43 621 51.14 621 46.5z" class="D"/><g class="B"><circle cx="638" cy="46.5" r="13"/><path d="M625.804 598.05l-1.073-.402c-.236-.09-23.708-9.082-34.704-29.474s-5.612-44.945-5.556-45.2l.253-1.118 1.073.402c.236.09 23.708 9.082 34.704 29.474s5.612 44.945 5.556 45.2zm-34.017-30.825c9.296 17.24 27.845 26.08 32.545 28.097.894-5.037 3.696-25.406-5.592-42.63s-27.843-26.074-32.545-28.097c-.894 5.04-3.695 25.407 5.592 42.63z"/></g><path d="M598.43 561.02c19.76 11.89 27.37 35.503 27.37 35.503s-24.428 4.34-44.188-7.55-27.37-35.503-27.37-35.503 24.428-4.34 44.188 7.55z" class="D"/><path d="M339 160.5c-.01 39.78-21.87 76.338-56.9 95.17q-1.935 1.05-3.93 2c-29.904 14.486-64.808 14.423-94.66-.17q-3.8-1.86-7.44-4.02c-2.46-1.44-4.85-3-7.17-4.63a108.02 108.02 0 0 1 13.37-184.75 106.2 106.2 0 0 1 20.6-7.9q4.7-1.275 9.58-2.12c6.13-1.063 12.34-1.595 18.56-1.6a80.85 80.85 0 0 1 3.82.08q1.395.03 2.8.12a107.41 107.41 0 0 1 28.53 5.65l2.36.84q4.08 1.5 7.98 3.34A107.98 107.98 0 0 1 339 160.5z" class="B"/><path d="M273.154 50.06c-9.826-23.184-34.838-27.563-34.838-27.563s-24.083-6.425-44.196 24.173c-18.747 28.52-42.922 55.24-12.263 66.625l8.098-17.008.972 19.574a124.82 124.82 0 0 0 13.497 2.048c34.006 3.455 66.063 9.2 66.656-3.09.79-16.337 11.528-42.45 2.074-64.758z" class="C"/><g class="E"><path d="M185.82 239l-.8 6.42-1.52 12.08q-3.8-1.86-7.44-4.02l-7.17-4.63.5-13.14 11.1 2.23zm111.73 6.57c-4.856 3.802-10.028 7.18-15.46 10.1l-7.65-26.5 1.85-.3 18.94-3 .6 5.15z"/><circle cx="238.333" cy="68.326" r="29.541"/><path d="M218.092 79.814s2.188 37.2-4.376 39.388 33.917 0 33.917 0-5.47-22.976 0-29.54-29.54-9.847-29.54-9.847z"/></g><g class="F"><path d="M248.18 113.184s-28.447-2.188-33.917 0-20.788 13.13-20.788 13.13l7.66 68.928 62.364 13.13 9.847-14.223 9.847-20.788-4.376-26.258-1.094-15.317z"/><path d="M188.004 130.7s-14.223 3.282-15.317 14.223-1.094 38.294 0 42.67 0 6.565-1.094 7.66-3.282-1.094-1.094 2.188 2.188 3.282 1.094 6.565-4.376-1.094-2.188 4.376 3.282 6.565 2.188 7.66-4.376 26.258-4.376 26.258l18.6 3.282 18.6-64.552zm85.34 0a11.66 11.66 0 0 1 9.847 6.565c3.282 6.565 12.035 49.235 10.94 52.517s-3.282-1.094-1.094 5.47 0 5.47 1.094 9.847-4.376 0 0 4.376 6.565 5.47 4.376 7.66-5.47-2.188-2.188 2.188 3.282 10.94 3.282 10.94l-26.258 5.47-7.66-61.27z"/></g><path d="M276.85 237.52l1.3 20.16a108.17 108.17 0 0 1-94.66-.17q-3.8-1.86-7.44-4.02l2.56-9.2q.93-3.225 1.88-6.35c4.9-16.07 10.2-29.74 15.16-35.05 0 0 0-12.03 2.2-13.13a7.23 7.23 0 0 0 2.32-3.18c.815-1.807 1.504-3.668 2.06-5.57l-19.82-46.14a4.61 4.61 0 0 1 2.17-5.93l5.37-2.7a4.61 4.61 0 0 1 6.19 2.1l24.7 50.47 27.35 17.5 19.18-8.53.5-.23s14.23-21.88 9.85-32.82c-1.87-4.67-3.93-10.9-5.7-16.54l-2.67-8.87a1.97 1.97 0 0 1 2.98-2.19l3.73 2.5c.845.567 1.514 1.36 1.93 2.3a4.93 4.93 0 0 1 .38 1.14l8.1 39.2-10.94 22.97v21.88l1.16 17.9zM267.6 41.637l-25.067-13.13-34.616 5.37-7.162 31.632 17.828-.685 4.98-11.622v11.43l8.226-.316 4.775-18.502 2.984 19.695 29.245-.596-1.194-23.277z" class="C"/><ellipse cx="208.245" cy="68.326" rx="3.282" ry="5.744" class="E"/><path d="M862.585 339.563c0 47.933-32.38 88.5-76.997 102.075-6.588 2.017-13.35 3.4-20.2 4.16a112.6 112.6 0 0 1-12.596.703 91.22 91.22 0 0 1-4.666-.109h-.02a111.25 111.25 0 0 1-45.157-11.525c-9.884-4.91-18.972-11.278-26.96-18.892-21.03-19.854-32.96-47.49-32.99-76.4 0-45.32 28.942-84.054 69.8-99.62a109.23 109.23 0 0 1 15.015-4.535c18.82-4.252 38.413-3.622 56.92 1.832 1.403.396 2.796.842 4.168 1.317.01 0 .02.01.03.01a103.73 103.73 0 0 1 9.719 3.822c1.088.475 2.176.98 3.243 1.515q3.202 1.545 6.283 3.317c.793.446 1.576.9 2.348 1.376a109.07 109.07 0 0 1 32.175 29.586c7.84 10.848 13.533 23.095 16.774 36.08a103.91 103.91 0 0 1 3.101 25.298z" class="D"/><g class="C"><path d="M871.254 166.084l15.03-4.564 1.297-12.893s-36.556-13.45-48.243 10.34c-4.127 8.4-9.327 13.445-14.33 16.456a27.04 27.04 0 0 1-22.991 1.929c-25.335-9.012-31.302 16.616-31.302 16.616s2.2 3.648 17.807 4.545c7.772.446 14.132 6.143 18.56 11.754 9.482 12.014 28.958 8.542 33.74-5.878q.116-.35.228-.706c7.47-23.837 41.482-4.858 41.482-4.858l2.17-21.6z"/><ellipse cx="768.843" cy="206.501" rx="18.409" ry="17.93"/><ellipse cx="759.639" cy="254.314" rx="49.09" ry="47.813"/></g><g fill="#a0616a"><ellipse cx="758.105" cy="271.746" rx="33.749" ry="32.871"/><path d="M744.8 296.648l6.136 31.875 30.68-3.984s-5.114-24.902-2.045-31.875zm60.35-69.728s-24.545-17.93-34.772-10.957 27.613 29.883 31.704 27.9 3.068-16.934 3.068-16.934z"/></g><g class="F"><path d="M828.67 362.386a4.11 4.11 0 0 1-.02.495v.01c-.63 14.238-27.54 57.815-43.063 78.747-6.588 2.017-13.35 3.4-20.2 4.16a112.6 112.6 0 0 1-12.596.703 91.22 91.22 0 0 1-4.666-.109h-.02c-14.293-4.495-31.27-10.397-43.653-15.05-5.835-2.208-10.654-4.13-13.683-5.495a19.61 19.61 0 0 1-3.233-1.693c-5.114-4 6.14-6.98 11.254-7.97 5.113-1-2.043-11.95-2.043-11.95-18.41-18.932 4.087-34.863 4.087-34.863s9.2-18.932 9.2-23.912c.025-.37.163-.722.397-1 3.853-5.307 34.38-14.922 34.38-14.922v-15.94l36.81-5.98 5.114 7.97 22.507 3s19.427 25.902 19.427 43.824z"/><path d="M731.515 362.386s-13.48 36.398-25.8 65.895l-1.27 3.06-1.505 3.525c-9.884-4.9-18.972-11.278-26.96-18.892l17.7-56.567c3.73-12.367 12.362-14.634 16.754-14.96a13.42 13.42 0 0 1 2.674.02zm74.657-40.836l3.068-2.988s38.863-40.84 37.84-50.8c0 0-20.454-24.902-46.022-17.93 0 0-11.25-26.895 6.136-25.9s81.816-2.988 80.793 25.9-62.385 117.54-62.385 117.54z"/></g><g class="C"><path d="M765.388 445.797a112.6 112.6 0 0 1-12.596.703 91.22 91.22 0 0 1-4.666-.109h-.02a111.25 111.25 0 0 1-45.157-11.525c-4.474-2.22-8.79-4.745-12.92-7.555l.742-1.465v-.01l.864-1.683 14.1 4.13z"/><ellipse cx="915.639" cy="359.095" rx="20.972" ry="33.662" transform="matrix(.304887 -.952388 .952388 .304887 138.47396 1008.90549)"/></g><path d="M0 566.5a109.21 109.21 0 0 0 1.26 16.58c4.042 25.92 17.37 49.488 37.5 66.3l1.68 1.37q1.77 1.425 3.6 2.77 2.64 1.95 5.4 3.73c29.348 18.91 66.017 22.49 98.47 9.62l2.27-.93c1.2-.5 2.38-1.04 3.56-1.6q4.485-2.085 8.75-4.6 4.395-2.565 8.5-5.52c1.25-.9 2.46-1.8 3.67-2.76l.02-.01a108.29 108.29 0 0 0 35.02-48.53v-.01c16.94-47.43-1.107-100.277-43.52-127.44-.95-.6-1.9-1.2-2.88-1.76a61.74 61.74 0 0 0-3.05-1.76 107.09 107.09 0 0 0-45.08-13.23q-3.555-.24-7.17-.24c-.12 0-.24 0-.36.01q-4.86 0-9.6.45C42.49 464.104-.001 510.712 0 566.5z" class="B"/><path d="M219.312 603.59s31.542-32.594 39.954-12.617-31.542 30.49-31.542 30.49z" class="E"/><path d="M40.44 650.76q1.77 1.425 3.6 2.77 2.64 1.95 5.4 3.73c29.348 18.91 66.017 22.49 98.47 9.62l2.27-.93c1.2-.5 2.38-1.04 3.56-1.6l-2.77-3.98c-2.008-1.88-4.258-3.484-6.7-4.77-18.95-10.3-54.64-9.97-78.8-8.28l-9.52.78-5 .5-1.77.2-8.62 1.07z" class="C"/><g class="E"><circle cx="133.119" cy="474.752" r="30.215"/><path d="M113.118 484.78L91.04 507.9l-6.31 35.748 55.725 9.463-4.206-32.594s1.05-15.77 5.257-18.925-28.388-16.823-28.388-16.823z"/></g><path d="M47.93 653c1.843-.592 3.716-1.09 5.6-1.5a83.96 83.96 0 0 1 14.49-1.85c11.536-.608 23.045 1.62 33.52 6.5 15.32 7.35 33.5 9.35 46 9.73l2.63.06c1.2-.5 2.38-1.04 3.56-1.6q4.485-2.085 8.75-4.6l-.04-3.7-.97-108.2-19.97-23.13-5.13-5.78-2.44 2.2-14.5 13.06-21.15-19.6-7.24-6.7-42.26 142.24z" fill="#575a89"/><g class="F"><path d="M128.62 551.1c.05 5.252.492 10.493 1.32 15.68 3.6 23 6.7 61.2 14.34 88.8 1 3.64 2.1 7.08 3.27 10.3l.36 1 2.27-.93c1.2-.5 2.38-1.04 3.56-1.6q4.485-2.085 8.75-4.6 4.395-2.565 8.5-5.52l-.32-1.26v-.01l-4.98-19.94s3.2-16.7 5.76-35.36v-.01c2.94-21.37 5.04-45.3.55-49.8l-35.24-32.22a35.61 35.61 0 0 0-2.82 5.5c-2.4 5.7-5.44 15.73-5.32 29.97zM19 627.7a108.02 108.02 0 0 0 19.75 21.69l1.68 1.37q1.77 1.425 3.6 2.77 2.64 1.95 5.4 3.73l4.1-5.74q1.215-1.695 2.43-3.42l4.28-6.15 4.72-6.94c11.36-16.97 20.78-33.26 21.86-43 1.3-11.65 3.93-29.67 6.6-46.88l4.85-30.53 2.84-17.26s-55.1-5.5-62.82-.1h-.01a1.81 1.81 0 0 0-.87 1.2c-.84 5.86 3.66 60.32 5.52 82.32v.01l.8 9.14s-3.15 4.2-7.77 10.96C31.25 607.77 25 617.3 19 627.7z"/><path d="M168.844 577.303l5.257 41.005 46.262-19.977 14.72 30.49-75.702 28.388s-13.668-72.548 9.463-79.908z"/></g><path d="M163.307 480.28s4.106-4.434 3.7-9.984a31.65 31.65 0 0 1 .599-9.436s-1.285-9.085-3.183-14.35-.298-7.1-8.454-9.973-2.964-13.27-27.012-4.985a6.58 6.58 0 0 1-7.155 1.464c-4.44-1.626-7.115 4.473-7.115 4.473s-2.77-2.272-4.323.1-9.07-3.022-11.825 14.163 6.705 32.5 6.705 32.5 1.327-27.5 16.945-28 33.28-6.414 35.47 5.166a84.52 84.52 0 0 0 5.658 18.861z" class="C"/><path d="M38.76 649.4l1.68 1.37q1.77 1.425 3.6 2.77 2.64 1.95 5.4 3.73A107.29 107.29 0 0 0 78.1 670.3c2.48-6.36-3.46-14.27-10.07-20.63a90.63 90.63 0 0 0-2.54-2.35c-2-1.77-3.97-3.37-5.7-4.7-.08-.06-.15-.1-.22-.17-3.27-2.52-5.64-4.07-5.64-4.07l-2.1 1.53z" class="E"/><path d="M1.26 583.08c4.042 25.92 17.37 49.488 37.5 66.3l1.68 1.37q1.77 1.425 3.6 2.77l4.74-3.38v-.01l2.18-1.55 8.6-6.15.68-.5 6.6-4.72-1.9-2.22-33.86-39.83 24.18-29.44-10.5-67.3a11.18 11.18 0 0 0-6.48-1.2h-.01c-2.38.4-4.8 2.05-6.13 6.45-2.4 7.97-21.7 56.4-30.9 79.38z" class="F"/><defs ><path id="B" d="M354.09 117.81h213.403v2.398H354.09z"/></defs></svg>