<svg xmlns="http://www.w3.org/2000/svg" width="882.951" height="612.148"><g fill="#e6e6e6"><path d="M102.896 530.318s-112.306-51.7-72.853-87.552 72.853 87.552 72.853 87.552z"/><path d="M100.94 542.382s-51.62-169.606 24.392-161.495-24.392 161.495-24.392 161.495z"/><path d="M63.305 527.34l2.2 28.862c-.002 4.43.222 8.858.67 13.266 2.94 28.94 15.58 42.128 30.35 42.128s26.858-13.19 29.8-42.128c.45-4.408.673-8.835.67-13.266l.017-.395.01-.095 2.175-28.372z"/></g><path d="M127.02 555.71l-.01.095-.017.395c.002 4.43-.222 8.858-.67 13.266H66.176c-.45-4.408-.673-8.835-.67-13.266l-.034-.5z" fill="#fff"/><g fill="#e6e6e6"><path d="M835.384 547.67s-86.95-40.027-56.404-67.784 56.404 67.784 56.404 67.784z"/><path d="M833.87 557.01s-39.965-131.312 18.885-125.032S833.87 557.01 833.87 557.01z"/><path d="M804.732 545.363l1.704 22.345c-.002 3.43.172 6.858.52 10.27 2.276 22.405 12.06 32.616 23.497 32.616s20.794-10.21 23.07-32.616a100.92 100.92 0 0 0 .519-10.271l.013-.306.007-.073 1.684-21.966z"/></g><path d="M854.06 567.33l-.007.073-.013.306a100.92 100.92 0 0 1-.519 10.271h-46.567c-.347-3.412-.52-6.84-.52-10.27l-.027-.38z" fill="#fff"/><path d="M292.716 182.587V144h-6v38.587a8 8 0 1 0 6 0zm14 389.413h-41V74h-16v498h-41a37 37 0 0 0-37 37h172a37 37 0 0 0-37-37z" fill="#e6e6e6"/><path d="M171.8 148h171.834L333.125 16.66A18.2 18.2 0 0 0 315.079 0H200.353a18.2 18.2 0 0 0-18.046 16.66z" fill="#6c63ff"/><path d="M411.055 378.52h0a12.37 12.37 0 0 0-14.258 10.339l-4.838 31.75 16.46 4.366 12.06-29.58a12.37 12.37 0 0 0-9.425-16.873z" fill="#a0616a"/><path d="M410.747 420.548c9.135 36.302 5.203 69.506-28.812 95.576-40.8-11.247-67.935-38.382-84.49-77.818-2.08-4.955-2.044-10.545.1-15.472s6.21-8.764 11.253-10.62h0c7.678-2.823 16.302-.6 21.66 5.582L370.487 464l18.78-46.59z" fill="#6c63ff"/><g fill="#e6e6e6"><path d="M619.788 611.007c-37.253-1.98-60.395-14.77-66-41l6-11 68.695 31.294a9.61 9.61 0 0 1-.676 17.766z"/><path d="M591.003 611.27c-19.356-.586-37.97-.404-55.608.8-6.44.44-12.033-4.382-12.547-10.816l-1.06-13.237-15-24 13-13c21.847 21.76 45.807 40.035 74.263 50.9a5.13 5.13 0 0 1-3.048 9.363z"/></g><g fill="#2f2e41"><path d="M485.788 517.007c-24.716 44.226-49.025 74.04-81 90-39.34 12.984-68.1-4.218-90.5-39.5l65-43 9.5 9.5 86.098-65.518c4.377-4.144 11.275-3.99 15.464.344l73.438 90.174-9 15z"/><path d="M507.788 569.007l-34-52 8-15 45 47-19 20z"/></g><g fill="#a0616a"><circle cx="311.788" cy="369.007" r="34"/><path d="M320.788 432.007l-38-13c5.623-8.936 8.088-19.5 7-30h31c-1.763 15.258-2.027 29.73 0 43z"/></g><path d="M401.788 523.007c-5.697 2.34-6.113 9.923-11.5 12.5-26.04 12.46-53.59 22.568-72.5 40.5-44.193-30-85.155-123.218-32-164 18.144 10.617 34.35 18.215 34 0z" fill="#6c63ff"/><path d="M378.788 483.007l-18.5-6.5-36.5 28.5-16.362-58.903c-1.135-4.085-2.974-2.015-5.614.823-5.62-5.2-13.747-6.668-20.83-3.758s-11.832 9.665-12.173 17.315c-1.946 42.726 10.938 78.874 42.978 106.523 41.907-8.973 59.692-37.286 67-74l-1.98-1.32q1.095-4.256 1.98-8.68z" opacity=".2"/><path d="M316.363 324.28c11.215 2.562 23.98 6.193 24.696 9.567 11.537 2.907 20.245 9.87 22.023 20.487a6.36 6.36 0 0 1-6.378 7.373c-6.274-.08-15.692-.682-21.912-3.28-18.067 11.64-21.1 41.918-13.21 62.528l-12.416-1.138-12.845-37.602-3.28 36.124-28.333-3.746 3.65-46.065a68.63 68.63 0 0 1 10.778-30.433 25.92 25.92 0 0 1 2.028-2.627 36.01 36.01 0 0 1 35.201-11.188z" fill="#2f2e41"/><path fill="#3f3d56" d="M380.285 438.428l31.117 36.583 46.676-55.086-31.538-38.266-46.255 56.77z"/><path d="M450.088 421.187L413.084 390.9c2.103-5.046 12.195-3.364 12.195-3.364l28.966 29.366a15.85 15.85 0 0 1 2.571 3.433h0z" fill="#f2f2f2"/><path d="M451.77 419.084l-42.05-32.8-46.676 70.645 43.943 29.645c4.205 1.682 8.4-1.262 8.4-1.262l42.89-65.6z" fill="#3f3d56"/><path d="M414.566 397.076l.398-.553 26.914 19.34-.398.553zm-7.653 79.43l35.322-53.404.568.376-35.322 53.404zM374.2 457.62l.404-.55 28.588 21.034-.404.55zm-.923-7.613l36.584-52.563.56.4-36.584 52.563z" fill="#6c63ff"/><path d="M420.877 387.44l.284-.3 33.274 30.538-.284.3zm-2.767.267l.278-.315 34.776 30.7-.278.315zm-2.166.62l.27-.323 36.1 30.092-.27.323z" fill="#b3b3b3"/><path d="M397.08 449.168h0a12.37 12.37 0 0 0-17.314 3.229l-17.98 26.6 13 11 23.576-21.555a12.37 12.37 0 0 0-1.283-19.284z" fill="#a0616a"/><path d="M378.788 487.007c-7.308 36.714-25.093 65.027-67 74-32.04-27.65-44.925-63.797-42.978-106.523.245-5.368 2.673-10.403 6.723-13.936s9.367-5.257 14.72-4.77h0c8.147.74 14.985 6.445 17.175 14.327l16.362 58.903 36.937-34.042z" fill="#6c63ff"/><path fill="#3f3d56" d="M882.556 612.148H0v-2.182h882.95l-.395 2.182z"/><path d="M461.288 91.507c-1.104.001-2 .896-2 2v156c.001 1.104.896 2 2 2h130c1.104-.001 2-.896 2-2v-156c-.001-1.104-.896-2-2-2z" fill="#e6e6e6"/><path d="M474.788 236.007h103v-129h-103z" fill="#fff"/><path d="M677.72 132.507c-.66.001-1.193.535-1.194 1.194v77.612c.001.66.535 1.193 1.194 1.194h93.134c.66-.001 1.193-.535 1.194-1.194V133.7c-.001-.66-.535-1.193-1.194-1.194z" fill="#e6e6e6"/><path d="M685.78 141.76v61.493h77.015V141.76z" fill="#fff"/><g fill="#e6e6e6"><path d="M544.475 102.507h-36.373a4.99 4.99 0 0 1-4.33-7.5l18.232-31.578a4.94 4.94 0 0 1 3.787-2.398l.026-.002.472-.02a4.95 4.95 0 0 1 4.33 2.5l18.187 31.5a5 5 0 0 1-4.33 7.5zm-37.377-5.005a1.03 1.03 0 0 0 .138.505c.176.312.508.504.866.5h36.373a.98.98 0 0 0 .866-.5c.09-.153.136-.327.138-.504s-.05-.345-.138-.495l-18.187-31.5a1 1 0 0 0-1.732 0l-18.187 31.5a.98.98 0 0 0-.138.495z"/><circle cx="526.288" cy="67.507" r="3"/><path d="M734.148 135.007h-19.72c-.97.004-1.868-.512-2.353-1.352s-.483-1.876.005-2.714l9.885-17.12a2.68 2.68 0 0 1 2.053-1.3h.014l.256-.012c.97-.006 1.868.512 2.348 1.355l9.86 17.078a2.71 2.71 0 0 1-2.348 4.066zm-20.265-2.713c.001.096.027.2.075.274.095.17.275.273.47.27h19.72c.194.002.374-.102.47-.27.048-.083.074-.177.075-.273s-.026-.187-.075-.268l-9.86-17.08a.54.54 0 0 0-.939 0l-9.86 17.078a.53.53 0 0 0-.075.268z"/><circle cx="724.288" cy="116.031" r="1.627"/><path d="M475.966 186.888a26.49 26.49 0 0 1 15.262-14.327 26.18 26.18 0 0 1 21.812 1.357c7.804 4.142 14.042 10.653 21.968 14.617a56.18 56.18 0 0 0 24.786 5.839 55.48 55.48 0 0 0 27.793-7.214 1.5 1.5 0 0 0 .495-2.027 1.5 1.5 0 0 0-2.009-.564c-15.593 8.738-34.527 9.086-50.43.925-7.95-4.17-14.25-10.9-22.35-14.807a28.88 28.88 0 0 0-22.231-1.248 29.84 29.84 0 0 0-17.988 16.65c-.728 1.787 2.173 2.565 2.893.798zm-2.37 28.042c16.648-3.717 33.918-3.657 50.54.175 14.766 3.424 30 9.585 45.234 5 6.802-2.053 13.035-6.158 16.53-12.477.935-1.7-1.655-3.206-2.6-1.514-6.58 11.897-21.992 13.904-34.166 11.952-8.134-1.304-15.974-3.92-23.98-5.8a116.86 116.86 0 0 0-52.364-.228c-1.883.42-1.086 3.313.798 2.893zm-1.08-67.058a118.63 118.63 0 0 1 48.042 1.709c14.695 3.6 29.06 11.826 44.597 10.405 7.194-.658 14.316-3.303 19.203-8.807 1.278-1.44-.836-3.57-2.12-2.12-4.216 4.747-10.288 7.208-16.52 7.873-7.182.766-14.238-.722-21.074-2.836-7.566-2.34-14.917-5.305-22.6-7.24a121.5 121.5 0 0 0-50.316-1.877c-1.9.324-1.094 3.216.798 2.893zm226.677-7.125a52.3 52.3 0 0 1 13.722 25.587 51.65 51.65 0 0 1-11.168 43.86c-1.243 1.463.87 3.596 2.12 2.12a55.43 55.43 0 0 0 12.7-28.673c2.043-16.546-3.573-33.12-15.253-45.018-1.354-1.38-3.475.74-2.12 2.12zm45.01-6.4c-9.194 6.743-14.34 17.627-15.065 28.885-.754 11.714 3.714 23.026 10.907 32.12a62.43 62.43 0 0 0 14.848 13.404c1.62 1.06 3.125-1.536 1.514-2.6-9.185-6-17.044-14.546-21.217-24.8-4.1-9.828-4.14-20.887-.087-30.738a32.84 32.84 0 0 1 10.614-13.7c1.54-1.13.046-3.735-1.514-2.6z"/><circle cx="533.288" cy="150.507" r="14"/></g></svg>