<svg xmlns="http://www.w3.org/2000/svg" width="195" height="185" viewBox="0.5 0.2 195 185"><style><![CDATA[.B{stroke:#000}.C{stroke-width:.25}.D{stroke-miterlimit:10}.E{fill:#c1dee2}.F{fill:#69a1ac}.G{fill:#915b3c}]]></style><linearGradient id="A" gradientUnits="userSpaceOnUse" x1="36.046" y1="164.997" x2="193.863" y2="51.09"><stop offset="0" stop-color="#8ca1ff"/><stop offset=".201" stop-color="#8a9cfe"/><stop offset=".444" stop-color="#848dfb"/><stop offset=".708" stop-color="#7a75f6"/><stop offset=".985" stop-color="#6d53ee"/><stop offset="1" stop-color="#6c51ee"/></linearGradient><path fill="url(#A)" d="M195.5 185.2h-93.2c-26.6-1-56.7-8.1-79.9-34.7C5.2 130.8-8 87.7 6.7 61.7 28.9 22.1 83.1 0 139.3 0h56.2v185.2z"/><g fill="#f2f2f2" class="B C D"><path d="M180.1 148.1c2.5 21.3-58 35.2-110 25.5s-76-47.6-51.2-67.8c24.9-20.2 158.7 21 161.2 42.3z"/><path d="M106.5 49.5c-1.3-.8-3.1.1-2.4 2.1.8 2.1 3.7 2.2 5.4 2.1-.2 0-.7-2-.9-2.3-.5-.8-1.2-1.4-2.1-1.9zm-1.2 9.7c-.8.7-.8 1.9-.2 2.7.8 1 2.1.9 3.2.8.5 0 3-.3 2.4-.7 0 0 .1.1.2.1.1.2.1.5.2.7.6 2.3 1.5 4.4 2.6 6.5-.4-.2-.9-.3-1.3-.4-1.3-.2-4 1-2.6 3 1.4 1.9 3.6-.1 5.2-.4 1.5 2.5 3.2 4.8 5 7.1-.1 0-.2.1-.3.2-.7-.4-1.5-1-2.1-1.2-1-.2-2.9-.4-3.6.6-.9 1.2.1 2.2 1.1 2.4 1.5.3 3.5-.5 5-1.1.2 0 .3 0 .5-.2h.1l5.5 6.6h-.1c-.5-.4-1-.7-1.6-.8-1.3-.4-2.8-.4-3.9.7s-1.4 3-.3 4.2c2.2 2.4 5.4-3.1 6.5-3.3 1.9 2.2 3.9 4.2 5.9 6.1-.2-.1-.5-.1-.7-.2-2-.2-6.7 2.6-4.2 5.3 2.1 2.4 4.6-2.2 6.3-3.8l5.7 5.6c-1-.3-2-.4-3.1 0s-3 1.4-2.2 3.1c.7 1.8 2.9 1 4.1.4.6-.3 1.9-1.3 3-1.8 3 3.2 5.6 6.8 7.5 10.9 1.2 2.6 2.1 5.4 2.8 8.3.4 1.8 1.2 4.9 1.1 7.3.8-4.8-.6-10.5-2.2-14.7-1.4-3.9-3.5-7.3-6-10.4.6-2.1 5.8-5.2 2.7-7.1-1.6-1-3.3.7-3.7 2.5-.2 1.3.1 2.8.5 4.1-.8-.9-1.6-1.9-2.4-2.7-1.1-1.2-2.3-2.4-3.5-3.6 1.9-2.1 3.8-8.1 1.2-9.1-3.9-1.4-2 6.7-1.7 8.3.1 0 .1 0 .2-.1 0 .1 0 .3-.1.4l-6.8-6.7c.2-.2.5-.8.8-1.2.6-.8 1.1-1.6 1.5-2.5.6-1.4 1.2-3.7-.4-4.6-1.8-.9-2.7 1.7-2.7 3.2 0 1.1.2 2.1.4 3.1 0 .3-.1 1.8.3 1.2v.5l-1.2-1.2v-.2c0-.5-.4-.6-.7-.5-.5-.6-1-1.1-1.5-1.7a58.41 58.41 0 0 1-3.2-3.8c.2-.2.1-.5.4-.8.2-.2.6-.4.9-.6a8.88 8.88 0 0 0 1.6-2.2c.6-1.3 1.5-4.2-.4-4.8-1.9-.7-2.9 2.1-3 3.8 0 .3.2 3.3.4 4.4-2-2.4-4-4.9-5.7-7.4.5 0 2.1-1.3 2.4-1.6.8-.8 2-2.7.6-3.7-1.2-.9-2.6.4-3.1 1.6-.1.2-.4 2.1-.4 2.9l-2.1-3.2c-.4-.7-.8-1.5-1.2-2.2l.3-.3c2-.4 4.5-3.9 2.2-5.1-1.1-.6-2.3.6-2.8 1.6-.1.2-.3 1.2-.4 2-1.1-2.5-1.9-5.2-2.6-7.9.2 0 .3-.2.3-.5 1-.6 1.7-1.1 2.4-2.3.4-.7 1.2-2.4-.1-2.8-1.6-.5-2.6 2.2-2.7 3.6v1h-.2c-.4-1.7-.7-3.4-.9-5.1.9-.3 1-5.5.4-6.2-1.3-1.6-2.2.7-2.1 2 .1 1.5.7 2.8 1.4 4 .1.1.1.1.1-.1 0 .1 0 .2.1.2 0 .8-.1 1.6-.1 2.3.1 2 .3 4 .6 5.9.1.5.2.9.2 1.4-.7-.7-1.6-1.3-2-1.5-1.3-.6-2.8-1.1-3.7-.3zm47.6 68.7c0 .7-.2 1.3-.4 1.8.2-.5.3-1.2.4-1.8z"/></g><path opacity=".2" d="M57.2 8c1-.5 2.2.1 1.7 1.5C58.3 11 56.2 11 55 11c.1 0 .5-1.4.6-1.6.4-.6 1-1 1.6-1.4zm1.1 7.1c.6.5.6 1.4.1 2-.6.7-1.6.7-2.3.6-.3 0-2.2-.2-1.7-.5 0 0-.1 0-.2.1 0 .2-.1.3-.1.5-.4 1.6-1.1 3.2-1.9 4.7l.9-.3c1-.1 3 .7 1.9 2.1-1 1.4-2.6-.1-3.8-.3-1.1 1.8-2.4 3.5-3.7 5.1.1 0 .1.1.2.2.5-.3 1.1-.7 1.5-.8.7-.2 2.1-.3 2.6.4.6.9 0 1.6-.8 1.7-1.1.2-2.6-.4-3.6-.8-.1 0-.3 0-.3-.1H47l-4 4.8c.4-.3.7-.5 1.1-.6 1-.3 2.1-.3 2.8.5.8.8 1 2.1.2 3-1.6 1.7-3.9-2.2-4.7-2.4-1.4 1.6-2.8 3-4.3 4.4.2-.1.3-.1.5-.1 1.5-.2 4.9 1.9 3.1 3.8-1.6 1.7-3.4-1.6-4.6-2.8l-4.2 4c.7-.2 1.5-.3 2.3 0s2.2 1 1.6 2.3c-.5 1.3-2.1.7-3 .3-.5-.2-1.4-1-2.2-1.3-2.2 2.3-4.1 4.9-5.5 7.9-.9 1.9-1.6 3.9-2 6-.3 1.3-.9 3.5-.8 5.3-.6-3.4.5-7.6 1.6-10.7 1-2.8 2.6-5.3 4.4-7.6-.4-1.5-4.2-3.7-2-5.2 1.2-.8 2.4.5 2.7 1.8.2.9-.1 2.1-.4 2.9.6-.7 1.2-1.3 1.8-2 .8-.9 1.7-1.7 2.6-2.6-1.4-1.5-2.8-5.8-.9-6.5 2.8-1 1.5 4.9 1.3 6-.1 0-.1 0-.1-.1 0 .1 0 .2.1.3l5-4.8c-.1-.1-.4-.6-.6-.8-.4-.6-.8-1.1-1.1-1.8-.5-1-.9-2.7.3-3.3 1.3-.7 1.9 1.2 1.9 2.3 0 .8-.2 1.5-.3 2.3 0 .2.1 1.3-.2.8v.4l.9-.9v-.1c0-.3.3-.5.5-.4.4-.4.8-.8 1.1-1.2l2.4-2.7c-.2-.2-.1-.4-.3-.6s-.5-.3-.7-.4c-.5-.4-.9-1-1.1-1.6-.5-1-1.1-3 .3-3.5s2.1 1.5 2.2 2.7c0 .2-.1 2.4-.3 3.2 1.5-1.7 2.9-3.5 4.2-5.4-.4 0-1.5-.9-1.7-1.2-.5-.6-1.4-1.9-.5-2.7.9-.6 1.9.3 2.3 1.2.1.1.3 1.5.3 2.1l1.5-2.4c.3-.5.6-1.1.9-1.6-.1 0-.1-.1-.2-.2-1.4-.3-3.3-2.8-1.6-3.7.8-.4 1.7.4 2.1 1.1.1.1.2.9.3 1.4.8-1.8 1.4-3.7 1.9-5.7-.1 0-.2-.1-.2-.3-.7-.4-1.2-.8-1.7-1.7-.3-.5-.8-1.8 0-2.1 1.2-.4 1.9 1.6 2 2.6v.7h.1a23.76 23.76 0 0 0 .6-3.7c-.6-.2-.7-4-.3-4.5.9-1.2 1.6.5 1.5 1.4-.1 1.1-.5 2-1 2.9-.1.1 0 .1-.1 0 0 .1 0 .1-.1.1.3 1 .3 1.5.3 2-.1 1.4-.2 2.9-.4 4.3-.1.3-.1.7-.2 1 .5-.5 1.2-.9 1.5-1.1.6-.3 1.7-.7 2.4-.1zM23.4 64.7c0 .5.1.9.3 1.2l-.3-1.2z" class="B C D E"/><path d="M132.5 96.3c3.7-.2 8.3 2.3 8.7 6.9.3 3.3.2 6.7.6 10 .4 2.7 1.1 5.2 2.1 7.7 1 2.3 3 4.3 3.6 6.8.3 1.6.1 3.8-.3 5.4-.6 1.9-.3 1.7.9 3.3 2.2 3.1 4.2 6.3 5.6 10 2 5.4 3.4 11.6 2.6 17.5-.1.7-.2 3.4-1.1 3.6-1 .2-.5-1.3-.5-1.8.3-3.1.6-5.9.2-9.1-1.6-12.3-9.3-20.5-14.4-30.9-.3-.5-.9-1.8-1.3-2.7-.6-1.3-1.3-3.9-2.2-4.9-1.6-1.9-.1 1.9.2 2.6.4.9.8 1.9 1.3 2.7l6 11.5c-8.4 2.2-14.4-9.4-16.7-17-1.8-6.4-4-21.1 4.7-21.6" class="B C D F"/><g fill="#89c5cc" class="B C D"><path d="M182.1 84.6c-6.2.6-10.2 5.2-12 11.8-1 3.5-1.1 7.1-1.7 10.8-.8 5.4-2.6 9.6-6.1 13.5-1.1 1.2-1.9 2.4-2.5 3.8-1.1 1.3-2.1 2.8-2.8 4.6-.9 2.3-1.2 5.1-.1 7.4.3.6 1 1.9 1.7 2.4-2.8 6.8-4.3 14.1-4.1 21.5l.5 13.4c.1 1.2.4 3.2.9 1.2.5-1.8-.1-4.7-.2-6.6-.3-9.3-.5-17.8 2.9-26.5.4-.9.7-1.8 1.1-2.7l.1-.1c0-.1.1-.1.1-.2.1-.1.2-.3.3-.5.3-.5.6-1 .6-1.3 2.1-3.9 4.5-7.6 6.9-11.1 0 0 2.6-4.1 2.2-1.8-.2 1.1-2.2 3.2-2.9 4.4-1.7 2.6-3.8 5.9-5.5 9.1-.2.2-.6.9-.8 1.4-.1.3-.3.6-.4.8 6 2.3 10.7-2.3 13.9-7.7 1-1.5 2-2.9 3.2-4.1 2.1-1.9 4.3-2.3 6.8-3.3 6.7-2.6 9.5-12.5 10.4-19.9 1.2-8.4-3.7-21.1-12.5-20.3"/><path d="M169.9 61.3c-6.4 7.6-9.4 18.1-11.9 27.9-2.7 11-4.5 22.2-4.6 33.7 0 7.5-.2 15.1.2 22.6.1 2.7.4 5.3.7 8 0 .2.9 6.1 1.7 4.7.5-.8-.8-6.1-.9-7-.6-5-.7-10-.7-15.1 0-8.3-.2-16.6.6-24.8.1-1.2.2-2.5.5-3.7.3-1.3-.1-.7.8-1.2s1.9-.4 2.8-1c3.5-2.5 5.4-8.8 6.8-12.9 1.6-4.7 2.6-9.8 3.4-14.8.6-3.7 1-7.3 1.2-11 .1-1.2.1-2.4.3-3.5.1-.3.3-.9.3-1.1 0-.6-.3-.9-.4-1.4-.3.1-.5.3-.8.6m-34.6 100.8c0 12.5 8.9 22.6 19.8 22.6s19.8-10.1 19.8-22.6"/></g><path d="M156.7 162.2h-1l.4-4.5c.8-5.7 3.5-14 9.2-14.9h1.9c.4-.3 1-.5 1.5-.5 4.9-.4 10.4 4.1 12.7 8.8 1.9 3.8 1.6 8.8.4 12.8-.8 2.7-2.5 6.5-5.4 6.6-3.6 0-3.8-5-3.8-8-.1-3.9-.5-7.4-3.2-10.1-.6-.6-1.3-1.2-2-1.8-1-1-2.1-2-2.2-3.6-.2-2.2.9-2.6 2.6-2.2.3.1 3.1 1.5 2.7.4-.1-.4-.6-.6-1.2-.8-1.5-.2-3.4-.4-3.9-.3-5.7 1.4-7.9 10.5-8.5 16.2-.1.6-.2 1.3-.2 1.9zM48.5 54.9c1.1-1.9 3.3-6.6 4.9-7.2 1-.4.7 4 .7 4.8a77.73 77.73 0 0 1-.6 9.7c-.6 5.8-2.6 11-5.4 16-1.4 2.6-3.1 5.1-5.4 6.7-1.1.7-2.4.9-3.4 1.5-1.2.7-.6.1-1.1 1.6-.8 2-1 4.7-1.4 6.8-1.6 9.9-5.6 62.5-4.9 72.7.1.9-1 1.1-1.1 0-.3-5.8 2.2-46 3.5-59.2 1.3-13.1 2.5-24.8 3.8-29.3 1.6-5.5 4.4-12.2 6.7-17.3 1.1-2.3 2.3-4.6 3.7-6.8z" class="F B C D"/><path d="M56.9 119.4c3-2.5 6.2 2.2 3.5 4.7-1.5 1.4-3 .9-3.9-.3l-1.6 2.3c-1.6 2.1-3 4.3-4.4 6.5-2.9 4.6-5.4 9.5-8 14.3a325.77 325.77 0 0 0-7.5 14.4c-2 4.1-4.6 9-5.3 13.5 1-9.6 4.9-18.8 9.6-27.2 4.6-8.4 9.9-17.5 17-24.1-.7-1.2-.7-3 .6-4.1z" class="B C D E"/><path d="M.6 96c1.7.4 4.4 4.7 5.7 6.3 1.6 1.9 3.1 4 4.5 6.2 3 4.7 5.7 9.6 8 14.8 3.7 8.4 6.7 17.1 8.8 26.3 1.3 5.6 2.2 11.5 2.7 17.3.1 1.1 1.1 9.5-.3 9.8-1.3.2-.9-6.4-1-7.3-.7-10.1-2.8-20-5.8-29.6-.6-2.1-1.2-4.6-2.3-6.5-.7-1.3 0-.9-1.3-1.4-1.1-.4-2.4-.3-3.5-.9-2.5-1.2-4.5-3.4-6.2-5.7-3.4-4.4-6.1-9.2-7.5-14.9-.8-3.1-1.5-6.3-1.9-9.5 0-.8-.9-5.1.1-4.9z" class="B C D F"/><path d="M7.2 24.6c6.3 12.4 11.4 26 14.7 39.8 2 8.4 3.4 16.9 4.8 25.5 2.2 13.2 4.2 26.4 4.8 39.8.6 13.5 1.7 29.1-2.1 42.1 1.9-13.2.1-27.3-.2-40.5a299.55 299.55 0 0 0-1.2-18.9c-.6-6.1-1.5-12.2-2.4-18.3l-1.3-8.9c-.1-.9-.2-3.5-.7-4.1s-3-.9-3.8-1.3c-1.6-.9-3.1-2.2-4.4-3.5-2.5-2.6-4.7-5.9-6.5-9.2-4-7.7-5.6-17-5.5-25.9 0-1.7 2.4-20.3 1.5-20.5 0-.2.1-.3.1-.4.8 1.4 1.5 2.8 2.2 4.3zm67.5 44.7c.1-.2.7-1.3.4-1.2.6-.1-.9 1.2.7.4-.8.8-.3 1.9-.3 3 0 1.8-.2 3.6-.5 5.3-.5 2.8-1.2 5.5-2.2 8.1-2.2 5.6-5.9 11.1-10.4 14.6-2.2 1.7-4.3 2.3-6.8 3.1-1.6.5-1.7 1.4-2.5 3.2-1.7 3.7-3.5 7.3-5 11.1l-5.3 13.6C37 146 32.4 162 30 178.6c-.1-9.8 1.9-19.8 4.4-29.1 1.8-6.8 4.2-13.3 6.7-19.8.6-1.6 1.5-3.6 1.8-5.3.2-1.2-.4-2.4-.6-3.7-1-5-.9-10.6 0-15.6 1-5.5 3.7-8.1 8.4-8.9 1.7-.3 3.9-.2 5.5-1 1.7-.9 2.4-3.9 3.4-5.8 2.6-5.2 5.7-10.1 9.3-14.5 1-1.2 2.1-2.3 3.2-3.3.6-.7 2.1-1.5 2.6-2.3z" fill="#89c5cc" class="B C D"/><path d="M22 168h16.7c.7 0 1.4.7 1.4 1.6v.2l-1.3 10c-.4 3-2.7 5.3-5.4 5.3h-6c-2.7 0-5-2.3-5.4-5.3l-1.3-10c-.1-.8.4-1.6 1.1-1.8h.2z" class="B C D E"/><path d="M7 173.1c0 6.6.5 12 6.6 12s6.6-5.4 6.6-12m-4.8-4.1c-.2.4-.4.9-.6 1.4 0-.9 0-1.9.2-2.9l.8-4.9c.2-1.2.2-3.3 1-4.2.2-.2.3.2.3.4 0 0 0-.7-.2-.6-1.3.8-1.7 3.2-2.2 4.5-.6 1.8-1.1 3.6-1.4 5.5-.1.5-.1.9-.1 1.4 0-.1-.1-.3-.1-.4-.8-2-1.8-4-3.1-5.9-.3-.5-4.3-4.9-4.6-4.2 0 .1.1.2.2.2.2.4.9 1.1 1.1 1.5l1.3 2.9 3.1 7.8c-2-3.3-4.6-6.3-8.3-8 1.2.7 2.1 2.1 2.9 3.1 1 1.3 2.1 2.5 3.1 3.8 1.2 1.5 2.6 3.1 3.8 4.7 1.1 2.7 2.2 5.4 2.9 8.2-.3-1 0-2.3-.1-3.4 0-.8-.1-1.6-.2-2.4.1.4.3.7.3 1.1-.1-.6-.1-1.1-.2-1.7.2-.5.3-1 .4-1.4a33.85 33.85 0 0 1 2.1-6.1c.8-1.8 1.8-3.7 2.8-5.4.5-.8 1-1.6 1.4-2.5.3-.5.6-1.4 1-1.9-2.7 2.9-5.8 5.9-7.6 9.4M186.7 34.2c-.8-3.1-2.7-5.5-4.7-7.7-3.8-4.3-5.9-7-7.3-13.3-.8-3.7-1.6-7.6-4.2-10.3-1.9-2-5.1-3.6-7.5-2.2-3.8 2.6-4.9 8-4.5 12.8.5 5.9 2.9 9.6 7.6 11.8 2.6 1.2 4.4 2.9 5.8 5.7 1.1 2.3 1.8 5.1 3.2 7.2 2.1 3.1 4.8 4.4 8.1 3.9-3.1-6.5-6.7-13.1-11.1-18.6-.4-.6-2.8-2.7-2.3-3.6.5-1 3 2.9 3 2.8 1.3 1.7 2.4 3.4 3.6 5.2s2.4 3.7 3.5 5.6c.5.8.9 1.6 1.4 2.4.6 1.2 1.7 4.7 2.7 5.4.2.2.4.2.6.3l2.1 4c1.7 3.6 3.2 7.3 3.9 11.3.2 1.2.1 5.6.8 6.4 1.3 1.5.9-1.4.8-2.3-.6-7.5-3-13.8-6.4-20.1 1.1-1.5 1.2-5.4.9-6.7m-43.8 3.6c1.3-1.8 4.6-2.1 6.6-2 2.5.2 5 .8 7.3 1.7 3.8 1.4 7.6 3.8 11 6.2.4.3 5.4 3.7 5 4.4-.4.6-5.4-3.5-6.5-4.2-2.3-1.5-4.5-3.3-7.1-4.3-2.7-1-5.5-1.4-8.3-1.4-.4 0-1.5-.3-1.6.3 0 .6 1.9.3 2.3.3 1.4 0 2.9.2 4.3.5 2.6.5 5.1 1.6 7.3 3.2-.6 1.7-2.1 2.4-3.7 2-1.4-.4-2.7-1.3-4-1.5-.9-.2-1.8-.1-2.7.2-2.4.8-3.7 2.4-6.3 1.3-2.2-.9-5.5-4.1-3.6-6.7m1.5-17.2h.6c0-.9-.1-1.9-.2-2.8-.5-3.4-2.1-8.5-5.6-9H138c-.3-.2-.6-.3-.9-.3-3-.3-6.3 2.5-7.8 5.3-1.2 2.3-1 5.3-.2 7.7.5 1.6 1.5 4 3.3 4 2.2 0 2.3-3 2.3-4.8.1-2.4.3-4.5 2-6.1.4-.4.8-.7 1.2-1.1.6-.6 1.3-1.2 1.4-2.1.1-1.3-.6-1.6-1.6-1.3-.2 0-1.9.9-1.7.2.1-.2.4-.4.7-.5.9-.1 2.1-.3 2.4-.2 3.5.9 4.8 6.3 5.2 9.8.1.4.1.8.1 1.2z" fill="#f2f2f2" class="B C D"/><path d="M107.2 28.8c1.9-1.1 3.4-2.6 3.7-4.6.9-5.9-9.3-7.1-11.9-4.6-2.6 2.4-4.2 9.8-1.9 11 .9.5 3.2.5 5.6 0L99.4 38l8 2-.2-11.2z" class="G"/><path fill="#191847" d="M107.5 30.2c1.9-3.3 5.3-5.1 5.3-6.8 0-1.1-.6-2-1.8-2.6-.1-2.3-2-3.7-5.6-4.3-5.4-.8-9.1.1-8.7 4.4 1.3.3 2.9.3 4.9 1.5.6.4 1 1.1 1 2.3l1 .2c1.3-1 2.3-1.3 3.1-.7s.8 1.4 0 2.6l-.3 3.1 1.1.3z"/><path fill="#c5cfd6" d="M121.3 78.9l-38.2-9.5c-2.9-.7-5.8.6-6.4 3L70.6 97c-.6 2.4 1.3 4.9 4.2 5.6l38.2 9.5c2.9.7 5.8-.6 6.4-3l6.1-24.7c.6-2.3-1.3-4.8-4.2-5.5zm-7.2 6.2c.7.2 1.2.8 1.1 1.4l-4 16.1c-.1.6-.9.9-1.6.7L82 96.4c-.7-.2-1.2-.8-1.1-1.4l4-16.1c.1-.6.9-.9 1.6-.7l27.6 6.9z"/><path fill="#b28b67" d="M37 91.8c8.1-4.8 13.8-8.5 16.9-11.1 5.3-4.4 9.7-8.3 11.2-9.9 3.5-3.7-4-7.7-6.4-6.2-3.6 2.4-11.8 10.6-24.9 24.5l3.2 2.7z"/><path fill="#2f3676" d="M50.9 93.2l18.3-21.7c3.7-3.9-8.1-10-10.5-8.3-5.5 3.7-20.5 19.9-22.2 21l14.4 9z"/><path d="M84.5 96.3c-1.7-3.4-8-14.9-11.7-20l-3.1-4.2c-3-3.9-11.6-.7-8.6 2.9 7.5 9 18.7 21.5 19.6 22.6 1.3 1.6 4.9.9 3.8-1.3z" class="G"/><path d="M84.3 94.9c.7.7 1.1 1.3 1.3 1.7.2.5.4 1.2.6 2.2-.7.1-6.7 1.3-18.1 3.5-1-1.2-1-2 0-2.3s1.8-.6 2.4-.8l7.1-4.8c.1-.1.4-.1.5.1l1 1c1.1.2 1.9.2 2.5.1.5-.1 1.1-.4 1.8-.9h0c.2-.1.6 0 .9.2zM40 91.5c.2.9.2 1.5.1 1.9-.1.5-.4 1.2-.8 2-.7-.2-6.9-1.7-18.7-4.7-.2-1.4.3-2.1 1.4-1.9s2 .3 2.7.4l9.5-1c.2 0 .4.1.4.2l.3 1.2c.9.6 1.6 1 2.2 1.1.5.1 1.2.1 2.2 0h0c.3.3.6.5.7.8z" fill="#e4e4e4"/><path fill="#5c63ab" d="M73.3 73.8l21 2.3c10.1 1 14.1-2.5 14.7-12.2l-18-4.5c-2.5 0-13.4.9-32.5 2.9-3.5.5-3.8 4.4-3.5 5.7 0 .1 3.5 8.8 10.5 26.1L82 90.3l-9-15.6c-.2-.6-.1-.9.3-.9z"/><path d="M77.2 52.3l-12.1 3.6c-3-.1-5.6.1-7.8.5-.5.2-1.3.8.7 1.1 1.9.4 3.9.8 4.1 1.4.1.6-1.2.9-.8 1.8.2.6 2.2-.2 5.8-2.3l11.4-.9-1.3-5.2zm40.6 10.3l-6.9-1.7 2.5 19.5c.4 1.7-1.8 3.7-2.8 4.8 2.1 1.4 2.6-1.7 5.2.1 2.4 1.6 3.9 3.9 7.3 3.1.4-.1 1-.7.2-1.5-2.1-2-5-5.2-5.3-6.1-.5-1.2-.5-7.3-.2-18.2z" class="G"/><path fill="#e87613" d="M104 34.2l-2.8-1.1c-12.5 4.8-20.4 18-35.4 22.3l2.4 3.9c23.2 3.4 33.2-12.6 35.8-25.1z"/><path fill="#dde3e9" d="M109.2 66.5l-25.4-6.3c-1.2-.3-.6-1.6-.3-2.2 3.9-7.4 13.6-14 16.4-25.3l7.6.9c4.1 9.3 3.8 19.6 1.7 32.9z"/><path fill="#ff9b21" d="M114.7 43.6c1.1 0 2.1-.4 3-1.1 3.6-3.2 3.2-5.6.5-7s-5.6-.6-10.2-1.7c-.2-.1-.5-.1-.7-.1l-2.3-.5C94 49.5 89.2 61 90.6 67.8l20 5c.6 2.5 1.3 4.7 2 6.5l5.4 1.4c3.9-13.4 2.8-25.7-3.3-37.1z"/><path fill-opacity=".1" d="M108.5 62.4c-1.7 4.1-3.5 6.9-5.4 8.5l7.4 1.8-2-10.3z"/></svg>