<svg xmlns="http://www.w3.org/2000/svg" xmlns:xlink="http://www.w3.org/1999/xlink" width="240" height="175" viewBox="-0.4 0 240 175"><style><![CDATA[.B{fill:#6077f1}.C{fill:#f2f2f2}.D{fill:#c5cfd6}.E{fill:#dde3e9}.F{fill:#d5dcff}.G{fill-opacity:.1}.H{fill:#89c5cc}.I{fill:#afb9c5}.J{fill:#0c1498}.K{fill:#233fe3}.L{fill:#1c0960}]]></style><ellipse cx="154.2" cy="32.2" rx="18.5" ry="19.3" class="C"/><ellipse cx="154.2" cy="16.9" rx="1" ry="1.1" class="G"/><ellipse cx="139.5" cy="32.2" rx="1" ry="1.1" class="G"/><ellipse cx="168.8" cy="32.2" rx="1" ry="1.1" class="G"/><ellipse cx="154.2" cy="47.4" rx="1" ry="1.1" class="G"/><path d="M154.2 19.1l.7 12.7h-1.4zm6.1 19.5l-6.4-5.6 1-1.1z" class="I"/><ellipse cx="154.2" cy="32.2" rx="1.4" ry="1.5" class="D"/><path d="M169.1 104.6C166.7 76.6 37.9 22.5 14 49.1c-23.9 26.5-.9 76.3 49.2 89 50.1 12.8 108.3-5.5 105.9-33.5z" class="C"/><path d="M89.5 122.8C91.7 99 207 53.1 228.5 75.6c21.4 22.5 16 69.9-28.9 80.8-44.9 10.8-112.2-9.8-110.1-33.6z" class="E"/><ellipse cx="20.4" cy="68" rx="14.8" ry="8.2" class="C"/><g class="E"><path d="M37.6 73.7c0-10-7.7-18.2-17.2-18.2S3.2 63.6 3.2 73.7"/><path d="M19.5 0h1.7v58.2h-1.7z"/></g><ellipse cx="47.3" cy="51.2" rx="11.1" ry="6.6" class="C"/><g class="E"><path d="M60.2,55.7c0-8.1-5.8-14.7-12.9-14.7s-12.9,6.6-12.9,14.7"/><path d="M46.7 0h1.7v49.4h-1.7z"/></g><path fill="none" stroke="#cbcbcb" stroke-width="8" d="M197.8 38.4l6.5-6.8c1.1-1.1 2.9-1.1 3.9 0l17.2 18c1 1.1 1.6 2.6 1.6 4.1v119.1"/><path d="M217.6 172.4H236c.6 0 1 .5 1 1.1v.4c0 .6-.5 1.1-1 1.1h-18.5c-.6 0-1-.5-1-1.1v-.4c.1-.6.5-1.1 1.1-1.1z" class="I"/><path d="M201.6 34.4h0c4.5 4.7 4.5 12.3 0 17l-6.9 7.2-16.2-17 6.9-7.2c4.5-4.7 11.8-4.7 16.2 0z" class="D"/><path d="M188.5 48.2c4.5 4.7 7.4 9.2 6.5 10.2-.9.9-5.2-2.1-9.7-6.8s-7.4-9.2-6.5-10.2 5.2 2.2 9.7 6.8z" class="C"/><path d="M16.5 88.5c1-.1 2.1-.1 3 .3 2 .9 2.5 3.3 2.5 5.3 0 2.1-.5 4.5 1.1 6.2.7.8 1.6 1.4 2.3 2.2.7.9 1.3 1.8 1.8 2.9.8 1.9 1.2 4.2.5 6.2-.6 1.8-2.3 3.4-1.9 5.4.4 2.1 2.4 3.7 3.7 5.3 1.4 1.8 2.8 4.1 3 6.4.2 2.2-.7 4.5-2.2 6.2-2.9 3.4-7.2 5.1-11.5 5-1.8 0-3.9-.1-5.5-1.1-.5-.3-.8-.7-1-1.2-.3-.4-.6-.7-1-1.1-.9-.7-1.5-1.6-1.9-2.7-1.6-4.1-.3-9.1 1.9-12.8.5-.9 1-1.7.7-2.7-.3-1.1-.9-2-1.5-3-.6-.9-1.2-1.8-1.7-2.8s-.6-2.1-.5-3.2c.2-2.1 1-4.1 2.3-5.8 1.2-1.6 2.6-3.2 2.6-5.4 0-2.3-1.5-4.3-.8-6.6.3-1 .8-1.9 1.6-2.5.5-.2 1.5-.4 2.5-.5z" class="E"/><path d="M15.8 92.2c0-.3.4-.5.6-.4.4.1.4.5.3.8a12.65 12.65 0 0 0 .3 2.8c.5 1.9 1.3 3.7 2 5.6s1 3.8.6 5.7l-1.3 5.5c-.3 1.6-.7 3.4-.2 5s1.6 2.9 2.4 4.3c1.6 2.9 2.3 6.2 2.4 9.6 0 1.6 0 3.1-.3 4.7-.2.9-.5 2.1-1.2 2.7-.3.3-.9.4-1.2 0s0-1 .1-1.4c.4-1.8.4-3.6.3-5.5-.1-1.8-.3-3.5-.8-5.2a15.63 15.63 0 0 0-2.1-4.3c-.9-1.4-1.8-2.8-2.2-4.5s-.1-3.4.3-5c.4-1.7 1-3.4 1.6-5.1s.8-3.2.5-4.9c-.6-3.7-2.3-6.9-2.1-10.4z" class="D"/><path d="M42.8 92.7c1.2.4 2.5 1 3.3 2 1.9 2.1 1.3 5.3.3 7.6-1.1 2.5-2.8 5-1.8 7.9.4 1.3 1.2 2.5 1.6 3.8.4 1.4.6 2.9.6 4.4 0 2.7-.7 5.6-2.6 7.6-1.7 1.8-4.4 2.8-5 5.4-.6 2.7.9 5.7 1.6 8.3.8 2.9 1.2 6.3.3 9.2-.9 2.8-3.1 4.9-5.7 6.2-5.1 2.5-11 2.1-16.1-.3-2.2-1-4.6-2.2-5.9-4.3-.4-.6-.5-1.2-.6-2-.1-.7-.3-1.2-.7-1.8-.7-1.3-1-2.8-.9-4.2.2-5.7 4.3-11 8.7-14.1 1-.7 2-1.5 2.2-2.8.2-1.4 0-2.9-.3-4.3-.2-1.4-.5-2.8-.6-4.2 0-1.5.4-2.8 1-4.1 1.3-2.4 3.3-4.2 5.6-5.6 2.2-1.3 4.7-2.4 5.8-4.9 1.2-2.7.5-5.9 2.4-8.3.8-1 1.9-1.9 3.2-2.1 1.1-.2 2.4.2 3.6.6z" class="E"/><g class="D"><path d="M40.3 97.1c.2-.4.7-.4 1-.1.4.3.2.7 0 1.1-.5 1.1-.8 2.3-1 3.5-.4 2.5-.3 5.1-.5 7.7-.1 2.6-.7 5-2.2 7.1l-4.3 5.8c-1.2 1.8-2.5 3.6-2.7 5.8-.2 2.1.4 4.2.6 6.4.4 4.4-.4 8.6-1.9 12.7-.7 1.9-1.6 3.7-2.7 5.3-.7.9-1.6 2.2-2.7 2.5-.5.1-1.2 0-1.4-.7-.1-.6.5-1.2.8-1.6 1.3-1.9 2.3-4.1 3.1-6.3.8-2.1 1.4-4.3 1.7-6.6.2-2.1 0-4.2-.3-6.3-.4-2.1-.7-4.3-.4-6.5.4-2.2 1.6-4.1 2.9-5.8 1.4-1.8 2.9-3.5 4.4-5.2 1.5-1.6 2.5-3.4 3-5.6.9-4.4.5-9.1 2.6-13.2z"/><path d="M4.6 108.8c2.1 0 3.9 1.1 5.1 2.7 1.5 1.9 1.7 4.2 2.3 6.4.3 1.1.8 2.2 1.7 3 .8.7 1.8.8 2.8 1.2 1.9.7 3.5 2.3 4.1 4.3.8 2.4 0 4.9.1 7.3.1 2.3 2.3 3.7 4 4.7 1.7 1.1 3.2 2.1 3.7 4.1.5 2.2.7 4.7 0 6.8-1.2 3.6-4.9 5.2-8.4 5.5-3.2.2-7.2-.1-9.6-2.5-1.4-1.4-2-3.5-1.9-5.5 0-1.3.3-2.5.6-3.7.2-.9.5-1.7.6-2.6.2-2.4-1.9-2.8-3.6-3.5-2.3-.8-3.8-2.4-4.9-4.5-1-2-1.5-4.3-.8-6.5.3-1.1.9-2.2 1.7-3 .3-.4.8-.7 1.1-1.1s.2-.9.1-1.3c-.5-2-1.9-3.7-2.4-5.8-.5-1.8-.2-4.1 1.4-5.3.6-.5 1.5-.7 2.3-.7z"/></g><path d="M7.4 114.1c2.2 2.4 2.8 5.7 2.9 8.9.1 1.8 0 3.7.5 5.4.4 1.5 1.4 2.6 2.5 3.7 2.1 2.2 4.4 4.3 5 7.5.4 1.8.1 3.7.6 5.5.5 1.6 1.2 3.3 2.2 4.6.8 1.1 1.8 2 2.6 3 .3.3.6.8.5 1.2-.1.5-.8.7-1.2.6-1.1-.2-2-1.3-2.6-2-1-1.1-1.9-2.3-2.6-3.7-.8-1.5-1.4-3.1-1.7-4.8-.3-1.8-.1-3.6-.8-5.3-1.1-2.8-3.7-4.5-5.5-6.7-2.3-2.8-2-6.2-1.7-9.6.1-1.9.3-4-.6-5.7-.3-.6-1.1-1.3-1.3-2-.1-.5.7-1.2 1.2-.6z" class="I"/><path d="M9.7 153.9c0 13.8 2.2 21.1 13.6 21.1s13.6-7.2 13.6-21.1H9.7z" class="H"/><path fill="#c1dee2" d="M187.1 72.5c3.1 7.6 8.3 12.9 11.1 20.9 1.6 4.7 2.3 9.8 2.4 15.1v8.5a115.08 115.08 0 0 1-.3 8.3c-.2 2.8-.5 5.5-.6 8.3-.1 2.2-.1 4.7-.8 6.7-.6 1.6-2 1.8-2.4-.1-.2-1.1-.2-2.3-.2-3.3 0-1.4.1-2.8.1-4.2.2-5.6 0-11.2.1-16.9.1-5.5.8-11 0-16.4-.6-4.5-2.2-8.4-4-12.1-1.7-3.6-3.6-7.1-4.8-11.1-.3-1.2-.6-2.4-.7-3.6 0-.1.1-.1.1-.1z"/><path d="M186.3 87.6c.6.5.9 1.1 1.4 1.8l1.6 2.4c1.1 1.7 2 3.5 3 5.3 1.8 3.4 3.3 7 3.9 10.9.7 4.1.9 8.3 1.2 12.4.3 4.4.6 8.8.7 13.2 0 2 .1 4.1-.1 6-.1 1.2-.7 2.3-1.9 2.2-2.5 0-3.7-2.9-4.2-5.3-.7-3.5-.9-7.3-.8-10.9.1-4.3.9-8.6 1.2-12.9.3-4.6.1-9.1-1.4-13.4l-2.4-6.5c-.3-.9-.6-1.9-1.1-2.7-.5-1-1.1-1.8-1.5-2.8a1.38 1.38 0 0 0 .4.3z" class="H"/><path d="M215.3 78.5c.1-.1.2-.1.2-.2-.2 1-.6 1.8-.9 2.7-.3.8-.4 1.7-.6 2.6l-1.4 6.2c-.8 4.1-.7 8.6-.1 13.1.5 4.3 1.3 8.6 1.7 12.9.3 3.6.5 7.3.2 10.7-.2 2.3-.9 5.1-2.7 4.9-.9-.1-1.3-1.2-1.5-2.4-.3-2-.4-4-.5-6-.3-4.4-.3-8.7-.4-13 0-4.1-.2-8.2.1-12.2.3-3.8 1-7.3 2.2-10.5l1.8-5c.3-.8.7-1.4 1-2.2.3-.6.5-1.2.9-1.6zM187 100.2c.3-.6 1.1 1.3 1.2 1.6 0-.1-.1-.2-.1-.4.7 1.1 1.3 2.3 1.6 3.7l1 3.9 2.1 7.3c.6 2.4.7 4.8.6 7.3l-.1 7.8c.1 1.2.5 2.4.7 3.6l.8 3.6c.1-.2.1.4.1.4 0 .3 0 .5-.1.8-.2.7-.7 1.3-1.3 1.5-1.2.4-2.3-.8-2.7-2-.6-1.7-.9-3.6-1.1-5.5-.2-1.7-.3-3.3-.2-5 .1-3.3.7-6.6.9-10 .2-3.6-.5-7-1.1-10.6-.3-1.7-.5-3.4-1.1-5-.2-.7-.5-1.2-.8-1.8-.2-.2-.6-.8-.4-1.2z" fill="#c1dee2"/><path fill="#69a1ac" d="M196.8 94.5a126.92 126.92 0 0 1-.9 12.4c-.5 4.2-1.2 8.4-1.7 12.6-.5 4.1-1 8.3-1 12.4.1 3.1-.4 8.2 2.8 9.7 3.3 1.5 4-5 4.2-7.1.4-4.1.3-8.3.1-12.5-.2-4.3-.6-8.5-1-12.8-.5-4.7-.8-9.5-1.1-14.2-.1-2.3-.2-4.7-.1-7 0-2.2 0-4.4-.8-6.5l-.1.1"/><path d="M213.8 107.7l-1.7 2.7c-1 1.7-1.9 3.6-2.2 6-.6 5.1-.1 10.6 0 15.9 0 1.1-.1 2.1.3 3.1.4.9 1.1 1.6 1.7 1.6 1.4 0 1.2-3.6 1.2-5.2 0-2.8-.3-5.6-.3-8.3s.2-5.5.6-8.1.9-5.2 1.7-7.5c.1-.3.8-2.9.1-2.4" class="H"/><path fill="#69a1ac" d="M207.6 80.5c-.9 0-.9 4.8-.9 5.4l-.1 6.7c-.1 4.9-.3 9.8-1 14.6l-1.3 7.7c-.5 2.6-1.1 5.1-1.4 7.8-.3 2.5-.1 5.1-.1 7.6s.1 5.1.4 7.6l.3 1.9c.1.5 0 1.2.2 1.6.2.8 1.2 1 1.8.9 1.7-.3 2.8-2.6 3.4-4.3.8-2.1 1.2-4.4 1.6-6.7.5-2.5.7-5.1.8-7.7.3-5.3-.1-10.5-.4-15.7-.2-2.9-.4-5.8-.8-8.7l-1.1-8.6-.6-6.3c-.1-.6-.1-3.8-.8-3.8"/><path d="M206.4 115.4c-.2-5-2.1-27.2-2.5-33.3-.1-1.5-1.2-7.9-1.3-9.6-.4.5-.3 8.1-.3 9.9 0 1.7-.2 3.4-.3 5.2s-2.6 24.5-2.9 26.1c-.6 3.4-1.1 6.8-1.4 10.2-.3 3.3-.8 6.9-.4 10.2.1.8.3 1.5.5 2.2.3.8.5 1.5.7 2.3.4 1.3 1 2.4 2 3 2 1.1 3.1-1.4 3.7-3.5.9-3.5 1.5-7 1.7-10.6.2-4 .7-8.1.5-12.1" class="H"/><path fill="#fff" d="M185.6 130.3h30.3a.68.68 0 0 1 .7.7v31.6a.68.68 0 0 1-.7.7h-30.3a.68.68 0 0 1-.7-.7V131a.68.68 0 0 1 .7-.7z"/><g class="D"><use xlink:href="#B"/><use xlink:href="#B" x="17.4"/><path d="M217.2 133.9h2.1a.68.68 0 0 1 .7.7v39.6a.68.68 0 0 1-.7.7h-2.1a.68.68 0 0 1-.7-.7v-39.6c.1-.4.4-.7.7-.7z"/></g><path fill="#b9c8fc" d="M176.4 121.3c-1.2-.5-2.5-.7-3.9-.7-3.7-.1-8.2 2.4-10.4 9s-3 15.8-3 15.8H67.3s-.7-9.2-3-15.8c-2.2-6.6-6.7-9-10.4-9-1.8 0-3.6.2-5 1.3h0c1.6-1.8 3.7-6.2 24.2-6.2h83.3c3.3.2 12.5.9 20 5.6z"/><path d="M174.6 133.7c-2.8 0-5.5 1.1-5.5 3.8l.1 28.7H57.6l-.2-28.7c0-2.7-2.8-3.8-5.5-3.8-2.8 0-5-.4-4.9-6.3 0-2.8.8-4.4 2-5.4 1.3-1.1 3.2-1.3 5-1.3 3.7-.1 8.2 2.4 10.4 9s3 15.8 3 15.8h91.9s.7-9.2 3-15.8c2.2-6.6 6.7-9 10.4-9 1.4 0 2.7.1 3.9.7.4.3.9.6 1.3.9 1 1 1.7 2.6 1.7 5.2 0 5.8-2.3 6.1-5 6.2z" class="F"/><path fill="#c2d2ff" d="M67.3 145.4l11.6-10.3 71.3.3 9 10z"/><path d="M60.1 166.1l.9 8.9h1.8l.9-8.9z" class="B"/><path fill="#c3cfd8" d="M176.4 121.3l1.3.9c-.3-.4-.8-.7-1.3-.9z"/><g class="B"><path d="M166.3 166.1l-.8 8.9h-1.8l-.9-8.9zm-7.2-9.3v9.3h-.3v-20.7h.3v11.4z"/><path d="M158.9 156.9H67.6c-.1 0-.1-.1-.1-.2s.1-.2.1-.2H159c.1 0 .2.1.2.2-.1.1-.2.2-.3.2z"/><path d="M112.4 145.4v11.3c0 .1-.1.2-.2.2s-.1-.1-.1-.2v-11.3h.3zm44.1-29.6c-1.3 1.2-3.4 4.1-3.4 8.5v15c0 .1-.1.2-.1.2-.1 0-.1-.1-.1-.2v-15c0-4.3 1.9-7.2 3.3-8.6 0 0 .2 0 .3.1zm-89.1 29.6h.3v20.7h-.3z"/></g><path fill="#fcc2c2" d="M54.4 111.6s4.2 3.4 6.2 7.4c2 3.9 2.8 8.1 2.8 8.1s6.5-6.3 10.6-7.3c0 0-5-14.3-6.2-16.4 0 0-4.5 1.5-7.6 3.7s-5.8 4.5-5.8 4.5z"/><path fill="#faaeb0" d="M54.4 111.6s.2 5 2.8 9.3c2.6 4.4 6.3 6.2 6.3 6.2s-.8-4.9-3.2-9.4c-2.3-4.5-5.9-6.1-5.9-6.1z"/><path d="M153.6 133l-1.1 2.7-.1.3v.1s-2.9 1.3-6.7 2.5l-.8.3c-3.5 1.1-7.7 2.2-10.9 2.3-7 .1-9.2-3-9.4-3-.1 0-4.3 1.9-8.8 3.5-4.5 1.7-11.9 3.6-18.2 3.8s-8.2-1.6-8.2-1.6.9-5.6 1.6-7.4c.6-1.8 1-4.7 1-4.7s8.3-2.1 14.5-2.3c5.2-.1 13.1-.5 16.1-.6h1.1c.9 0 12.6 3.4 18.7 4.1 6 .6 11.2 0 11.2 0z" class="J"/><path d="M98.8 136.4s-.9 2-3.7 4.4-6.1 4.3-9.8 4.9c-2.6.4-5.3.4-8.4-.9-3.1-1.2-9.9-6.3-11.8-9.5-1.9-3.3-2.1-6.7-.7-8.5.6-.8 1.7-1.7 2.9-2.5a9.13 9.13 0 0 1 1.3-.8c.1-.1.2-.1.3-.2.7-.4 1.3-.8 1.8-1 1.5 0 3.5-.2 4-2.3v-.4s0-.2.1-.5c.2-.9.7-3 1.2-4.7.6-2.2.7-3.6.7-3.6-1.3-.5-4.6-.7-5.8-.7-.7-1.2-1.3-2.3-1.6-2.5-.1-.1-.1-.1-.2-.1.2-.1.3-.4.3-.8 0-.3-.1-.5-.2-.8 3.7-1.1 9.3-1.7 10.4-.7s1.7 4.2 1.8 9.4c.1 4.7-1.1 7.6-1.3 8.1v.1l.1.1c1 1.2 5.6 5.3 7.4 6.7s4.3 2.5 4.3 2.5 0 .9-.3 2.3-.6 1.9-.6 1.9c1.6-.9 4.5-2.4 4.5-2.4l3.3 2.5z" class="K"/><path fill="#0c35ba" d="M73.2 123c-2.3.7-4.6 1.1-5.8 1.3a9.13 9.13 0 0 1 1.3-.8c.1-.1.2-.1.3-.2l1.8-1c1.5 0 3.5-.2 4-2.3v-.4s0-.2.1-.5c.4.6 1.1 3-1.7 3.9z"/><path d="M69.8 122.1c-.2.3-.8 1.2-2.1 1.4-1.6.3-3-2.1-4.3-3.2-1.3-1.2-3.3-3.7-3.6-6.8-.3-2.6.3-4.1 1.1-5.2.4-.6.9-1 1.2-1.3 1.1-1 4.3-3.4 5.9-2.8.7.3 1.2.8 1.4 1.4.2.5.2 1 .1 1.3-.1.1-.1.2-.2.3h-.1c-.6.2-1.5 1.3-2.7 1.9-1.5.7-3.4 1.4-3 4.2.4 2.7 2 4.1 2.1 4.2-.1-.1-1-.5-1.1.8s2.2 2.6 2.9 1.9c-.1 0 1 1.6 2.4 1.9z" class="L"/><path fill="#120551" d="M69.8 122.1c-.2.3-.8 1.2-2.1 1.4-1.6.3-3-2.1-4.3-3.2-1.3-1.2-3.3-3.7-3.6-6.8-.3-2.6.3-4.1 1.1-5.2.4.8 1.1 2 2.3 2.3 0 0 .4-1.4 1.7-1.5 1.3-.2 2-.9 2.8-2 .7-1 1.5-.8 1.9-.1-.1.1-.1.2-.2.3h-.1c-.6.2-1.5 1.3-2.7 1.9-1.5.7-3.4 1.4-3 4.2.4 2.7 2 4.1 2.1 4.2-.1-.1-1-.5-1.1.8s2.2 2.6 2.9 1.9c-.2-.1.9 1.5 2.3 1.8z"/><path fill="#f3b6ab" d="M74.9 118.7v.8c-.2 1.5-1.1 2.2-2.2 2.5-.7.2-1.4.2-2 .2h-.4c-.2 0-.3 0-.5-.1-1.4-.4-2.5-1.9-2.5-1.9-.7.7-3.1-.5-2.9-1.9.1-1.2 1-.8 1.1-.8-.1-.1-1.7-1.5-2.1-4.2a4.42 4.42 0 0 1 .1-1.7h0c.5-1.4 1.8-2 2.9-2.4 1.2-.5 2.1-1.7 2.7-1.9h.1c.1 0 .2 0 .2.1.3.3.9 1.4 1.6 2.5.3.4.5.9.8 1.3 1 1.6 3 4 3.1 7.5z"/><path fill="#f4948e" d="M72.7 122c-.7.2-1.4.2-2 .2h-.4c-.2 0-.3 0-.5-.1-1.4-.4-2.5-1.9-2.5-1.9-.7.7-3.1-.5-2.9-1.9.1-1.2 1-.8 1.1-.8-.1-.1-1.7-1.5-2.1-4.2a4.42 4.42 0 0 1 .1-1.7c.4 1.2 1.5 4.3 3.8 7.2 2 2.4 4.2 3 5.4 3.2z"/><path fill="#b3c3ff" d="M93.1 131.7v.9l9.6 5.8v-.9z"/><path fill="#a0c7e0" d="M93.4 131.1l8 6.8 10.6-5.5-10-5.7z"/><path d="M65.4 114.7c.3-.3.7-.9 1.2-1.2s.6-.7.2-.9-1.5.4-1.8 1.2 0 1.4.4.9z" class="L"/><path d="M161.1 129.5c-.5-.2-7.5 3.4-7.5 3.4l-1.1 2.7-.2.4s1 .2 2.5-.2c.5-.1 1-.3 1.6-.6 2.4-1.1 3.4-2.4 4-3.3s1.3-2.2.7-2.4z" class="B"/><path d="M73.7 122.4c0 .2.3 2.1.3 2.1l2.1.2s3.1 4.1 5.9 6.9 6.3 4.5 10 3.3l-1.9-2.3s-4.2-1.1-6.1-2.3c-1.8-1.2-7-6.2-7-6.2s-.7-2-.9-2.1h-1.9l-.5.4z" class="F"/><path fill="#7aafcc" d="M93.4 131.1v.9l8 6.7 10.6-5.5v-.8l-10.6 5.5z"/><path d="M93.1 131.7l8.9-5.1 10.2 5.8-9.5 5.1z" class="F"/><path fill="#b5ddf4" d="M102 126.7l2.7-12.8 10.9 4-3.6 14.5z"/><path fill="#def4ff" d="M102.7 126.3l2.5-11.6 9.7 3.6-3.3 13.1z"/><path fill="#a1cfe5" d="M115.6 117.9l.7.5-3.7 14.2-.6-.2z"/><path d="M110.7 132.3l-.8.5-1.6.8-.1.1-.8.4-.1.1-1.8.9-.8-.5-.1-.1-.9-.5-.2-.1-.7-.4-.1-.1-.8-.5-.2-.1-2-1.2-.2-.1-.6-.4-.2-.1-.8-.5h-.1l-.5-.3.6-.4.1-.1 1-.5.7-.4.2-.1.6-.4h.1l.6-.4.2-.1.7-.4.3.2.2.1.6.4 1 .5.1.1.8.5 1 .5.1.1.8.5h.2l.7.5.2.1.7.4 1 .5.1.1z" class="B"/><path d="M69.1 111.2c-.2.4 0 1.1.7.6.5-.3.8-.7 1.2-.9s.4-.5 0-.6-1.4.1-1.9.9z" class="L"/><path fill="#54a9d3" d="M69.2 107.3h0z"/><path d="M155.3 134.5c-.4.6-.7 1-1 1.3l-.7.8-1 2.9s3.2.8 3.7.7l1.9-10.1c.1 0-1.7 2.7-2.9 4.4z" class="B"/><path d="M154.4 135.9c-1.2.2-2 .1-2 .1s-2.9 1.3-6.7 2.5h0s3.8 1.2 6.9 1l1-2.9c0 .1.3-.2.8-.7zm-87.7-16.2c-.6-1-1.7-1.4-1.9-1.4 0 0-.1 0-.1.1 0 0 0 .1.1.1l.6.2c0 .2 0 .8.2 1h.2c.1-.1.2-.3.2-.5.2.2.3.3.4.6h.1c.2 0 .2-.1.2-.1zm-.9-.1c-.2-.1-.2-.5-.2-.8.1.1.3.2.4.3 0 .2-.1.4-.2.5zm4.9-3.1c-.1-.1-.1-.1 0-.1.4-.3 1.4-.4 1.7-.4-.3-.5-1.3-1.7-2.9-3.3l-.1-.1v-.1h.1l.1.1c1 1 2.8 2.8 3 3.4v.1h-.2c-.2.1-1.3.1-1.7.4z" class="J"/><path fill="#fff" d="M69.6 118.9c.1 0 2.7-.3 3.3-.6 0 0-.1 1.7-1.2 2.1-1.2.3-2.1-1.5-2.1-1.5z"/><path d="M77 122c0 .1-.1.1 0 0l-2.8.1-.4.3-.3 2.1v.1s-1-.8-2-1.1c-.7-.2-2-.1-2.7-.1.1-.1.2-.1.3-.2.7-.1 1.8-.1 2.4.1.8.3 1.7.9 2 1.1l.3-2v-.1l.4-.4h2.6l-1.9-2.1v-.2L77 122z" class="B"/><path fill="#591712" d="M77.6 111s-.9-.3-1.6-.4c0 0-.1 0-.1-.1 0 0 0-.1.1-.1.7.1 1.6.4 1.6.4s.1.1 0 .2c0-.1 0 0 0 0z"/><path d="M80.4 122.6c-.1 0-.1 0 0 0-.3-.3-2.1-2.5-3.9-2.6 0 0-.1 0-.1-.1 0 0 0-.1.1-.1 1.8.1 3.7 2.3 3.9 2.6v.2zm.5 16.7c-1.7-.4-8.2-4.8-10.5-8.3-2.3-3.4-4.9-3.5-4.9-3.5s-.1 0-.1-.1c0 0 0-.1.1-.1 0 0 2.6.1 5 3.6 2.4 3.4 8.7 7.8 10.4 8.2.3-.1 4-.9 6.6-1.7 2.4-.8 4.1-1.7 5.4-2.4.2-.1.3-.2.5-.3h.1v.1c-.2.1-.3.2-.5.3-1.3.7-3 1.6-5.4 2.4-2.7 1-6.6 1.8-6.7 1.8h0zm1.9 6.7h-.6s-.1 0-.1-.1c0 0 0-.1.1-.1 3.3.1 6.1-.7 9.6-2.8 3.4-2 5.4-4.5 5.4-4.5h.1v.1s-2 2.5-5.4 4.5c-3.4 2.1-6 2.9-9.1 2.9zm40.7-17.2l-6.8 1.5-4 .9-.1-.1s0-.1.1-.1 2-.4 3.9-.9l5.9-1.4a4.59 4.59 0 0 0 1 .1zm21.5 10.1c-.1 0-.1-.1 0 0-.1-.1-.1-.1 0-.2.1 0 5.3-1.6 7.4-2.8h.1v.1c-2.2 1.3-7.5 2.8-7.5 2.9z" class="B"/><path d="M109.9 131.9l-.2-.1-.7.5-.8-.4.7-.5-.2-.1-.7.5-.3-.2-.4-.2.7-.5-.2-.1-.7.5-.7-.4.7-.5-.2-.1-.7.5-.8-.5.7-.5-.2-.1-.7.4-.8-.5.7-.4-.2-.1-.7.4-.8-.5.7-.4-.2-.1-.7.4-.8-.5.7-.4-.2-.1-.7.4-.6-.4.7-.4-.2-.1-.7.4-.4-.2-.2.1.7.4-.5.3-.7-.4-.2.1.5.3-.6.4-.5-.3-.2.1.2.1-.7.4-.2-.1-.2.1.8.5-.8.5-.8-.5-.2.1.5.3-.6.4.2.1.6-.4.9.5-.6.4.2.1.6-.4.6.4-.6.4.2.1.6-.4 2.1 1.2-.7.4.2.1.7-.4.8.4-.7.4.2.1.7-.4.7.4-.7.4.2.1.7-.4.9.5-.7.4.2.1.7-.4.9.5.2-.1-1.8-1 .8-.5 1.8 1.1.2-.1-.9-.5.7-.4.9.6.2-.1-.4-.2.6-.3.5.3.2-.1-1.1-.6.5-.3 1.2.7.2-.1-.7-.4.6-.7zm-2.3-.3l-.6.4-.7-.4.5-.3.8.3zm-3.5-.5l-.8-.5.5-.4.8.5-.5.4zm.7-.2l.8.5-.6.4-.8-.5.6-.4zm-1.7-.3l-.8-.5.6-.4.8.5-.6.4zm-.9-.6c-.1 0-.1 0 0 0l-.8-.4.6-.4.8.4-.6.4zm-.4 0l-.7.4-.7-.4.6-.4.8.4zm.1.1l.6.4-.7.4-.6-.4.7-.4zm.8.4l.8.5-.6.4-.8-.5.6-.4zm1 .6l.8.4-.7.4-.7-.4.6-.4zm.9.5l.8.5-.7.4-.8-.5.7-.4zm.6.2l.6-.4.7.4-.5.4-.8-.4zm1.5.2l.7.4-.5.4-.7-.4.5-.4zm0-.9l-.5.3-.8-.5.5-.3.8.5zm-1-.5l-.5.3-.8-.5.5-.3.8.5zm-1-.6l-.5.3-.9-.5.5-.3.9.5zm-1-.6l-.5.3-.8-.5.5-.3.8.5zm-1.6-1l.7.4-.5.3-.7-.4.5-.3zm-1 .3l.7.4-.6.4-.7-.4.6-.4zm-1.8.6l.7-.4.3.2.5.3-.6.4-.9-.5zm-.3 1l.8-.5.8.5-.8.5-.8-.5zm1 .5l.8-.5.8.5-.8.5-.8-.5zm1 .6l.8-.5.8.5-.8.5-.8-.5zm.9.6l.8-.5.8.5-.8.5-.8-.5zm1.8 1l-.8-.5.8-.5.8.4-.8.6zm.8.5l-.7-.4.8-.5.7.4-.8.5zm.4-.9l.7-.4.7.4-.7.4-.7-.4zm1.5.9l-.6-.4.7-.4.6.4-.7.4zm1.9-.6l-.6.3-.8-.5.5-.4.9.6zm-.5-.5l-.7-.4.5-.3.7.4-.5.3z" class="F"/><path d="M102.7 138.4l9.5-5.1v-.9l-9.5 5.1z" class="B"/><path d="M102 126.6l10.2 5.8 1.7-12.2-10.7-4.5z" class="F"/><path fill="#e1e7ff" d="M102.6 126.6l1-9.6 9.5 4-1.4 10.8z"/><path d="M113.9 120.2l.4.4-1.7 11.8h-.4z" class="B"/><path fill="#f3b6ab" d="M101.4 134.1c-.1.4-2.6 2.3-2.6 2.3s-.2-.1-.4-.3c-.4-.3-1.1-.9-1.6-1.4-.9-.8-1.1-1.1-1.1-1.1.5-.9 1.3-2.7 1.6-2.5s0 1.9 0 1.9 2.5-2.8 2.7-2.3-1.3 2.2-1.4 2.3c.1-.1 1.8-1.8 2.1-1.5s-1.1 1.9-1.3 2c.2-.1 1.8-1.3 2-1s-1.6 2-1.7 2.2c.1 0 1.7-.9 1.7-.6z"/><path d="M68 114.9c.2.6.3 1.1.1 1.2s-.5-.3-.7-.9-.3-1.1-.1-1.2c.2 0 .5.4.7.9zm3.3-2.4c.2.6.3 1.1.1 1.2s-.5-.3-.7-.9-.3-1.1-.1-1.2c.1-.1.4.3.7.9z" class="J"/><path fill="#ff435e" d="M103.5 126.6l1.3.8.7-5.5-1.4-.6z"/><path d="M105.5 127.8l1.3.8.4-3.7-1.4-.6z" class="K"/><path fill="#ff435e" d="M107.4 128.9l1.3.7.8-6.9-1.4-.6z"/><path d="M109.3 129.9l1.3.8.5-3.2-1.4-.6z" class="K"/><path fill="#f4948e" d="M101.4 134.1c-.1.4-2.6 2.3-2.6 2.3s-.2-.1-.4-.3c1.2-.5 3-2 3-2z"/><defs ><path id="B" d="M182.1 133.9h2.1a.68.68 0 0 1 .7.7v39.6a.68.68 0 0 1-.7.7h-2.1a.68.68 0 0 1-.7-.7v-39.6a.68.68 0 0 1 .7-.7z"/></defs></svg>