<svg xmlns="http://www.w3.org/2000/svg" width="890.302" height="489.3"><path fill="#e6e6e6" d="M182.972.4h703.576V451H182.972z"/><path d="M245.187 60.907h254v261h-254zm349 5.063h254v317h-254z" fill="#fff"/><g fill="#e6e6e6"><ellipse ry="6.5" rx="45.5" cy="477.262" cx="844.802"/><ellipse ry="6.5" rx="45.5" cy="477.407" cx="389.9"/></g><path fill="#6c63ff" d="M182.672 0h703.576v29.9H182.672z"/><g fill="#e6e6e6"><circle r="5.54" cy="15.282" cx="204.884"/><circle r="5.54" cy="15.282" cx="225.913"/><circle r="5.54" cy="15.282" cx="246.941"/></g><path fill="#3f3d56" d="M792.187 151h-1.54v-42.15a24.396 24.396 0 0 0-24.396-24.396H676.95a24.396 24.396 0 0 0-24.396 24.396v231.24a24.396 24.396 0 0 0 24.396 24.396h89.302a24.396 24.396 0 0 0 24.396-24.396V181.002h1.54V151z"/><path fill="#fff" d="M766.237 90.8H754.58a8.656 8.656 0 0 1-8.014 11.924h-51.16a8.656 8.656 0 0 1-8.014-11.924h-10.888a18.218 18.218 0 0 0-18.218 18.218V339.92a18.218 18.218 0 0 0 18.218 18.218h89.732a18.218 18.218 0 0 0 18.218-18.218V109.018a18.218 18.218 0 0 0-18.218-18.218z"/><path fill="#e6e6e6" d="M284.1 225.776h176.544v8.053H284.1z"/><path fill="#6c63ff" d="M284.1 251.776h176.544v8.053H284.1z"/><path d="M284.1 277.776h176.544v8.053H284.1zm386.74-34.43h103.064v8.053H670.84zm0 25h103.064v8.053H670.84zm0 25h103.064v8.053H670.84z" fill="#e6e6e6"/><path fill="#3f3d56" d="M784.68 401.213v17.177h-17.177v-17.177z"/><path fill="#6c63ff" d="M757.004 401.213v17.177h-17.177v-17.177z"/><path d="M729.33 401.213V418.4h-17.177v-17.177zm-27.675 0V418.4h-17.177v-17.177zm-27.675 0V418.4h-17.177v-17.177z" fill="#3f3d56"/><path fill="#6c63ff" d="M692.742 139H750v57.258h-57.258z"/><path d="M349.605 275.593l-.74 1.482-2.223-11.117s-2.965-11.858 2.965-11.858 4.447 11.858 4.447 11.858v8.152l-4.447 1.482zm97.24-1.518l.74 1.482 2.223-11.117s2.965-11.858-2.965-11.858-4.447 11.858-4.447 11.858v8.152l4.447 1.482z" fill="#a0616a"/><g fill="#2f2e41"><path d="M382.215 358.94l-8.893 54.844 4.446 53.36 10.376-4.446-1.482-40.022 10.376-31.87 2.223 37.798-4.446 39.28 13.34 1.483 9.635-80.784-.74-27.422-34.834-2.223z"/><path d="M382.215 460.475l-5.188 8.152v18.216a2.209 2.209 0 0 0 1.856 2.18c2.543.417 6.97.714 8.52-1.868 2.223-3.706.74-11.858.74-11.858s2.965-5.93 1.482-10.376-2.965-5.188-2.965-5.188l-4.447.74zm22.235 7.41l1.482 2.223s2.223 2.223.74 3.706a28.966 28.966 0 0 0-2.965 3.706s-8.152 2.223-8.152-.74v-9.635l8.894.74z"/></g><g fill="#a0616a"><circle r="9.824" cy="288.795" cx="401.778"/><path d="M395.185 291.867l-.74 14.082 13.34.74-.74-14.082-11.858-.74z"/></g><g fill="#575a89"><path d="M409.637 307.06l-2.104-5.14s-9.754-3.754-12.72-.048l-1.482 4.447-11.858-2.965-6.67 14.823 5.93 42.245s15.564 20.01 36.316.74l5.93-40.02-4.447-15.564-8.894 1.482z"/><path d="M417.05 308.543l1.482-2.965 14.823-8.894 9.046-26.777 7 3-7.894 31.93-21.493 20-2.964-16.304zm-34.094-3.706l-1.482-1.482-15.564-9.635-11.117-22.234-8.893 2.964 9.634 27.422 23.717 19.27 3.705-16.305z"/></g><path fill="#2f2e41" d="M409.07 273.75l1.606-.803-2.41-.803v-.803s-12.047-4.82-13.653 3.213a16.143 16.143 0 0 0 0 19.275v2.41l12.85 1.606 1.606-4.82s8.03-14.457 0-19.275z"/><path fill="#e6e6e6" d="M284.187 90.907h176v101h-176z"/><path fill="#ffb8b8" d="M808.202 291.234l.815-5.26s4.753-10.805.996-11.388-6.89 9.704-6.89 9.704l1.375 10.986 3.705-4.042z"/><path fill="#575a89" d="M846.67 321.05l-33.58-6.745-3.902-24.46-9.885-.763.483 31.623 29.177 15.297 17.708-14.953z"/><path opacity=".2" d="M846.67 321.05l-33.58-6.745-3.902-24.46-9.885-.763.483 31.623 29.177 15.297 17.708-14.953z"/><path fill="#6c63ff" d="M858.377 284.764H755.313v-8.053h103.064z"/><path fill="#ffb8b8" d="M801.64 289.43l.007-5.323s3.056-11.402-.746-11.407-5.336 10.64-5.336 10.64l3.028 10.65 3.047-4.56z"/><g fill="#2f2e41"><path d="M845.353 304.675l4.607-1.123a11.862 11.862 0 0 0 11.642-14.211h0a15.504 15.504 0 0 0-15.485-15.524h0a15.504 15.504 0 0 0-15.524 15.485h0a12.321 12.321 0 0 0 14.759 15.373zm-27.1 76.783l3.75 41.066 6.792 40.3 11.406.014-1.47-39.542-6.023-47.912-14.455 6.065z"/><path d="M830.32 460.554l-7.6 4.553s-12.168 1.505-9.892 5.3 28.893 1.557 28.895.036-.748-9.886-2.27-9.888l-9.125-.01zm21.602-82.654s-.214 5.87-5.548 15l.725 28.135 27.33 35.012-9.896 8.352-33.4-38.06-8.307-45.634 10.66-10.632 18.446 7.84z"/><path d="M872.148 456.044s9.123 1.532 7.597 5.332-5.35 21.284-15.232 18.99c0 0-4.562-.006-3.038-3.045a55.004 55.004 0 0 1 3.048-5.319l.012-9.885 7.612-6.074z"/></g><g fill="#ffb8b8"><circle r="11.406" cy="294.041" cx="840.415"/><path d="M845.728 301.652l-.016 12.926-12.166-.015 1.537-12.924 10.645.013z"/></g><g fill="#575a89"><path d="M830.5 309.997l3.687-.906 11.52.925s6.075 6.09 5.313 7.61-4.61 38.774-4.61 38.774l6.8 26.622-24.334 1.5-12.164-1.536 2.34-47.902s-5.306-12.933 1.542-16.727a29.954 29.954 0 0 0 9.895-8.352z"/><path d="M844.193 313.056l-34.215-1.564-7.574-23.58-9.886.747 5.283 31.183 31.163 10.685 15.23-17.47z"/></g><g fill="#2f2e41"><circle r="7.359" cy="278.279" cx="862.432"/><path d="M855.643 274.323a7.355 7.355 0 0 1 8.807-7.205 7.355 7.355 0 1 0-4.588 13.862 7.353 7.353 0 0 1-4.219-6.657zm-6.313 4.174l-9.92-1.827-7.63 4.782a11.573 11.573 0 0 0-5.331 11.295l7.64-1.937 1.7-4.3 2.038 3.34 8.267 14.454 8.37-4.552 5.333-8.358-10.48-12.907z"/></g><g fill="#fff"><path d="M283.69 91.774l.995-1.734 176 101-.995 1.734z"/><path d="M283.686 191.033L459.693 90.047l.995 1.734L284.68 192.768zm408.794-51.42l1.414-1.414 57 57-1.414 1.414z"/><path d="M692.48 195.2l57-57 1.414 1.414-57 57z"/></g></svg>